Merriweatherr.glyphspackage
{
glyphname = six;
layers = (
{
layerId = UUID0;
shapes = (
{
closed = 1;
nodes = (
(914,-26,o),
(1106,214,o),
(1106,496,cs),
(1106,768,o),
(954,978,o),
(648,978,cs),
(488,978,o),
(372,894,o),
(312,820,c),
(388,1114,o),
(552,1372,o),
(914,1496,c),
(876,1572,l),
(432,1476,o),
(110,1056,o),
(110,604,cs),
(110,252,o),
(280,-26,o),
(604,-26,cs)
);
},
{
closed = 1;
nodes = (
(810,874,o),
(934,746,o),
(934,460,cs),
(934,270,o),
(826,64,o),
(616,64,cs),
(372,64,o),
(286,330,o),
(286,564,cs),
(286,650,o),
(288,668,o),
(290,686,c),
(324,754,o),
(438,874,o),
(646,874,cs)
);
}
);
width = 1196;
},
{
layerId = "DEBB1CE4-A72D-4960-969E-E04A036D2FA1";
shapes = (
{
closed = 1;
nodes = (
(986,-34,o),
(1177,184,o),
(1177,478,cs),
(1177,764,o),
(1012,942,o),
(752,942,cs),
(614,942,o),
(528,894,o),
(468,844,c),
(542,1098,o),
(696,1316,o),
(982,1402,c),
(916,1522,l),
(522,1476,o),
(90,1092,o),
(90,562,cs),
(90,226,o),
(274,-34,o),
(628,-34,cs)
);
},
{
closed = 1;
nodes = (
(765,776,o),
(831,674,o),
(831,418,cs),
(831,210,o),
(778,100,o),
(640,100,cs),
(492,100,o),
(428,262,o),
(428,532,cs),
(428,596,o),
(432,642,o),
(436,684,c),
(472,724,o),
(534,776,o),
(643,776,cs)
);
}
);
width = 1242;
},
{
layerId = "184155C8-9F61-4F1C-9784-DDA8EA717636";
shapes = (
{
closed = 1;
nodes = (
(954,-35,o),
(1224,139,o),
(1224,514,cs),
(1224,814,o),
(1035,948,o),
(827,948,cs),
(690,948,o),
(552,884,o),
(471,752,c),
(503,1036,o),
(624,1371,o),
(999,1457,c),
(970,1517,l),
(447,1499,o),
(63,1084,o),
(63,603,cs),
(63,222,o),
(273,-35,o),
(644,-35,cs)
);
},
{
closed = 1;
nodes = (
(784,790,o),
(829,601,o),
(829,405,cs),
(829,198,o),
(777,30,o),
(645,30,cs),
(526,30,o),
(463,161,o),
(463,510,cs),
(463,589,o),
(467,652,o),
(471,697,c),
(503,734,o),
(570,790,o),
(648,790,cs)
);
}
);
width = 1281;
},
{
layerId = "EA2265BD-E890-48C4-9E90-A53076E780C5";
shapes = (
{
closed = 1;
nodes = (
(949,-33,o),
(1130,206,o),
(1130,498,cs),
(1130,783,o),
(971,943,o),
(737,943,cs),
(613,943,o),
(533,894,o),
(477,843,c),
(523,1100,o),
(640,1317,o),
(962,1406,c),
(898,1524,l),
(474,1475,o),
(90,1109,o),
(90,613,cs),
(90,228,o),
(274,-33,o),
(608,-33,cs)
);
},
{
closed = 1;
nodes = (
(732,780,o),
(794,676,o),
(794,439,cs),
(794,212,o),
(747,99,o),
(627,99,cs),
(501,99,o),
(436,265,o),
(436,534,cs),
(436,589,o),
(439,638,o),
(444,684,c),
(480,727,o),
(532,780,o),
(621,780,cs)
);
}
);
width = 1208;
},
{
layerId = "0E4B6E2E-ECAB-4D06-9686-B0B40AA31834";
shapes = (
{
closed = 1;
nodes = (
(886,-26,o),
(1065,214,o),
(1065,496,cs),
(1065,768,o),
(924,978,o),
(633,978,cs),
(481,978,o),
(375,894,o),
(318,820,c),
(390,1114,o),
(544,1372,o),
(888,1496,c),
(850,1572,l),
(428,1476,o),
(115,1056,o),
(115,604,cs),
(115,252,o),
(283,-26,o),
(591,-26,cs)
);
},
{
closed = 1;
nodes = (
(785,874,o),
(891,746,o),
(891,460,cs),
(891,270,o),
(800,64,o),
(603,64,cs),
(373,64,o),
(293,330,o),
(293,564,cs),
(293,650,o),
(295,668,o),
(297,686,c),
(329,754,o),
(435,874,o),
(631,874,cs)
);
}
);
width = 1155;
},
{
layerId = "F2B10EEF-9DDC-48CA-970D-6B8C79870881";
shapes = (
{
closed = 1;
nodes = (
(837,-38,o),
(1075,155,o),
(1075,511,cs),
(1075,805,o),
(909,939,o),
(725,939,cs),
(605,939,o),
(479,875,o),
(408,742,c),
(436,1029,o),
(544,1362,o),
(871,1447,c),
(844,1507,l),
(400,1489,o),
(46,1075,o),
(46,594,cs),
(46,252,o),
(232,-38,o),
(564,-38,cs)
);
},
{
closed = 1;
nodes = (
(669,781,o),
(717,591,o),
(717,401,cs),
(717,214,o),
(668,27,o),
(558,27,cs),
(459,27,o),
(401,178,o),
(401,506,cs),
(401,584,o),
(405,643,o),
(408,688,c),
(434,725,o),
(491,781,o),
(555,781,cs)
);
}
);
width = 1113;
},
{
layerId = "E96AC896-F5DF-475B-BBD9-C7FEC6A86D0E";
shapes = (
{
closed = 1;
nodes = (
(826,-27,o),
(985,254,o),
(985,522,cs),
(985,818,o),
(816,976,o),
(594,976,cs),
(474,976,o),
(345,918,o),
(255,761,c),
(295,1088,o),
(473,1398,o),
(818,1522,c),
(795,1572,l),
(372,1476,o),
(75,1056,o),
(75,604,cs),
(75,312,o),
(210,-25,o),
(519,-26,cs)
);
},
{
closed = 1;
nodes = (
(755,907,o),
(820,708,o),
(820,497,cs),
(820,259,o),
(744,19,o),
(530,19,cs),
(299,19,o),
(248,388,o),
(248,552,cs),
(248,628,o),
(249,705,o),
(251,723,c),
(310,813,o),
(430,910,o),
(556,909,cs)
);
}
);
width = 1044;
},
{
layerId = "C9B9556E-C2FD-4F62-BB40-44923C452C22";
shapes = (
{
closed = 1;
nodes = (
(903,-27,o),
(1070,254,o),
(1070,522,cs),
(1070,818,o),
(892,976,o),
(653,976,cs),
(524,976,o),
(377,918,o),
(280,761,c),
(324,1088,o),
(523,1398,o),
(894,1522,c),
(869,1572,l),
(414,1476,o),
(100,1056,o),
(100,604,cs),
(100,322,o),
(240,-25,o),
(572,-26,cs)
);
},
{
closed = 1;
nodes = (
(826,908,o),
(898,708,o),
(898,497,cs),
(898,259,o),
(814,19,o),
(584,19,cs),
(335,19,o),
(273,388,o),
(273,552,cs),
(273,628,o),
(274,705,o),
(276,723,c),
(340,813,o),
(471,910,o),
(612,909,cs)
);
}
);
width = 1160;
},
{
layerId = "AFA1064D-EFC9-4C9F-B9B0-9118E41D87C4";
shapes = (
{
closed = 1;
nodes = (
(966,-38,o),
(1249,155,o),
(1249,511,cs),
(1249,804,o),
(1049,939,o),
(840,939,cs),
(703,939,o),
(545,876,o),
(463,742,c),
(495,1023,o),
(630,1362,o),
(1006,1447,c),
(975,1507,l),
(468,1489,o),
(53,1075,o),
(53,594,cs),
(53,251,o),
(276,-38,o),
(655,-38,cs)
);
},
{
closed = 1;
nodes = (
(775,781,o),
(843,592,o),
(843,401,cs),
(843,214,o),
(774,27,o),
(649,27,cs),
(534,27,o),
(456,178,o),
(456,506,cs),
(456,585,o),
(460,643,o),
(463,688,c),
(494,725,o),
(571,781,o),
(646,781,cs)
);
}
);
width = 1296;
},
{
layerId = "2103F1D3-C390-4F79-A87D-298F85EA6916";
shapes = (
{
closed = 1;
nodes = (
(959,-27,o),
(1146,254,o),
(1146,522,cs),
(1146,818,o),
(948,976,o),
(687,976,cs),
(546,976,o),
(376,918,o),
(271,761,c),
(318,1088,o),
(535,1398,o),
(950,1522,c),
(923,1572,l),
(426,1476,o),
(80,1056,o),
(80,604,cs),
(80,322,o),
(236,-25,o),
(599,-26,cs)
);
},
{
closed = 1;
nodes = (
(876,908,o),
(964,708,o),
(964,497,cs),
(964,259,o),
(862,19,o),
(612,19,cs),
(340,19,o),
(263,388,o),
(263,552,cs),
(263,628,o),
(264,705,o),
(266,723,c),
(335,813,o),
(479,910,o),
(642,909,cs)
);
}
);
width = 1221;
},
{
layerId = "779F1615-9D1A-4778-9767-9A030AA58B6C";
shapes = (
{
closed = 1;
nodes = (
(935,-26,o),
(1134,214,o),
(1134,496,cs),
(1134,768,o),
(976,978,o),
(659,978,cs),
(492,978,o),
(369,894,o),
(307,820,c),
(386,1114,o),
(559,1372,o),
(935,1496,c),
(895,1572,l),
(434,1476,o),
(100,1056,o),
(100,604,cs),
(100,252,o),
(276,-26,o),
(613,-26,cs)
);
},
{
closed = 1;
nodes = (
(827,874,o),
(959,746,o),
(959,460,cs),
(959,270,o),
(843,64,o),
(625,64,cs),
(372,64,o),
(280,330,o),
(280,564,cs),
(280,650,o),
(282,668,o),
(284,686,c),
(319,754,o),
(440,874,o),
(656,874,cs)
);
}
);
userData = {
com.schriftgestaltung.Glyphs.lastChange = "2019-04-25 21:50:43 +0000";
};
width = 1224;
},
{
layerId = "97BB7961-D669-43AB-8BBF-11FFD0C46A4B";
shapes = (
{
closed = 1;
nodes = (
(1051,-34,o),
(1284,194,o),
(1284,488,cs),
(1284,774,o),
(1098,942,o),
(813,942,cs),
(661,942,o),
(563,894,o),
(497,844,c),
(578,1098,o),
(737,1306,o),
(1051,1422,c),
(985,1542,l),
(553,1466,o),
(84,1092,o),
(84,562,cs),
(84,226,o),
(325,-34,o),
(677,-34,cs)
);
},
{
closed = 1;
nodes = (
(824,776,o),
(916,674,o),
(916,418,cs),
(916,210,o),
(841,100,o),
(690,100,cs),
(518,100,o),
(450,262,o),
(450,532,cs),
(450,596,o),
(454,642,o),
(459,684,c),
(498,724,o),
(579,776,o),
(690,776,cs)
);
}
);
width = 1340;
}
);
unicode = 54;
}
{
glyphname = colon;
layers = (
{
layerId = UUID0;
shapes = (
{
closed = 1;
nodes = (
(298,800,o),
(360,854,o),
(360,932,cs),
(360,990,o),
(328,1044,o),
(252,1044,cs),
(186,1044,o),
(122,988,o),
(122,912,cs),
(122,844,o),
(172,800,o),
(232,800,cs)
);
},
{
closed = 1;
nodes = (
(298,-22,o),
(360,32,o),
(360,110,cs),
(360,168,o),
(328,222,o),
(252,222,cs),
(186,222,o),
(122,166,o),
(122,90,cs),
(122,22,o),
(172,-22,o),
(232,-22,cs)
);
}
);
width = 482;
},
{
layerId = "DEBB1CE4-A72D-4960-969E-E04A036D2FA1";
shapes = (
{
closed = 1;
nodes = (
(407,763,o),
(487,829,o),
(487,944,cs),
(487,1030,o),
(422,1112,o),
(311,1112,cs),
(201,1112,o),
(110,1038,o),
(110,930,cs),
(110,832,o),
(189,763,o),
(287,763,cs)
);
},
{
closed = 1;
nodes = (
(407,-16,o),
(487,50,o),
(487,165,cs),
(487,251,o),
(422,333,o),
(311,333,cs),
(201,333,o),
(110,259,o),
(110,151,cs),
(110,53,o),
(189,-16,o),
(287,-16,cs)
);
}
);
width = 593;
},
{
layerId = "184155C8-9F61-4F1C-9784-DDA8EA717636";
shapes = (
{
closed = 1;
nodes = (
(337,666,o),
(411,726,o),
(411,831,cs),
(411,909,o),
(356,983,o),
(255,983,cs),
(155,983,o),
(76,916,o),
(76,818,cs),
(76,729,o),
(147,666,o),
(227,666,cs)
);
},
{
closed = 1;
nodes = (
(338,-16,o),
(412,44,o),
(412,149,cs),
(412,227,o),
(357,301,o),
(256,301,cs),
(156,301,o),
(77,234,o),
(77,136,cs),
(77,47,o),
(148,-16,o),
(228,-16,cs)
);
}
);
width = 488;
},
{
layerId = "EA2265BD-E890-48C4-9E90-A53076E780C5";
shapes = (
{
closed = 1;
nodes = (
(393,763,o),
(479,829,o),
(479,944,cs),
(479,1030,o),
(414,1112,o),
(323,1112,cs),
(233,1112,o),
(142,1038,o),
(142,930,cs),
(142,832,o),
(225,763,o),
(293,763,cs)
);
},
{
closed = 1;
nodes = (
(393,-16,o),
(479,50,o),
(479,165,cs),
(479,251,o),
(414,333,o),
(323,333,cs),
(233,333,o),
(142,259,o),
(142,151,cs),
(142,53,o),
(225,-16,o),
(293,-16,cs)
);
}
);
width = 620;
},
{
layerId = "0E4B6E2E-ECAB-4D06-9686-B0B40AA31834";
shapes = (
{
closed = 1;
nodes = (
(300,800,o),
(362,854,o),
(362,932,cs),
(362,990,o),
(330,1044,o),
(256,1044,cs),
(192,1044,o),
(128,988,o),
(128,912,cs),
(128,844,o),
(178,800,o),
(236,800,cs)
);
},
{
closed = 1;
nodes = (
(300,-22,o),
(362,32,o),
(362,110,cs),
(362,168,o),
(330,222,o),
(256,222,cs),
(192,222,o),
(128,166,o),
(128,90,cs),
(128,22,o),
(178,-22,o),
(236,-22,cs)
);
}
);
width = 490;
},
{
layerId = "F2B10EEF-9DDC-48CA-970D-6B8C79870881";
shapes = (
{
closed = 1;
nodes = (
(300,666,o),
(365,726,o),
(365,831,cs),
(365,909,o),
(316,983,o),
(227,983,cs),
(138,983,o),
(68,916,o),
(68,818,cs),
(68,729,o),
(131,666,o),
(202,666,cs)
);
},
{
closed = 1;
nodes = (
(300,-16,o),
(365,44,o),
(365,149,cs),
(365,227,o),
(316,301,o),
(227,301,cs),
(138,301,o),
(68,234,o),
(68,136,cs),
(68,47,o),
(131,-16,o),
(202,-16,cs)
);
}
);
width = 433;
},
{
layerId = "E96AC896-F5DF-475B-BBD9-C7FEC6A86D0E";
shapes = (
{
closed = 1;
nodes = (
(205,725,o),
(248,759,o),
(248,832,cs),
(248,879,o),
(225,923,o),
(173,923,cs),
(126,923,o),
(82,887,o),
(82,816,cs),
(82,761,o),
(117,725,o),
(159,725,cs)
);
},
{
closed = 1;
nodes = (
(205,-22,o),
(248,12,o),
(248,85,cs),
(248,132,o),
(225,176,o),
(173,176,cs),
(126,176,o),
(82,140,o),
(82,69,cs),
(82,14,o),
(117,-22,o),
(159,-22,cs)
);
}
);
width = 330;
},
{
background = {
shapes = (
{
closed = 1;
nodes = (
(228,725,o),
(278,769,o),
(278,832,cs),
(278,879,o),
(252,923,o),
(191,923,cs),
(137,923,o),
(86,877,o),
(86,816,cs),
(86,761,o),
(126,725,o),
(175,725,cs)
);
}
);
};
layerId = "C9B9556E-C2FD-4F62-BB40-44923C452C22";
shapes = (
{
closed = 1;
nodes = (
(226,725,o),
(276,769,o),
(276,832,cs),
(276,879,o),
(250,923,o),
(191,923,cs),
(139,923,o),
(88,877,o),
(88,816,cs),
(88,761,o),
(128,725,o),
(175,725,cs)
);
},
{
closed = 1;
nodes = (
(226,-22,o),
(276,22,o),
(276,85,cs),
(276,132,o),
(250,176,o),
(191,176,cs),
(139,176,o),
(88,130,o),
(88,69,cs),
(88,14,o),
(128,-22,o),
(175,-22,cs)
);
}
);
width = 364;
},
{
layerId = "AFA1064D-EFC9-4C9F-B9B0-9118E41D87C4";
shapes = (
{
closed = 1;
nodes = (
(352,666,o),
(431,726,o),
(431,831,cs),
(431,909,o),
(373,983,o),
(269,983,cs),
(166,983,o),
(82,916,o),
(82,818,cs),
(82,729,o),
(157,666,o),
(238,666,cs)
);
},
{
closed = 1;
nodes = (
(352,-16,o),
(431,44,o),
(431,149,cs),
(431,227,o),
(373,301,o),
(269,301,cs),
(166,301,o),
(82,234,o),
(82,136,cs),
(82,47,o),
(157,-16,o),
(238,-16,cs)
);
}
);
width = 513;
},
{
layerId = "2103F1D3-C390-4F79-A87D-298F85EA6916";
shapes = (
{
closed = 1;
nodes = (
(260,725,o),
(302,769,o),
(302,832,cs),
(302,879,o),
(286,923,o),
(214,923,cs),
(150,923,o),
(106,877,o),
(106,816,cs),
(106,761,o),
(137,725,o),
(196,725,cs)
);
},
{
closed = 1;
nodes = (
(260,-22,o),
(302,22,o),
(302,85,cs),
(302,132,o),
(286,176,o),
(214,176,cs),
(150,176,o),
(106,130,o),
(106,69,cs),
(106,14,o),
(137,-22,o),
(196,-22,cs)
);
}
);
width = 408;
},
{
layerId = "779F1615-9D1A-4778-9767-9A030AA58B6C";
shapes = (
{
closed = 1;
nodes = (
(296,800,o),
(358,854,o),
(358,932,cs),
(358,990,o),
(326,1044,o),
(250,1044,cs),
(184,1044,o),
(120,988,o),
(120,912,cs),
(120,844,o),
(170,800,o),
(230,800,cs)
);
},
{
closed = 1;
nodes = (
(296,-22,o),
(358,32,o),
(358,110,cs),
(358,168,o),
(326,222,o),
(250,222,cs),
(184,222,o),
(120,166,o),
(120,90,cs),
(120,22,o),
(170,-22,o),
(230,-22,cs)
);
}
);
userData = {
com.schriftgestaltung.Glyphs.lastChange = "2019-04-25 21:50:43 +0000";
};
width = 478;
},
{
layerId = "97BB7961-D669-43AB-8BBF-11FFD0C46A4B";
shapes = (
{
closed = 1;
nodes = (
(414,763,o),
(499,829,o),
(499,944,cs),
(499,1030,o),
(435,1112,o),
(323,1112,cs),
(213,1112,o),
(122,1038,o),
(122,929,cs),
(122,832,o),
(205,763,o),
(293,763,cs)
);
},
{
closed = 1;
nodes = (
(414,-16,o),
(499,50,o),
(499,165,cs),
(499,251,o),
(435,333,o),
(323,333,cs),
(213,333,o),
(122,259,o),
(122,150,cs),
(122,53,o),
(205,-16,o),
(293,-16,cs)
);
}
);
width = 620;
}
);
metricLeft = period;
metricRight = period;
unicode = 58;
userData = {
KernOnSpecialSpacing = {
L = "spaced-off";
R = "spaced-off";
};
};
}
{
glyphname = asciicircum;
layers = (
{
layerId = UUID0;
shapes = (
{
closed = 1;
nodes = (
(582,1496,l),
(180,266,l),
(310,266,l),
(664,1284,l),
(1020,266,l),
(1150,266,l),
(746,1496,l)
);
}
);
width = 1332;
},
{
layerId = "DEBB1CE4-A72D-4960-969E-E04A036D2FA1";
shapes = (
{
closed = 1;
nodes = (
(552,1496,l),
(155,267,l),
(381,267,l),
(664,1133,l),
(934,267,l),
(1177,267,l),
(774,1496,l)
);
}
);
width = 1332;
},
{
layerId = "184155C8-9F61-4F1C-9784-DDA8EA717636";
shapes = (
{
closed = 1;
nodes = (
(557,1496,l),
(155,267,l),
(246,267,l),
(602,1362,l),
(948,267,l),
(1047,267,l),
(641,1496,l)
);
}
);
width = 1202;
},
{
layerId = "EA2265BD-E890-48C4-9E90-A53076E780C5";
shapes = (
{
closed = 1;
nodes = (
(479,1496,l),
(131,267,l),
(349,267,l),
(585,1133,l),
(807,267,l),
(1042,267,l),
(688,1496,l)
);
}
);
width = 1172;
},
{
layerId = "0E4B6E2E-ECAB-4D06-9686-B0B40AA31834";
shapes = (
{
closed = 1;
nodes = (
(504,1496,l),
(154,266,l),
(281,266,l),
(579,1284,l),
(877,266,l),
(1006,266,l),
(654,1496,l)
);
}
);
width = 1161;
},
{
layerId = "F2B10EEF-9DDC-48CA-970D-6B8C79870881";
shapes = (
{
closed = 1;
nodes = (
(471,1496,l),
(135,267,l),
(224,267,l),
(516,1362,l),
(816,267,l),
(913,267,l),
(555,1496,l)
);
}
);
width = 1048;
},
{
layerId = "E96AC896-F5DF-475B-BBD9-C7FEC6A86D0E";
shapes = (
{
closed = 1;
nodes = (
(513,1496,l),
(152,267,l),
(243,267,l),
(554,1362,l),
(856,267,l),
(955,267,l),
(597,1496,l)
);
}
);
width = 1107;
},
{
layerId = "C9B9556E-C2FD-4F62-BB40-44923C452C22";
shapes = (
{
closed = 1;
nodes = (
(572,1496,l),
(170,267,l),
(261,267,l),
(617,1362,l),
(963,267,l),
(1062,267,l),
(656,1496,l)
);
}
);
width = 1234;
},
{
layerId = "AFA1064D-EFC9-4C9F-B9B0-9118E41D87C4";
shapes = (
{
closed = 1;
nodes = (
(644,1496,l),
(175,267,l),
(263,267,l),
(687,1370,l),
(1084,267,l),
(1181,267,l),
(728,1496,l)
);
}
);
width = 1356;
},
{
layerId = "2103F1D3-C390-4F79-A87D-298F85EA6916";
shapes = (
{
closed = 1;
nodes = (
(624,1496,l),
(190,267,l),
(281,267,l),
(668,1362,l),
(1045,267,l),
(1144,267,l),
(714,1496,l)
);
}
);
width = 1336;
},
{
layerId = "779F1615-9D1A-4778-9767-9A030AA58B6C";
shapes = (
{
closed = 1;
nodes = (
(652,1496,l),
(200,266,l),
(330,266,l),
(738,1314,l),
(1151,266,l),
(1281,266,l),
(825,1496,l)
);
}
);
userData = {
com.schriftgestaltung.Glyphs.lastChange = "2019-04-25 21:50:43 +0000";
};
width = 1483;
},
{
layerId = "97BB7961-D669-43AB-8BBF-11FFD0C46A4B";
shapes = (
{
closed = 1;
nodes = (
(621,1496,l),
(175,267,l),
(409,267,l),
(739,1149,l),
(1057,267,l),
(1308,267,l),
(856,1496,l)
);
}
);
width = 1483;
}
);
unicode = 94;
userData = {
KernOnSpecialSpacing = {
L = math;
R = math;
};
};
}
{
color = 4;
glyphname = z;
layers = (
{
anchors = (
{
name = bottom;
pos = (540,0);
},
{
name = mid;
pos = (540,555);
},
{
name = top;
pos = (550,1110);
}
);
layerId = UUID0;
shapes = (
{
closed = 1;
nodes = (
(692,890,l),
(62,76,l),
(98,0,l),
(974,0,l),
(1022,326,l),
(920,338,l),
(832,120,l),
(242,102,l),
(367,216,l),
(1001,1036,l),
(967,1110,l),
(133,1110,l),
(133,804,l),
(243,804,l),
(271,992,l),
(817,1006,l)
);
}
);
width = 1079;
},
{
anchors = (
{
name = bottom;
pos = (556,0);
},
{
name = mid;
pos = (556,556);
},
{
name = top;
pos = (576,1112);
}
);
layerId = "DEBB1CE4-A72D-4960-969E-E04A036D2FA1";
shapes = (
{
closed = 1;
nodes = (
(552,810,l),
(38,122,l),
(94,0,l),
(1030,0,l),
(1071,375,l),
(922,393,l),
(800,158,l),
(424,136,l),
(568,290,l),
(1066,996,l),
(1014,1112,l),
(113,1112,l),
(113,760,l),
(270,760,l),
(333,958,l),
(703,973,l)
);
}
);
width = 1111;
},
{
anchors = (
{
name = bottom;
pos = (492,0);
},
{
name = mid;
pos = (496,503);
},
{
name = top;
pos = (502,1005);
}
);
layerId = "184155C8-9F61-4F1C-9784-DDA8EA717636";
shapes = (
{
closed = 1;
nodes = (
(542,875,l),
(15,54,l),
(61,0,l),
(893,0,l),
(953,375,l),
(797,402,l),
(657,82,l),
(361,44,l),
(466,170,l),
(966,948,l),
(922,1005,l),
(91,1002,l),
(54,651,l),
(225,654,l),
(325,928,l),
(626,959,l)
);
}
);
width = 984;
},
{
anchors = (
{
name = bottom;
pos = (492,0);
},
{
name = mid;
pos = (487,556);
},
{
name = top;
pos = (507,1112);
}
);
layerId = "EA2265BD-E890-48C4-9E90-A53076E780C5";
shapes = (
{
closed = 1;
nodes = (
(469,810,l),
(32,122,l),
(81,0,l),
(908,0,l),
(945,375,l),
(814,393,l),
(707,158,l),
(372,136,l),
(493,289,l),
(940,996,l),
(895,1112,l),
(107,1112,l),
(107,760,l),
(244,760,l),
(299,958,l),
(607,973,l)
);
}
);
width = 983;
},
{
anchors = (
{
name = bottom;
pos = (475,0);
},
{
name = mid;
pos = (475,555);
},
{
name = top;
pos = (485,1110);
}
);
layerId = "0E4B6E2E-ECAB-4D06-9686-B0B40AA31834";
shapes = (
{
closed = 1;
nodes = (
(606,890,l),
(55,76,l),
(86,0,l),
(855,0,l),
(897,326,l),
(807,338,l),
(730,120,l),
(216,102,l),
(327,216,l),
(880,1036,l),
(850,1110,l),
(119,1110,l),
(119,804,l),
(215,804,l),
(240,992,l),
(715,1006,l)
);
}
);
width = 949;
},
{
anchors = (
{
name = bottom;
pos = (430,0);
},
{
name = mid;
pos = (426,503);
},
{
name = top;
pos = (477,1005);
}
);
background = {
shapes = (
{
closed = 1;
nodes = (
(371,130,l),
(839,893,l),
(788,1005,l),
(60,1005,l),
(10,630,l),
(127,609,l),
(229,885,l),
(541,953,l),
(454,835,l),
(10,55,l),
(49,0,l),
(764,0,l),
(788,351,l),
(661,351,l),
(583,100,l),
(308,51,l)
);
}
);
};
layerId = "F2B10EEF-9DDC-48CA-970D-6B8C79870881";
shapes = (
{
closed = 1;
nodes = (
(488,875,l),
(10,55,l),
(53,0,l),
(809,0,l),
(869,375,l),
(752,396,l),
(640,120,l),
(328,52,l),
(415,170,l),
(869,950,l),
(830,1005,l),
(95,1005,l),
(61,654,l),
(188,654,l),
(276,905,l),
(551,954,l)
);
}
);
width = 869;
},
{
anchors = (
{
name = bottom;
pos = (385,0);
},
{
name = mid;
pos = (385,503);
},
{
name = top;
pos = (405,1005);
}
);
layerId = "E96AC896-F5DF-475B-BBD9-C7FEC6A86D0E";
shapes = (
{
closed = 1;
nodes = (
(507,806,l),
(29,54,l),
(58,0,l),
(708,0,l),
(745,313,l),
(680,325,l),
(579,71,l),
(151,46,l),
(283,224,l),
(745,951,l),
(718,1005,l),
(96,1005,l),
(96,699,l),
(159,699,l),
(215,936,l),
(622,960,l)
);
}
);
width = 770;
},
{
anchors = (
{
name = bottom;
pos = (453,0);
},
{
name = mid;
pos = (451,503);
},
{
name = top;
pos = (453,1005);
}
);
layerId = "C9B9556E-C2FD-4F62-BB40-44923C452C22";
shapes = (
{
closed = 1;
nodes = (
(574,806,l),
(47,54,l),
(78,0,l),
(817,0,l),
(853,313,l),
(785,325,l),
(689,71,l),
(183,46,l),
(337,224,l),
(846,951,l),
(817,1005,l),
(104,1005,l),
(104,699,l),
(169,699,l),
(219,936,l),
(708,960,l)
);
}
);
width = 906;
},
{
anchors = (
{
name = bottom;
pos = (523,0);
},
{
name = mid;
pos = (526,503);
},
{
name = top;
pos = (550,1005);
}
);
layerId = "AFA1064D-EFC9-4C9F-B9B0-9118E41D87C4";
shapes = (
{
closed = 1;
nodes = (
(578,875,l),
(22,64,l),
(69,0,l),
(983,0,l),
(1034,375,l),
(875,402,l),
(743,82,l),
(394,54,l),
(499,170,l),
(1019,938,l),
(984,1005,l),
(110,1002,l),
(64,651,l),
(239,654,l),
(348,928,l),
(653,949,l)
);
}
);
width = 1046;
},
{
anchors = (
{
name = bottom;
pos = (474,0);
},
{
name = mid;
pos = (474,503);
},
{
name = top;
pos = (484,1005);
}
);
layerId = "2103F1D3-C390-4F79-A87D-298F85EA6916";
shapes = (
{
closed = 1;
nodes = (
(603,806,l),
(44,54,l),
(77,0,l),
(860,0,l),
(898,313,l),
(826,325,l),
(725,71,l),
(188,46,l),
(351,224,l),
(891,951,l),
(860,1005,l),
(104,1005,l),
(104,699,l),
(173,699,l),
(226,936,l),
(745,960,l)
);
}
);
width = 948;
},
{
anchors = (
{
name = bottom;
pos = (565,0);
},
{
name = mid;
pos = (567,555);
},
{
name = top;
pos = (581,1110);
}
);
layerId = "779F1615-9D1A-4778-9767-9A030AA58B6C";
shapes = (
{
closed = 1;
nodes = (
(742,890,l),
(55,76,l),
(94,0,l),
(1033,0,l),
(1084,326,l),
(975,338,l),
(881,120,l),
(238,102,l),
(360,220,l),
(1053,1040,l),
(1025,1110,l),
(133,1110,l),
(133,804,l),
(251,804,l),
(281,992,l),
(874,1006,l)
);
}
);
userData = {
com.schriftgestaltung.Glyphs.lastChange = "2019-04-25 21:50:43 +0000";
};
width = 1129;
},
{
anchors = (
{
name = bottom;
pos = (566,0);
},
{
name = mid;
pos = (566,556);
},
{
name = top;
pos = (586,1112);
}
);
layerId = "97BB7961-D669-43AB-8BBF-11FFD0C46A4B";
shapes = (
{
closed = 1;
nodes = (
(533,810,l),
(17,122,l),
(73,0,l),
(1069,0,l),
(1110,375,l),
(947,393,l),
(835,158,l),
(409,136,l),
(571,290,l),
(1095,996,l),
(1043,1112,l),
(102,1112,l),
(102,760,l),
(264,760,l),
(317,958,l),
(704,973,l)
);
}
);
width = 1127;
}
);
unicode = 122;
userData = {
KernOnName = z;
};
}
{
glyphname = yen;
layers = (
{
layerId = UUID0;
shapes = (
{
closed = 1;
nodes = (
(236,830,l),
(236,734,l),
(692,734,l),
(692,456,l),
(236,456,l),
(236,360,l),
(692,360,l),
(692,98,l),
(460,76,l),
(460,0,l),
(1066,0,l),
(1066,76,l),
(832,98,l),
(832,360,l),
(1288,360,l),
(1288,456,l),
(832,456,l),
(832,734,l),
(1288,734,l),
(1288,830,l),
(882,830,l),
(1248,1388,l),
(1388,1412,l),
(1388,1486,l),
(952,1486,l),
(952,1412,l),
(1102,1392,l),
(860,962,l),
(784,832,l),
(720,958,l),
(446,1392,l),
(594,1412,l),
(594,1486,l),
(116,1486,l),
(116,1412,l),
(244,1388,l),
(628,830,l)
);
}
);
width = 1504;
},
{
layerId = "DEBB1CE4-A72D-4960-969E-E04A036D2FA1";
shapes = (
{
closed = 1;
nodes = (
(230,795,l),
(230,662,l),
(657,662,l),
(657,460,l),
(230,460,l),
(230,327,l),
(657,327,l),
(657,150,l),
(459,126,l),
(459,0,l),
(1217,0,l),
(1217,126,l),
(1002,150,l),
(1002,327,l),
(1434,327,l),
(1434,460,l),
(1002,460,l),
(1002,662,l),
(1434,662,l),
(1434,795,l),
(1067,795,l),
(1368,1324,l),
(1517,1353,l),
(1517,1486,l),
(995,1486,l),
(995,1353,l),
(1155,1327,l),
(947,915,l),
(893,795,l),
(841,915,l),
(632,1327,l),
(773,1353,l),
(773,1486,l),
(106,1486,l),
(106,1353,l),
(240,1324,l),
(572,795,l)
);
}
);
width = 1622;
},
{
guides = (
{
angle = 180;
pos = (1806,873);
showMeasurement = 1;
}
);
layerId = "184155C8-9F61-4F1C-9784-DDA8EA717636";
shapes = (
{
closed = 1;
nodes = (
(158,763,l),
(158,702,l),
(575,702,l),
(575,454,l),
(158,454,l),
(158,393,l),
(575,393,l),
(575,69,l),
(387,37,l),
(387,0,l),
(1145,0,l),
(1145,37,l),
(940,69,l),
(940,393,l),
(1362,393,l),
(1362,454,l),
(940,454,l),
(940,702,l),
(1362,702,l),
(1362,763,l),
(938,763,l),
(1279,1411,l),
(1464,1451,l),
(1464,1486,l),
(950,1486,l),
(950,1451,l),
(1183,1407,l),
(929,883,l),
(867,763,l),
(805,883,l),
(563,1411,l),
(727,1451,l),
(727,1486,l),
(60,1486,l),
(60,1451,l),
(152,1411,l),
(538,763,l)
);
}
);
width = 1524;
},
{
layerId = "EA2265BD-E890-48C4-9E90-A53076E780C5";
shapes = (
{
closed = 1;
nodes = (
(187,795,l),
(187,662,l),
(585,662,l),
(585,460,l),
(187,460,l),
(187,327,l),
(585,327,l),
(585,150,l),
(397,126,l),
(397,0,l),
(1122,0,l),
(1122,126,l),
(918,150,l),
(918,327,l),
(1322,327,l),
(1322,460,l),
(918,460,l),
(918,662,l),
(1322,662,l),
(1322,795,l),
(974,795,l),
(1262,1324,l),
(1401,1353,l),
(1401,1486,l),
(902,1486,l),
(902,1353,l),
(1051,1327,l),
(867,915,l),
(816,795,l),
(767,915,l),
(586,1327,l),
(716,1353,l),
(716,1486,l),
(82,1486,l),
(82,1353,l),
(206,1324,l),
(514,795,l)
);
}
);
width = 1483;
},
{
layerId = "0E4B6E2E-ECAB-4D06-9686-B0B40AA31834";
shapes = (
{
closed = 1;
nodes = (
(204,828,l),
(204,736,l),
(592,736,l),
(592,454,l),
(204,454,l),
(204,362,l),
(592,362,l),
(592,98,l),
(395,76,l),
(395,0,l),
(932,0,l),
(932,76,l),
(732,98,l),
(732,362,l),
(1120,362,l),
(1120,454,l),
(732,454,l),
(732,736,l),
(1120,736,l),
(1120,828,l),
(779,828,l),
(1097,1390,l),
(1213,1412,l),
(1213,1486,l),
(830,1486,l),
(830,1412,l),
(956,1390,l),
(748,962,l),
(686,830,l),
(631,958,l),
(397,1392,l),
(524,1412,l),
(524,1486,l),
(91,1486,l),
(91,1412,l),
(200,1388,l),
(535,828,l)
);
}
);
width = 1304;
},
{
layerId = "F2B10EEF-9DDC-48CA-970D-6B8C79870881";
shapes = (
{
closed = 1;
nodes = (
(151,763,l),
(151,702,l),
(528,702,l),
(528,454,l),
(151,454,l),
(151,393,l),
(528,393,l),
(528,69,l),
(353,37,l),
(353,0,l),
(1056,0,l),
(1056,37,l),
(863,69,l),
(863,393,l),
(1245,393,l),
(1245,454,l),
(863,454,l),
(863,702,l),
(1245,702,l),
(1245,763,l),
(873,763,l),
(1166,1411,l),
(1332,1451,l),
(1332,1486,l),
(860,1486,l),
(860,1451,l),
(1070,1407,l),
(851,883,l),
(802,763,l),
(751,883,l),
(553,1411,l),
(695,1451,l),
(695,1486,l),
(64,1486,l),
(64,1451,l),
(172,1411,l),
(502,763,l)
);
}
);
width = 1396;
},
{
layerId = "E96AC896-F5DF-475B-BBD9-C7FEC6A86D0E";
shapes = (
{
closed = 1;
nodes = (
(197,748,l),
(197,692,l),
(602,692,l),
(602,436,l),
(197,436,l),
(197,380,l),
(602,380,l),
(602,70,l),
(397,36,l),
(397,0,l),
(958,0,l),
(958,36,l),
(752,70,l),
(752,380,l),
(1160,380,l),
(1160,436,l),
(752,436,l),
(752,692,l),
(1160,692,l),
(1160,748,l),
(763,748,l),
(1139,1431,l),
(1260,1451,l),
(1260,1486,l),
(884,1486,l),
(884,1451,l),
(1035,1431,l),
(786,964,l),
(697,784,l),
(615,960,l),
(370,1431,l),
(525,1451,l),
(525,1486,l),
(90,1486,l),
(90,1451,l),
(201,1431,l),
(578,748,l)
);
}
);
width = 1350;
},
{
layerId = "C9B9556E-C2FD-4F62-BB40-44923C452C22";
shapes = (
{
closed = 1;
nodes = (
(220,748,l),
(220,692,l),
(640,692,l),
(640,436,l),
(220,436,l),
(220,380,l),
(640,380,l),
(640,70,l),
(427,36,l),
(427,0,l),
(1005,0,l),
(1005,36,l),
(790,70,l),
(790,380,l),
(1213,380,l),
(1213,436,l),
(790,436,l),
(790,692,l),
(1213,692,l),
(1213,748,l),
(804,748,l),
(1181,1431,l),
(1306,1451,l),
(1306,1486,l),
(918,1486,l),
(918,1451,l),
(1077,1430,l),
(827,962,l),
(736,783,l),
(648,958,l),
(385,1430,l),
(548,1451,l),
(548,1486,l),
(100,1486,l),
(100,1451,l),
(216,1430,l),
(613,748,l)
);
}
);
width = 1406;
},
{
layerId = "AFA1064D-EFC9-4C9F-B9B0-9118E41D87C4";
shapes = (
{
closed = 1;
nodes = (
(193,763,l),
(193,702,l),
(656,702,l),
(656,454,l),
(193,454,l),
(193,393,l),
(656,393,l),
(656,69,l),
(448,37,l),
(448,0,l),
(1262,0,l),
(1262,37,l),
(1039,69,l),
(1039,393,l),
(1506,393,l),
(1506,454,l),
(1039,454,l),
(1039,702,l),
(1506,702,l),
(1506,763,l),
(1038,763,l),
(1413,1411,l),
(1624,1451,l),
(1624,1486,l),
(1069,1486,l),
(1069,1451,l),
(1310,1407,l),
(1027,883,l),
(960,763,l),
(888,883,l),
(608,1411,l),
(787,1451,l),
(787,1486,l),
(84,1486,l),
(84,1451,l),
(180,1411,l),
(614,763,l)
);
}
);
width = 1708;
},
{
layerId = "2103F1D3-C390-4F79-A87D-298F85EA6916";
shapes = (
{
closed = 1;
nodes = (
(247,748,l),
(247,692,l),
(714,692,l),
(714,436,l),
(247,436,l),
(247,380,l),
(714,380,l),
(714,70,l),
(476,36,l),
(476,0,l),
(1102,0,l),
(1102,36,l),
(864,70,l),
(864,380,l),
(1334,380,l),
(1334,436,l),
(864,436,l),
(864,692,l),
(1334,692,l),
(1334,748,l),
(877,748,l),
(1314,1430,l),
(1446,1451,l),
(1446,1486,l),
(1037,1486,l),
(1037,1451,l),
(1208,1430,l),
(917,962,l),
(805,778,l),
(704,958,l),
(403,1430,l),
(588,1451,l),
(588,1486,l),
(110,1486,l),
(110,1451,l),
(231,1430,l),
(688,748,l)
);
}
);
width = 1556;
},
{
layerId = "779F1615-9D1A-4778-9767-9A030AA58B6C";
shapes = (
{
closed = 1;
nodes = (
(242,830,l),
(242,734,l),
(740,734,l),
(740,456,l),
(242,456,l),
(242,360,l),
(740,360,l),
(740,98,l),
(485,76,l),
(485,0,l),
(1134,0,l),
(1134,76,l),
(880,98,l),
(880,360,l),
(1376,360,l),
(1376,456,l),
(880,456,l),
(880,734,l),
(1376,734,l),
(1376,830,l),
(928,830,l),
(1321,1388,l),
(1467,1412,l),
(1467,1486,l),
(1018,1486,l),
(1018,1412,l),
(1175,1392,l),
(914,962,l),
(830,832,l),
(759,958,l),
(464,1392,l),
(616,1412,l),
(616,1486,l),
(131,1486,l),
(131,1412,l),
(262,1388,l),
(674,830,l)
);
}
);
userData = {
com.schriftgestaltung.Glyphs.lastChange = "2019-04-25 21:50:43 +0000";
};
width = 1598;
},
{
layerId = "97BB7961-D669-43AB-8BBF-11FFD0C46A4B";
shapes = (
{
closed = 1;
nodes = (
(225,795,l),
(225,662,l),
(682,662,l),
(682,460,l),
(225,460,l),
(225,327,l),
(682,327,l),
(682,150,l),
(474,126,l),
(474,0,l),
(1276,0,l),
(1276,126,l),
(1063,150,l),
(1063,327,l),
(1514,327,l),
(1514,460,l),
(1063,460,l),
(1063,662,l),
(1514,662,l),
(1514,795,l),
(1096,795,l),
(1436,1324,l),
(1598,1353,l),
(1598,1486,l),
(1053,1486,l),
(1053,1353,l),
(1226,1327,l),
(992,915,l),
(929,795,l),
(881,915,l),
(671,1327,l),
(826,1353,l),
(826,1486,l),
(100,1486,l),
(100,1353,l),
(246,1324,l),
(598,795,l)
);
}
);
width = 1698;
}
);
unicode = 165;
userData = {
KernOnSpecialSpacing = {
L = symbols;
R = symbols;
};
};
}
{
color = 4;
glyphname = idotless;
layers = (
{
anchors = (
{
name = bottom;
pos = (312,0);
},
{
name = center;
pos = (320,565);
},
{
name = ogonek;
pos = (562,10);
},
{
name = top;
pos = (315,1110);
}
);
layerId = UUID0;
shapes = (
{
closed = 1;
nodes = (
(574,0,l),
(574,86,l),
(400,100,l),
(400,1102,l),
(360,1134,l),
(356,1134,l),
(82,1102,l),
(82,1012,l),
(238,978,l),
(238,102,l),
(62,86,l),
(62,0,l)
);
}
);
width = 624;
},
{
anchors = (
{
name = bottom;
pos = (353,0);
},
{
name = center;
pos = (369,565);
},
{
name = ogonek;
pos = (635,10);
},
{
name = top;
pos = (353,1112);
}
);
layerId = "DEBB1CE4-A72D-4960-969E-E04A036D2FA1";
shapes = (
{
closed = 1;
nodes = (
(658,0,l),
(658,132,l),
(537,150,l),
(537,1096,l),
(476,1138,l),
(472,1138,l),
(71,1090,l),
(71,940,l),
(207,901,l),
(207,151,l),
(81,132,l),
(81,0,l)
);
}
);
width = 706;
},
{
anchors = (
{
name = bottom;
pos = (290,0);
},
{
name = center;
pos = (302,493);
},
{
name = ogonek;
pos = (522,10);
},
{
name = top;
pos = (310,1005);
}
);
layerId = "184155C8-9F61-4F1C-9784-DDA8EA717636";
shapes = (
{
closed = 1;
nodes = (
(588,0,l),
(588,38,l),
(466,72,l),
(465,990,l),
(421,1035,l),
(387,1035,l),
(17,920,l),
(17,881,l),
(128,834,l),
(128,72,l),
(15,38,l),
(15,0,l)
);
}
);
width = 580;
},
{
anchors = (
{
name = bottom;
pos = (306,0);
},
{
name = center;
pos = (315,565);
},
{
name = ogonek;
pos = (559,10);
},
{
name = top;
pos = (296,1112);
}
);
layerId = "EA2265BD-E890-48C4-9E90-A53076E780C5";
shapes = (
{
closed = 1;
nodes = (
(560,0,l),
(560,131,l),
(466,149,l),
(466,1096,l),
(407,1138,l),
(404,1138,l),
(56,1090,l),
(56,942,l),
(153,903,l),
(153,150,l),
(60,131,l),
(60,0,l)
);
}
);
width = 611;
},
{
anchors = (
{
name = bottom;
pos = (257,0);
},
{
name = center;
pos = (267,565);
},
{
name = ogonek;
pos = (462,10);
},
{
name = top;
pos = (267,1110);
}
);
layerId = "0E4B6E2E-ECAB-4D06-9686-B0B40AA31834";
shapes = (
{
closed = 1;
nodes = (
(463,0,l),
(463,85,l),
(341,101,l),
(341,1102,l),
(304,1134,l),
(301,1134,l),
(55,1102,l),
(55,1014,l),
(184,980,l),
(184,101,l),
(71,85,l),
(71,0,l)
);
}
);
width = 513;
},
{
anchors = (
{
name = bottom;
pos = (261,0);
},
{
name = center;
pos = (277,485);
},
{
name = ogonek;
pos = (469,10);
},
{
name = top;
pos = (281,1005);
}
);
layerId = "F2B10EEF-9DDC-48CA-970D-6B8C79870881";
shapes = (
{
closed = 1;
nodes = (
(521,0,l),
(521,38,l),
(432,70,l),
(432,990,l),
(397,1033,l),
(326,1035,l),
(10,918,l),
(10,881,l),
(116,834,l),
(116,73,l),
(39,38,l),
(39,0,l)
);
}
);
width = 521;
},
{
anchors = (
{
name = bottom;
pos = (232,0);
},
{
name = center;
pos = (237,485);
},
{
name = ogonek;
pos = (418,10);
},
{
name = top;
pos = (240,1005);
}
);
layerId = "E96AC896-F5DF-475B-BBD9-C7FEC6A86D0E";
shapes = (
{
closed = 1;
nodes = (
(420,0,l),
(420,36,l),
(303,67,l),
(303,998,l),
(288,1010,l),
(237,1010,l),
(41,958,l),
(41,931,l),
(168,896,l),
(168,67,l),
(49,36,l),
(49,0,l)
);
}
);
width = 464;
},
{
anchors = (
{
name = bottom;
pos = (232,0);
},
{
name = center;
pos = (244,483);
},
{
name = ogonek;
pos = (418,10);
},
{
name = top;
pos = (253,1005);
}
);
layerId = "C9B9556E-C2FD-4F62-BB40-44923C452C22";
shapes = (
{
closed = 1;
nodes = (
(429,0,l),
(429,36,l),
(313,67,l),
(313,991,l),
(287,1010,l),
(241,1010,l),
(45,958,l),
(45,931,l),
(171,896,l),
(171,67,l),
(53,36,l),
(53,0,l)
);
}
);
width = 464;
},
{
anchors = (
{
name = bottom;
pos = (295,0);
},
{
name = center;
pos = (309,492);
},
{
name = ogonek;
pos = (531,10);
},
{
name = top;
pos = (305,1005);
}
);
layerId = "AFA1064D-EFC9-4C9F-B9B0-9118E41D87C4";
shapes = (
{
closed = 1;
nodes = (
(596,0,l),
(596,38,l),
(484,72,l),
(483,990,l),
(423,1035,l),
(370,1035,l),
(20,920,l),
(20,881,l),
(131,834,l),
(131,72,l),
(18,38,l),
(18,0,l)
);
}
);
width = 590;
},
{
anchors = (
{
name = bottom;
pos = (233,0);
},
{
name = center;
pos = (237,488);
},
{
name = ogonek;
pos = (419,10);
},
{
name = top;
pos = (250,1005);
}
);
layerId = "2103F1D3-C390-4F79-A87D-298F85EA6916";
shapes = (
{
closed = 1;
nodes = (
(423,0,l),
(423,36,l),
(311,67,l),
(311,998,l),
(296,1010,l),
(247,1010,l),
(40,958,l),
(40,931,l),
(167,896,l),
(167,67,l),
(47,36,l),
(47,0,l)
);
}
);
width = 466;
},
{
anchors = (
{
name = bottom;
pos = (312,0);
},
{
name = center;
pos = (323,565);
},
{
name = ogonek;
pos = (562,10);
},
{
name = top;
pos = (322,1110);
}
);
layerId = "779F1615-9D1A-4778-9767-9A030AA58B6C";
shapes = (
{
closed = 1;
nodes = (
(574,0,l),
(574,86,l),
(407,100,l),
(407,1102,l),
(367,1134,l),
(363,1134,l),
(82,1102,l),
(82,1012,l),
(238,978,l),
(238,102,l),
(62,86,l),
(62,0,l)
);
}
);
userData = {
com.schriftgestaltung.Glyphs.lastChange = "2019-04-25 21:50:43 +0000";
};
width = 624;
},
{
anchors = (
{
name = bottom;
pos = (356,0);
},
{
name = center;
pos = (391,565);
},
{
name = ogonek;
pos = (641,10);
},
{
name = top;
pos = (379,1112);
}
);
layerId = "97BB7961-D669-43AB-8BBF-11FFD0C46A4B";
shapes = (
{
closed = 1;
nodes = (
(690,0,l),
(690,132,l),
(569,150,l),
(569,1096,l),
(508,1138,l),
(504,1138,l),
(71,1090,l),
(71,940,l),
(207,901,l),
(207,151,l),
(81,132,l),
(81,0,l)
);
}
);
width = 712;
}
);
unicode = 305;
}
{
color = 4;
glyphname = "Gamma-latin";
layers = (
{
anchors = (
{
name = bottom;
pos = (642,-252);
},
{
name = top;
pos = (651,1486);
}
);
background = {
shapes = (
{
closed = 1;
nodes = (
(85,1378,l),
(573,-16,l),
(703,-16,l),
(1217,1378,l),
(1345,1400,l),
(1345,1486,l),
(923,1486,l),
(923,1400,l),
(1083,1378,l),
(747,418,l),
(660,142,l),
(582,414,l),
(263,1378,l),
(447,1400,l),
(447,1486,l),
(-39,1486,l),
(-39,1400,l)
);
}
);
};
layerId = UUID0;
shapes = (
{
closed = 1;
nodes = (
(800,-345,o),
(900,-240,o),
(900,-92,cs),
(900,-21,o),
(885,53,o),
(819,194,cs),
(716,413,l),
(692,457,l),
(263,1378,ls),
(447,1400,ls),
(447,1486,ls),
(-39,1486,ls),
(-39,1400,ls),
(85,1378,ls),
(586,319,l),
(613,271,l),
(661,168,ls),
(727,26,o),
(746,-35,o),
(746,-109,cs),
(746,-204,o),
(695,-244,o),
(625,-244,cs),
(552,-244,o),
(505,-199,o),
(505,-113,cs),
(505,-36,o),
(519,93,o),
(637,250,c),
(686,296,l),
(1197,1378,ls),
(1325,1400,ls),
(1325,1486,ls),
(903,1486,ls),
(903,1400,ls),
(1063,1378,ls),
(739,653,ls),
(653,441,l),
(602,359,l),
(394,147,o),
(393,-9,o),
(393,-113,cs),
(393,-261,o),
(487,-345,o),
(637,-345,cs)
);
}
);
width = 1281;
},
{
anchors = (
{
name = bottom;
pos = (697,-292);
},
{
name = top;
pos = (697,1486);
}
);
background = {
shapes = (
{
closed = 1;
nodes = (
(79,1319,l),
(550,-15,l),
(828,-15,l),
(1309,1319,l),
(1438,1347,l),
(1438,1486,l),
(929,1486,l),
(929,1347,l),
(1086,1319,l),
(792,452,l),
(751,275,l),
(703,451,l),
(452,1320,l),
(616,1347,l),
(616,1486,l),
(-39,1486,l),
(-39,1347,l)
);
}
);
};
layerId = "DEBB1CE4-A72D-4960-969E-E04A036D2FA1";
shapes = (
{
closed = 1;
nodes = (
(903,-387,o),
(1049,-278,o),
(1049,-79,cs),
(1049,11,o),
(1035,82,o),
(947,272,cs),
(836,512,l),
(794,587,l),
(452,1320,ls),
(616,1347,ls),
(616,1486,ls),
(-39,1486,ls),
(-39,1347,ls),
(79,1319,ls),
(573,279,l),
(622,191,l),
(662,105,ls),
(711,-1,o),
(735,-55,o),
(735,-111,cs),
(735,-201,o),
(697,-246,o),
(644,-246,cs),
(592,-246,o),
(552,-193,o),
(552,-111,cs),
(552,-51,o),
(563,32,o),
(686,208,c),
(783,337,l),
(1309,1319,ls),
(1438,1347,ls),
(1438,1486,ls),
(929,1486,ls),
(929,1347,ls),
(1086,1319,ls),
(825,775,ls),
(750,585,l),
(581,328,l),
(393,86,o),
(389,-21,o),
(389,-125,cs),
(389,-282,o),
(492,-387,o),
(708,-387,cs)
);
}
);
width = 1394;
},
{
anchors = (
{
name = bottom;
pos = (592,-252);
},
{
name = top;
pos = (598,1486);
}
);
layerId = "0E4B6E2E-ECAB-4D06-9686-B0B40AA31834";
shapes = (
{
closed = 1;
nodes = (
(733,-345,o),
(825,-240,o),
(825,-92,cs),
(825,-22,o),
(811,53,o),
(753,194,cs),
(663,413,l),
(640,457,l),
(262,1378,ls),
(418,1400,ls),
(418,1486,ls),
(-22,1486,ls),
(-22,1400,ls),
(84,1378,ls),
(534,319,l),
(560,271,l),
(600,168,ls),
(655,26,o),
(672,-35,o),
(672,-109,cs),
(672,-204,o),
(629,-244,o),
(572,-244,cs),
(501,-244,o),
(472,-180,o),
(472,-97,cs),
(472,26,o),
(532,170,o),
(585,235,c),
(634,296,l),
(1040,1378,ls),
(1150,1400,ls),
(1150,1486,ls),
(776,1486,ls),
(776,1400,ls),
(913,1378,ls),
(678,653,ls),
(606,441,l),
(548,351,l),
(465,251,o),
(368,88,o),
(368,-95,cs),
(368,-233,o),
(429,-345,o),
(589,-345,cs)
);
}
);
width = 1125;
},
{
anchors = (
{
name = bottom;
pos = (632,-282);
},
{
name = top;
pos = (686,1486);
}
);
layerId = "EA2265BD-E890-48C4-9E90-A53076E780C5";
shapes = (
{
closed = 1;
nodes = (
(807,-387,o),
(945,-278,o),
(945,-79,cs),
(945,9,o),
(932,81,o),
(853,272,cs),
(754,512,l),
(713,587,l),
(442,1320,ls),
(578,1347,ls),
(578,1486,ls),
(-31,1486,ls),
(-31,1347,ls),
(69,1319,ls),
(492,279,l),
(540,191,l),
(572,105,ls),
(611,-1,o),
(632,-54,o),
(632,-111,cs),
(632,-200,o),
(603,-246,o),
(562,-246,cs),
(527,-246,o),
(490,-193,o),
(490,-111,cs),
(490,-52,o),
(482,51,o),
(605,228,c),
(722,367,l),
(1153,1319,ls),
(1264,1347,ls),
(1264,1486,ls),
(803,1486,ls),
(803,1347,ls),
(937,1319,ls),
(735,775,ls),
(674,585,l),
(497,337,l),
(411,217,o),
(331,70,o),
(331,-87,cs),
(331,-251,o),
(411,-387,o),
(631,-387,cs)
);
}
);
width = 1229;
},
{
anchors = (
{
name = bottom;
pos = (733,-230);
},
{
name = top;
pos = (733,1486);
}
);
layerId = "779F1615-9D1A-4778-9767-9A030AA58B6C";
shapes = (
{
closed = 1;
nodes = (
(919,-345,o),
(1029,-243,o),
(1029,-86,cs),
(1029,-16,o),
(1007,64,o),
(939,194,cs),
(824,413,l),
(798,457,l),
(290,1378,l),
(498,1400,l),
(498,1486,l),
(-39,1486,l),
(-39,1400,l),
(100,1378,l),
(685,319,l),
(714,271,l),
(768,168,ls),
(843,25,o),
(865,-36,o),
(865,-101,cs),
(865,-207,o),
(806,-244,o),
(728,-244,cs),
(644,-244,o),
(591,-202,o),
(591,-107,cs),
(591,-38,o),
(617,46,o),
(739,250,c),
(792,296,l),
(1370,1378,l),
(1513,1400,l),
(1513,1486,l),
(1043,1486,l),
(1043,1400,l),
(1223,1378,l),
(852,653,l),
(754,441,l),
(703,399,l),
(516,106,o),
(468,-9,o),
(468,-113,cs),
(468,-261,o),
(572,-345,o),
(737,-345,cs)
);
}
);
width = 1473;
},
{
anchors = (
{
name = bottom;
pos = (695,-320);
},
{
name = top;
pos = (785,1486);
}
);
background = {
shapes = (
{
closed = 1;
nodes = (
(747,-17,o),
(840,74,o),
(840,181,cs),
(840,271,o),
(775,373,o),
(686,389,c),
(480,389,l),
(391,373,o),
(326,271,o),
(326,181,cs),
(326,59,o),
(440,-17,o),
(584,-17,cs)
);
},
{
closed = 1;
nodes = (
(539,147,o),
(514,177,o),
(514,215,cs),
(514,245,o),
(538,275,o),
(585,299,c),
(631,275,o),
(654,245,o),
(654,215,cs),
(654,177,o),
(635,147,o),
(585,147,cs)
);
},
{
closed = 1;
nodes = (
(722,322,o),
(737,390,o),
(796,532,c),
(866,704,o),
(955,877,o),
(1014,1048,cs),
(1028,1089,o),
(1036,1129,o),
(1036,1173,cs),
(1036,1275,o),
(951,1306,o),
(885,1306,cs),
(748,1306,o),
(711,1191,o),
(684,1052,cs),
(671,974,o),
(648,894,o),
(631,815,cs),
(614,751,o),
(599,717,o),
(585,606,c),
(569,717,o),
(555,751,o),
(539,815,cs),
(521,894,o),
(496,974,o),
(483,1052,cs),
(458,1190,o),
(419,1306,o),
(280,1306,cs),
(217,1306,o),
(127,1273,o),
(127,1170,cs),
(127,1127,o),
(136,1088,o),
(149,1048,cs),
(211,877,o),
(302,704,o),
(374,532,c),
(433,390,o),
(449,322,o),
(585,322,cs)
);
}
);
};
layerId = "97BB7961-D669-43AB-8BBF-11FFD0C46A4B";
shapes = (
{
closed = 1;
nodes = (
(938,-387,o),
(1086,-287,o),
(1086,-67,cs),
(1086,21,o),
(1061,105,o),
(981,272,cs),
(866,512,l),
(824,587,l),
(457,1320,l),
(630,1347,l),
(630,1486,l),
(-39,1486,l),
(-39,1347,l),
(85,1319,l),
(603,279,l),
(652,191,l),
(695,105,ls),
(748,-1,o),
(773,-53,o),
(773,-116,cs),
(773,-197,o),
(731,-246,o),
(676,-246,cs),
(618,-246,o),
(575,-193,o),
(575,-115,cs),
(575,-50,o),
(605,11,o),
(716,198,c),
(813,337,l),
(1364,1319,l),
(1499,1347,l),
(1499,1486,l),
(974,1486,l),
(974,1347,l),
(1139,1319,l),
(858,775,l),
(778,585,l),
(612,368,l),
(454,101,o),
(410,-21,o),
(410,-123,cs),
(410,-282,o),
(518,-387,o),
(730,-387,cs)
);
}
);
width = 1450;
},
{
anchors = (
{
name = bottom;
pos = (622,-252);
},
{
name = top;
pos = (642,1486);
}
);
background = {
shapes = (
{
closed = 1;
nodes = (
(114,1417,l),
(550,-16,l),
(677,-16,l),
(1169,1417,l),
(1307,1452,l),
(1307,1486,l),
(926,1486,l),
(926,1452,l),
(1068,1417,l),
(676,182,l),
(653,52,l),
(628,182,l),
(283,1417,l),
(427,1452,l),
(427,1486,l),
(-22,1486,l),
(-22,1452,l)
);
}
);
};
layerId = "C9B9556E-C2FD-4F62-BB40-44923C452C22";
shapes = (
{
closed = 1;
nodes = (
(769,-345,o),
(878,-250,o),
(878,-103,cs),
(878,-22,o),
(865,43,o),
(810,169,cs),
(697,426,l),
(686,446,l),
(283,1417,l),
(427,1452,l),
(427,1486,l),
(-22,1486,l),
(-22,1452,l),
(114,1417,l),
(599,299,l),
(613,275,l),
(687,103,ls),
(735,-9,o),
(751,-63,o),
(751,-130,cs),
(751,-235,o),
(698,-285,o),
(623,-285,cs),
(544,-285,o),
(494,-236,o),
(494,-136,cs),
(494,-59,o),
(519,53,o),
(635,276,c),
(681,361,l),
(1169,1417,l),
(1307,1452,l),
(1307,1486,l),
(926,1486,l),
(926,1452,l),
(1068,1417,l),
(704,576,l),
(644,402,l),
(615,365,l),
(463,79,o),
(426,-48,o),
(426,-136,cs),
(426,-269,o),
(499,-345,o),
(632,-345,cs)
);
}
);
width = 1283;
},
{
anchors = (
{
name = bottom;
pos = (662,-292);
},
{
name = top;
pos = (651,1486);
}
);
background = {
shapes = (
{
closed = 1;
nodes = (
(61,1417,l),
(519,0,l),
(765,0,l),
(1253,1417,l),
(1384,1452,l),
(1384,1486,l),
(1009,1486,l),
(1009,1452,l),
(1149,1417,l),
(818,403,l),
(785,291,l),
(754,407,l),
(480,1417,l),
(633,1452,l),
(633,1486,l),
(-42,1486,l),
(-42,1452,l)
);
}
);
};
layerId = "184155C8-9F61-4F1C-9784-DDA8EA717636";
shapes = (
{
closed = 1;
nodes = (
(874,-387,o),
(1026,-266,o),
(1026,-49,cs),
(1026,80,o),
(1003,187,o),
(937,336,cs),
(833,572,l),
(814,605,l),
(480,1417,l),
(633,1452,l),
(633,1486,l),
(-42,1486,l),
(-42,1452,l),
(61,1417,l),
(579,289,l),
(602,251,l),
(642,165,ls),
(715,8,o),
(732,-68,o),
(732,-143,cs),
(732,-232,o),
(689,-280,o),
(620,-280,cs),
(548,-280,o),
(500,-231,o),
(500,-134,cs),
(500,-33,o),
(486,103,o),
(648,283,cs),
(777,426,l),
(1253,1417,l),
(1384,1452,l),
(1384,1486,l),
(1009,1486,l),
(1009,1452,l),
(1149,1417,l),
(847,747,l),
(751,545,l),
(583,341,ls),
(426,151,o),
(406,-21,o),
(406,-134,cs),
(406,-294,o),
(506,-387,o),
(692,-387,cs)
);
}
);
width = 1302;
},
{
anchors = (
{
name = bottom;
pos = (592,-272);
},
{
name = top;
pos = (600,1486);
}
);
layerId = "E96AC896-F5DF-475B-BBD9-C7FEC6A86D0E";
shapes = (
{
closed = 1;
nodes = (
(688,-345,o),
(788,-250,o),
(788,-103,cs),
(788,-23,o),
(774,43,o),
(727,169,cs),
(631,426,l),
(620,446,l),
(283,1417,l),
(408,1452,l),
(408,1486,l),
(-8,1486,l),
(-8,1452,l),
(105,1417,l),
(526,299,l),
(539,275,l),
(600,103,ls),
(640,-9,o),
(657,-62,o),
(657,-130,cs),
(657,-235,o),
(612,-285,o),
(549,-285,cs),
(480,-285,o),
(439,-236,o),
(439,-136,cs),
(439,-61,o),
(460,53,o),
(556,276,c),
(612,361,l),
(1030,1417,l),
(1148,1452,l),
(1148,1486,l),
(821,1486,l),
(821,1452,l),
(943,1417,l),
(638,576,l),
(581,402,l),
(538,365,l),
(413,79,o),
(377,-50,o),
(377,-136,cs),
(377,-269,o),
(441,-345,o),
(565,-345,cs)
);
}
);
width = 1126;
},
{
anchors = (
{
name = bottom;
pos = (693,-313);
},
{
name = top;
pos = (715,1486);
}
);
layerId = "F2B10EEF-9DDC-48CA-970D-6B8C79870881";
shapes = (
{
closed = 1;
nodes = (
(833,-387,o),
(976,-266,o),
(976,-49,cs),
(976,79,o),
(962,190,o),
(895,336,cs),
(787,572,l),
(768,605,l),
(480,1417,ls),
(614,1452,ls),
(614,1486,ls),
(-28,1486,ls),
(-28,1452,ls),
(52,1417,ls),
(546,289,l),
(568,251,l),
(598,167,ls),
(655,6,o),
(678,-67,o),
(678,-143,cs),
(678,-231,o),
(644,-280,o),
(586,-280,cs),
(509,-280,o),
(482,-208,o),
(482,-112,cs),
(482,17,o),
(546,186,o),
(617,280,c),
(728,426,l),
(1114,1417,ls),
(1225,1452,ls),
(1225,1486,ls),
(904,1486,ls),
(904,1452,ls),
(1024,1417,ls),
(748,643,l),
(708,545,l),
(561,337,l),
(481,223,o),
(394,35,o),
(394,-111,cs),
(394,-265,o),
(466,-387,o),
(665,-387,cs)
);
}
);
width = 1213;
},
{
anchors = (
{
name = bottom;
pos = (693,-250);
},
{
name = top;
pos = (690,1486);
}
);
layerId = "2103F1D3-C390-4F79-A87D-298F85EA6916";
shapes = (
{
closed = 1;
nodes = (
(841,-345,o),
(960,-258,o),
(960,-85,cs),
(960,-26,o),
(946,43,o),
(885,169,cs),
(760,426,l),
(748,446,l),
(297,1417,l),
(456,1452,l),
(456,1486,l),
(-30,1486,l),
(-30,1452,l),
(123,1417,l),
(659,299,l),
(674,275,l),
(757,103,ls),
(811,-9,o),
(828,-62,o),
(828,-123,cs),
(828,-238,o),
(767,-285,o),
(683,-285,cs),
(597,-285,o),
(542,-236,o),
(542,-133,cs),
(542,-60,o),
(568,53,o),
(698,276,c),
(744,361,l),
(1286,1417,l),
(1440,1452,l),
(1440,1486,l),
(1017,1486,l),
(1017,1452,l),
(1174,1417,l),
(767,576,l),
(703,402,l),
(677,365,l),
(508,79,o),
(468,-46,o),
(468,-139,cs),
(468,-268,o),
(547,-345,o),
(690,-345,cs)
);
}
);
width = 1410;
},
{
anchors = (
{
name = bottom;
pos = (774,-290);
},
{
name = top;
pos = (773,1486);
}
);
layerId = "AFA1064D-EFC9-4C9F-B9B0-9118E41D87C4";
shapes = (
{
closed = 1;
nodes = (
(937,-387,o),
(1098,-281,o),
(1098,-26,cs),
(1098,71,o),
(1075,189,o),
(1004,336,cs),
(890,572,l),
(870,605,l),
(501,1417,l),
(666,1452,l),
(666,1486,l),
(-42,1486,l),
(-42,1452,l),
(72,1417,l),
(631,289,l),
(655,251,l),
(700,164,ls),
(780,9,o),
(797,-70,o),
(797,-132,cs),
(797,-237,o),
(748,-280,o),
(673,-280,cs),
(595,-280,o),
(543,-235,o),
(543,-125,cs),
(543,-20,o),
(590,104,o),
(702,283,c),
(834,426,l),
(1352,1417,l),
(1494,1452,l),
(1494,1486,l),
(1088,1486,l),
(1088,1452,l),
(1243,1417,l),
(908,747,l),
(804,545,l),
(636,341,l),
(498,126,o),
(443,-20,o),
(443,-134,cs),
(443,-294,o),
(552,-387,o),
(738,-387,cs)
);
}
);
width = 1412;
}
);
metricLeft = V;
metricRight = V;
unicode = 404;
}
{
color = 4;
glyphname = khook;
layers = (
{
background = {
shapes = (
{
pos = (-32,0);
ref = k;
},
{
pos = (21,0);
ref = bhook;
}
);
};
layerId = UUID0;
shapes = (
{
closed = 1;
nodes = (
(499,0,l),
(499,86,l),
(343,102,l),
(343,256,l),
(339,340,l),
(565,576,l),
(879,102,l),
(741,86,l),
(741,0,l),
(1199,0,l),
(1199,86,l),
(1067,100,l),
(669,666,l),
(987,1002,l),
(1141,1030,l),
(1141,1110,l),
(669,1110,l),
(669,1030,l),
(825,1002,l),
(339,476,l),
(343,601,l),
(343,1262,ls),
(343,1446,o),
(409,1508,o),
(576,1508,cs),
(712,1508,o),
(777,1486,o),
(795,1472,c),
(795,1636,l),
(771,1644,o),
(742,1652,o),
(642,1652,cs),
(396,1652,o),
(183,1456,o),
(183,1210,cs),
(183,102,l),
(51,86,l),
(51,0,l)
);
}
);
width = 1249;
},
{
background = {
shapes = (
{
closed = 1;
nodes = (
(532,102,o),
(478,120,o),
(466,146,c),
(466,869,l),
(497,905,o),
(559,944,o),
(632,944,cs),
(754,944,o),
(842,837,o),
(839,558,cs),
(836,248,o),
(737,102,o),
(595,102,cs)
);
},
{
pos = (-28,0);
ref = k;
},
{
pos = (-2,0);
ref = bhook;
}
);
};
layerId = "DEBB1CE4-A72D-4960-969E-E04A036D2FA1";
shapes = (
{
closed = 1;
nodes = (
(580,0,l),
(580,132,l),
(466,151,l),
(466,270,l),
(460,370,l),
(617,529,l),
(822,151,l),
(719,132,l),
(719,0,l),
(1288,0,l),
(1288,132,l),
(1184,150,l),
(845,734,l),
(1067,958,l),
(1233,984,l),
(1233,1112,l),
(685,1112,l),
(685,984,l),
(834,962,l),
(462,562,l),
(466,658,l),
(466,1283,ls),
(466,1389,o),
(504,1434,o),
(637,1434,cs),
(739,1434,o),
(827,1417,o),
(870,1386,c),
(870,1657,l),
(835,1672,o),
(773,1676,o),
(697,1676,cs),
(383,1676,o),
(142,1462,o),
(142,1190,cs),
(142,151,l),
(32,132,l),
(32,0,l)
);
}
);
width = 1312;
},
{
background = {
shapes = (
{
ref = k;
},
{
pos = (63,0);
ref = bhook;
}
);
};
layerId = "0E4B6E2E-ECAB-4D06-9686-B0B40AA31834";
shapes = (
{
closed = 1;
nodes = (
(534,0,l),
(534,85,l),
(340,100,l),
(340,258,l),
(336,341,l),
(529,567,l),
(803,102,l),
(685,86,l),
(685,0,l),
(1093,0,l),
(1093,86,l),
(988,100,l),
(634,663,l),
(931,1002,l),
(1035,1030,l),
(1035,1110,l),
(643,1110,l),
(643,1030,l),
(779,1002,l),
(336,466,l),
(340,603,l),
(340,1261,ls),
(340,1446,o),
(397,1508,o),
(534,1508,cs),
(637,1508,o),
(695,1490,o),
(724,1474,c),
(724,1635,l),
(688,1650,o),
(646,1651,o),
(605,1651,cs),
(401,1651,o),
(184,1499,o),
(184,1210,cs),
(184,101,l),
(35,85,l),
(35,0,l)
);
}
);
width = 1079;
},
{
background = {
shapes = (
{
pos = (-28,0);
ref = k;
},
{
pos = (-9,0);
ref = bhook;
}
);
};
layerId = "EA2265BD-E890-48C4-9E90-A53076E780C5";
shapes = (
{
closed = 1;
nodes = (
(504,0,l),
(504,132,l),
(410,151,l),
(410,272,l),
(404,370,l),
(529,519,l),
(691,151,l),
(594,132,l),
(594,0,l),
(1122,0,l),
(1122,132,l),
(1035,150,l),
(734,754,l),
(913,958,l),
(1062,984,l),
(1062,1112,l),
(584,1112,l),
(584,984,l),
(732,962,l),
(406,543,l),
(411,660,l),
(411,1286,ls),
(411,1384,o),
(445,1434,o),
(561,1434,cs),
(644,1434,o),
(728,1416,o),
(769,1386,c),
(770,1659,l),
(735,1671,o),
(671,1676,o),
(609,1676,cs),
(316,1676,o),
(108,1465,o),
(108,1194,cs),
(108,151,l),
(22,132,l),
(22,0,l)
);
}
);
width = 1124;
},
{
background = {
shapes = (
{
pos = (-32,0);
ref = k;
},
{
pos = (-11,0);
ref = bhook;
}
);
};
layerId = "779F1615-9D1A-4778-9767-9A030AA58B6C";
shapes = (
{
closed = 1;
nodes = (
(467,0,l),
(467,86,l),
(312,102,l),
(312,240,l),
(307,341,l),
(543,576,l),
(868,102,l),
(729,86,l),
(729,0,l),
(1172,0,l),
(1172,86,l),
(1054,102,l),
(647,666,l),
(975,1002,l),
(1109,1030,l),
(1109,1110,l),
(657,1110,l),
(657,1030,l),
(813,1002,l),
(307,477,l),
(311,626,l),
(311,1262,ls),
(311,1446,o),
(377,1508,o),
(543,1508,cs),
(678,1508,o),
(745,1486,o),
(762,1472,c),
(762,1636,l),
(739,1644,o),
(711,1652,o),
(611,1652,cs),
(363,1652,o),
(151,1456,o),
(151,1210,cs),
(151,102,l),
(19,86,l),
(19,0,l)
);
}
);
width = 1177;
},
{
background = {
shapes = (
{
pos = (-28,0);
ref = k;
},
{
pos = (18,0);
ref = bhook;
}
);
};
layerId = "97BB7961-D669-43AB-8BBF-11FFD0C46A4B";
shapes = (
{
closed = 1;
nodes = (
(627,0,l),
(627,132,l),
(502,150,l),
(502,274,l),
(496,372,l),
(620,529,l),
(802,151,l),
(710,132,l),
(710,0,l),
(1291,0,l),
(1291,132,l),
(1187,150,l),
(867,764,l),
(1069,958,l),
(1235,984,l),
(1235,1112,l),
(687,1112,l),
(687,984,l),
(836,962,l),
(501,562,l),
(505,662,l),
(505,1287,ls),
(505,1393,o),
(557,1434,o),
(676,1434,cs),
(806,1434,o),
(898,1415,o),
(938,1386,c),
(939,1658,l),
(904,1672,o),
(836,1676,o),
(734,1676,cs),
(428,1676,o),
(145,1469,o),
(145,1141,cs),
(145,151,l),
(34,132,l),
(34,0,l)
);
}
);
width = 1267;
},
{
background = {
shapes = (
{
closed = 1;
nodes = (
(367,28,o),
(300,82,o),
(272,116,c),
(272,830,l),
(317,880,o),
(417,966,o),
(551,966,cs),
(698,966,o),
(809,828,o),
(809,532,cs),
(809,204,o),
(695,28,o),
(480,28,cs)
);
},
{
ref = k;
},
{
pos = (9,-6);
ref = bhook;
}
);
};
layerId = "C9B9556E-C2FD-4F62-BB40-44923C452C22";
shapes = (
{
closed = 1;
nodes = (
(392,0,l),
(392,36,l),
(267,67,l),
(267,256,l),
(256,366,l),
(438,561,l),
(718,67,l),
(604,36,l),
(604,0,l),
(1005,0,l),
(1005,38,l),
(890,67,l),
(536,654,l),
(800,935,l),
(904,966,l),
(904,1005,l),
(557,1005,l),
(557,966,l),
(691,934,l),
(258,448,l),
(267,601,l),
(267,1307,ls),
(267,1501,o),
(320,1545,o),
(507,1545,cs),
(592,1545,o),
(671,1535,o),
(698,1524,c),
(698,1636,l),
(674,1644,o),
(635,1652,o),
(586,1652,cs),
(331,1652,o),
(128,1470,o),
(128,1148,cs),
(128,67,l),
(-7,36,l),
(-7,0,l)
);
}
);
width = 955;
},
{
background = {
shapes = (
{
pos = (13,0);
ref = bhook;
},
{
ref = k;
}
);
};
layerId = "184155C8-9F61-4F1C-9784-DDA8EA717636";
shapes = (
{
closed = 1;
nodes = (
(560,0,l),
(560,36,l),
(453,71,l),
(453,225,l),
(446,360,l),
(568,493,l),
(760,71,l),
(653,38,l),
(653,0,l),
(1242,0,l),
(1242,38,l),
(1145,71,l),
(793,734,l),
(973,935,l),
(1121,966,l),
(1121,1005,l),
(691,1005,l),
(691,966,l),
(862,934,l),
(446,441,l),
(452,662,l),
(452,1346,ls),
(452,1463,o),
(479,1497,o),
(591,1497,cs),
(706,1497,o),
(817,1468,o),
(873,1423,c),
(873,1638,l),
(839,1653,o),
(764,1662,o),
(698,1662,cs),
(381,1662,o),
(114,1393,o),
(114,1065,cs),
(115,71,l),
(1,37,l),
(1,0,l)
);
}
);
width = 1152;
},
{
background = {
shapes = (
{
pos = (-14,0);
ref = k;
},
{
pos = (13,0);
ref = bhook;
}
);
};
layerId = "E96AC896-F5DF-475B-BBD9-C7FEC6A86D0E";
shapes = (
{
closed = 1;
nodes = (
(378,0,l),
(378,36,l),
(253,65,l),
(253,256,l),
(243,367,l),
(414,560,l),
(674,67,l),
(565,36,l),
(565,0,l),
(935,0,l),
(935,38,l),
(827,67,l),
(506,647,l),
(760,935,l),
(875,966,l),
(875,1005,l),
(533,1005,l),
(533,966,l),
(651,934,l),
(244,449,l),
(252,602,l),
(253,1316,ls),
(253,1506,o),
(303,1551,o),
(455,1551,cs),
(533,1551,o),
(606,1541,o),
(632,1530,c),
(632,1643,l),
(610,1650,o),
(566,1658,o),
(523,1658,cs),
(303,1658,o),
(118,1476,o),
(118,1148,cs),
(118,67,l),
(-3,36,l),
(-3,0,l)
);
}
);
width = 879;
},
{
background = {
shapes = (
{
pos = (-30,0);
ref = k;
},
{
pos = (-32,0);
ref = bhook;
}
);
};
layerId = "F2B10EEF-9DDC-48CA-970D-6B8C79870881";
shapes = (
{
closed = 1;
nodes = (
(462,0,l),
(462,38,l),
(374,72,l),
(374,220,l),
(369,350,l),
(468,484,l),
(621,71,l),
(536,38,l),
(536,0,l),
(1053,0,l),
(1053,38,l),
(972,71,l),
(686,759,l),
(807,935,l),
(955,966,l),
(955,1005,l),
(545,1005,l),
(545,966,l),
(703,934,l),
(369,436,l),
(374,660,l),
(374,1314,ls),
(374,1460,o),
(420,1497,o),
(489,1497,cs),
(591,1497,o),
(715,1462,o),
(763,1430,c),
(763,1645,l),
(711,1656,o),
(623,1662,o),
(576,1662,cs),
(263,1662,o),
(59,1323,o),
(59,1065,cs),
(59,72,l),
(-18,38,l),
(-18,0,l)
);
}
);
width = 998;
},
{
background = {
shapes = (
{
pos = (-16,0);
ref = k;
},
{
pos = (-6,0);
ref = bhook;
}
);
};
layerId = "2103F1D3-C390-4F79-A87D-298F85EA6916";
shapes = (
{
closed = 1;
nodes = (
(378,0,l),
(378,36,l),
(252,67,l),
(252,262,l),
(242,372,l),
(424,565,l),
(751,67,l),
(618,36,l),
(618,0,l),
(1019,0,l),
(1019,38,l),
(908,67,l),
(516,652,l),
(803,935,l),
(911,966,l),
(911,1005,l),
(557,1005,l),
(557,966,l),
(694,934,l),
(242,447,l),
(252,608,l),
(252,1316,ls),
(252,1509,o),
(315,1551,o),
(502,1551,cs),
(587,1551,o),
(659,1542,o),
(683,1530,c),
(683,1642,l),
(668,1648,o),
(642,1658,o),
(580,1658,cs),
(327,1658,o),
(113,1475,o),
(113,1147,cs),
(113,67,l),
(-6,36,l),
(-6,0,l)
);
}
);
width = 1005;
},
{
background = {
shapes = (
{
ref = k;
},
{
pos = (20,0);
ref = bhook;
}
);
};
layerId = "AFA1064D-EFC9-4C9F-B9B0-9118E41D87C4";
shapes = (
{
closed = 1;
nodes = (
(574,0,l),
(574,36,l),
(466,71,l),
(466,233,l),
(459,360,l),
(592,503,l),
(792,71,l),
(690,36,l),
(690,0,l),
(1293,0,l),
(1293,38,l),
(1196,71,l),
(836,744,l),
(1023,935,l),
(1158,966,l),
(1158,1005,l),
(731,1005,l),
(731,966,l),
(907,934,l),
(459,442,l),
(464,659,l),
(464,1315,ls),
(464,1428,o),
(486,1496,o),
(622,1496,cs),
(737,1496,o),
(881,1462,o),
(930,1430,c),
(930,1645,l),
(893,1653,o),
(796,1662,o),
(705,1662,cs),
(408,1662,o),
(111,1394,o),
(111,1065,cs),
(111,71,l),
(0,37,l),
(0,0,l)
);
}
);
width = 1204;
}
);
metricLeft = k;
metricWidth = k;
unicode = 409;
}
{
color = 4;
glyphname = Qhooktail;
layers = (
{
anchors = (
{
name = bottom;
pos = (700,0);
},
{
name = top;
pos = (770,1486);
}
);
background = {
shapes = (
{
pos = (17,0);
ref = "Alpha-latin";
}
);
};
layerId = UUID0;
shapes = (
{
closed = 1;
nodes = (
(1516,-486,o),
(1540,-478,o),
(1559,-470,c),
(1559,-309,l),
(1541,-323,o),
(1483,-345,o),
(1405,-345,cs),
(1277,-345,o),
(1229,-217,o),
(1229,-56,cs),
(1229,1486,l),
(1104,1486,l),
(1071,1439,l),
(1011,1480,o),
(907,1506,o),
(778,1506,cs),
(345,1506,o),
(70,1188,o),
(70,734,cs),
(70,260,o),
(312,-22,o),
(697,-22,cs),
(834,-22,o),
(966,37,o),
(1059,116,c),
(1059,-47,ls),
(1059,-280,o),
(1256,-486,o),
(1461,-486,cs)
);
},
{
closed = 1;
nodes = (
(419,72,o),
(248,314,o),
(250,736,cs),
(252,1176,o),
(455,1418,o),
(776,1418,cs),
(906,1418,o),
(994,1374,o),
(1053,1305,c),
(1053,260,l),
(953,116,o),
(820,72,o),
(687,72,cs)
);
}
);
width = 1459;
},
{
anchors = (
{
name = bottom;
pos = (668,0);
},
{
name = top;
pos = (778,1486);
}
);
layerId = "DEBB1CE4-A72D-4960-969E-E04A036D2FA1";
shapes = (
{
closed = 1;
nodes = (
(1480,-508,o),
(1522,-495,o),
(1538,-490,c),
(1538,-218,l),
(1498,-250,o),
(1450,-266,o),
(1396,-266,cs),
(1332,-266,o),
(1295,-208,o),
(1295,-144,cs),
(1295,1486,l),
(1051,1486,l),
(999,1449,l),
(941,1489,o),
(851,1506,o),
(778,1506,cs),
(313,1506,o),
(58,1195,o),
(58,728,cs),
(58,209,o),
(317,-22,o),
(691,-22,cs),
(789,-22,o),
(905,-3,o),
(963,50,c),
(963,-29,ls),
(963,-305,o),
(1200,-508,o),
(1434,-508,cs)
);
},
{
closed = 1;
nodes = (
(559,110,o),
(432,258,o),
(434,718,cs),
(436,1172,o),
(551,1374,o),
(808,1374,cs),
(858,1374,o),
(907,1371,o),
(957,1342,c),
(955,209,l),
(908,135,o),
(841,110,o),
(779,110,cs)
);
}
);
width = 1448;
},
{
anchors = (
{
name = bottom;
pos = (573,0);
},
{
name = top;
pos = (677,1486);
}
);
background = {
shapes = (
{
ref = "Alpha-latin";
}
);
};
layerId = "0E4B6E2E-ECAB-4D06-9686-B0B40AA31834";
shapes = (
{
closed = 1;
nodes = (
(1367,-486,o),
(1391,-478,o),
(1410,-470,c),
(1410,-309,l),
(1392,-323,o),
(1334,-345,o),
(1256,-345,cs),
(1158,-345,o),
(1093,-217,o),
(1093,-56,cs),
(1093,1486,l),
(985,1486,l),
(952,1439,l),
(892,1480,o),
(788,1506,o),
(679,1506,cs),
(320,1506,o),
(46,1188,o),
(46,734,cs),
(46,260,o),
(287,-22,o),
(598,-22,cs),
(715,-22,o),
(847,37,o),
(940,116,c),
(940,-47,ls),
(940,-280,o),
(1137,-486,o),
(1312,-486,cs)
);
},
{
closed = 1;
nodes = (
(394,72,o),
(224,314,o),
(226,736,cs),
(228,1176,o),
(430,1418,o),
(677,1418,cs),
(787,1418,o),
(875,1374,o),
(934,1305,c),
(934,260,l),
(834,116,o),
(701,72,o),
(588,72,cs)
);
}
);
width = 1225;
},
{
anchors = (
{
name = bottom;
pos = (549,0);
},
{
name = top;
pos = (685,1488);
}
);
background = {
shapes = (
{
pos = (-2,0);
ref = "Alpha-latin";
}
);
};
layerId = "EA2265BD-E890-48C4-9E90-A53076E780C5";
shapes = (
{
closed = 1;
nodes = (
(1313,-508,o),
(1347,-495,o),
(1361,-490,c),
(1361,-218,l),
(1328,-250,o),
(1289,-266,o),
(1244,-266,cs),
(1192,-266,o),
(1162,-208,o),
(1162,-144,cs),
(1162,1486,l),
(923,1486,l),
(881,1449,l),
(833,1489,o),
(750,1506,o),
(690,1506,cs),
(234,1506,o),
(40,1195,o),
(40,728,cs),
(40,209,o),
(252,-22,o),
(619,-22,cs),
(699,-22,o),
(794,-3,o),
(841,50,c),
(841,-29,ls),
(841,-305,o),
(1034,-508,o),
(1276,-508,cs)
);
},
{
closed = 1;
nodes = (
(511,110,o),
(407,258,o),
(409,718,cs),
(410,1172,o),
(504,1374,o),
(714,1374,cs),
(755,1374,o),
(795,1371,o),
(836,1342,c),
(835,209,l),
(796,135,o),
(741,110,o),
(691,110,cs)
);
}
);
width = 1281;
},
{
anchors = (
{
name = bottom;
pos = (721,0);
},
{
name = top;
pos = (721,1486);
}
);
background = {
shapes = (
{
pos = (-22,0);
ref = "Alpha-latin";
}
);
};
layerId = "779F1615-9D1A-4778-9767-9A030AA58B6C";
shapes = (
{
closed = 1;
nodes = (
(1507,-486,o),
(1531,-478,o),
(1550,-470,c),
(1550,-309,l),
(1532,-323,o),
(1474,-345,o),
(1396,-345,cs),
(1268,-345,o),
(1220,-217,o),
(1220,-56,cs),
(1220,1486,l),
(1095,1486,l),
(1072,1439,l),
(1002,1480,o),
(898,1506,o),
(750,1506,cs),
(317,1506,o),
(42,1188,o),
(42,734,cs),
(42,260,o),
(284,-22,o),
(669,-22,cs),
(825,-22,o),
(969,37,o),
(1062,116,c),
(1062,-47,ls),
(1062,-280,o),
(1247,-486,o),
(1452,-486,cs)
);
},
{
closed = 1;
nodes = (
(391,72,o),
(199,314,o),
(201,736,cs),
(203,1176,o),
(427,1418,o),
(748,1418,cs),
(897,1418,o),
(997,1374,o),
(1056,1305,c),
(1056,260,l),
(956,116,o),
(811,72,o),
(659,72,cs)
);
}
);
width = 1420;
},
{
anchors = (
{
name = bottom;
pos = (600,0);
},
{
name = top;
pos = (764,1486);
}
);
background = {
shapes = (
{
pos = (-13,0);
ref = "Alpha-latin";
}
);
};
layerId = "97BB7961-D669-43AB-8BBF-11FFD0C46A4B";
shapes = (
{
closed = 1;
nodes = (
(1481,-508,o),
(1523,-495,o),
(1539,-490,c),
(1539,-218,l),
(1499,-250,o),
(1451,-266,o),
(1397,-266,cs),
(1333,-266,o),
(1296,-208,o),
(1296,-144,cs),
(1296,1486,l),
(1052,1486,l),
(1000,1449,l),
(942,1489,o),
(852,1506,o),
(760,1506,cs),
(295,1506,o),
(40,1195,o),
(40,728,cs),
(40,209,o),
(299,-22,o),
(673,-22,cs),
(790,-22,o),
(906,-3,o),
(964,50,c),
(964,-29,ls),
(964,-305,o),
(1201,-508,o),
(1435,-508,cs)
);
},
{
closed = 1;
nodes = (
(541,110,o),
(414,258,o),
(416,718,cs),
(418,1172,o),
(533,1374,o),
(790,1374,cs),
(844,1374,o),
(893,1371,o),
(943,1342,c),
(941,209,l),
(894,135,o),
(827,110,o),
(761,110,cs)
);
}
);
width = 1449;
},
{
anchors = (
{
name = bottom;
pos = (671,0);
},
{
name = top;
pos = (691,1486);
}
);
layerId = "C9B9556E-C2FD-4F62-BB40-44923C452C22";
shapes = (
{
closed = 1;
nodes = (
(1419,-506,o),
(1443,-498,o),
(1462,-490,c),
(1462,-349,l),
(1444,-363,o),
(1386,-385,o),
(1308,-385,cs),
(1208,-385,o),
(1171,-299,o),
(1171,-136,cs),
(1171,1486,l),
(1061,1486,l),
(1037,1441,l),
(956,1485,o),
(853,1507,o),
(714,1507,cs),
(337,1507,o),
(45,1228,o),
(45,724,cs),
(45,191,o),
(333,-23,o),
(657,-23,cs),
(767,-23,o),
(946,43,o),
(1014,132,c),
(1014,-67,ls),
(1014,-312,o),
(1174,-506,o),
(1364,-506,cs)
);
},
{
closed = 1;
nodes = (
(383,27,o),
(215,303,o),
(215,726,cs),
(215,1251,o),
(435,1457,o),
(722,1457,cs),
(853,1457,o),
(967,1401,o),
(1014,1331,c),
(1012,245,l),
(915,71,o),
(762,27,o),
(657,27,cs)
);
}
);
width = 1342;
},
{
anchors = (
{
name = bottom;
pos = (616,0);
},
{
name = top;
pos = (756,1486);
}
);
layerId = "184155C8-9F61-4F1C-9784-DDA8EA717636";
shapes = (
{
closed = 1;
nodes = (
(1499,-485,o),
(1546,-477,o),
(1583,-454,c),
(1583,-220,l),
(1533,-273,o),
(1465,-302,o),
(1405,-302,cs),
(1330,-302,o),
(1296,-257,o),
(1296,-98,cs),
(1296,1486,l),
(1036,1484,l),
(1002,1454,l),
(924,1491,o),
(861,1509,o),
(756,1509,cs),
(299,1509,o),
(44,1177,o),
(44,696,cs),
(44,181,o),
(280,-23,o),
(617,-23,cs),
(793,-23,o),
(868,21,o),
(922,58,c),
(922,8,ls),
(922,-258,o),
(1151,-485,o),
(1419,-485,cs)
);
},
{
closed = 1;
nodes = (
(567,20,o),
(447,283,o),
(447,748,cs),
(447,1307,o),
(576,1453,o),
(752,1453,cs),
(835,1453,o),
(889,1418,o),
(918,1369,c),
(918,235,l),
(889,142,o),
(831,20,o),
(706,20,cs)
);
}
);
width = 1425;
},
{
anchors = (
{
name = bottom;
pos = (625,0);
},
{
name = top;
pos = (693,1486);
}
);
background = {
shapes = (
{
pos = (-2,0);
ref = "Alpha-latin";
}
);
};
layerId = "E96AC896-F5DF-475B-BBD9-C7FEC6A86D0E";
shapes = (
{
closed = 1;
nodes = (
(1368,-506,o),
(1392,-498,o),
(1411,-490,c),
(1411,-349,l),
(1393,-363,o),
(1335,-385,o),
(1257,-385,cs),
(1157,-385,o),
(1112,-299,o),
(1112,-136,cs),
(1112,1486,l),
(1007,1486,l),
(983,1441,l),
(902,1485,o),
(802,1507,o),
(697,1507,cs),
(320,1507,o),
(40,1228,o),
(40,724,cs),
(40,191,o),
(316,-23,o),
(640,-23,cs),
(747,-23,o),
(895,43,o),
(963,132,c),
(963,-67,ls),
(963,-312,o),
(1123,-506,o),
(1313,-506,cs)
);
},
{
closed = 1;
nodes = (
(366,27,o),
(210,303,o),
(210,726,cs),
(210,1251,o),
(418,1457,o),
(705,1457,cs),
(802,1457,o),
(916,1401,o),
(963,1331,c),
(961,245,l),
(864,71,o),
(725,27,o),
(640,27,cs)
);
}
);
width = 1251;
},
{
anchors = (
{
name = bottom;
pos = (538,0);
},
{
name = top;
pos = (669,1486);
}
);
background = {
shapes = (
{
ref = "Alpha-latin";
}
);
};
layerId = "F2B10EEF-9DDC-48CA-970D-6B8C79870881";
shapes = (
{
closed = 1;
nodes = (
(1340,-485,o),
(1382,-477,o),
(1416,-454,c),
(1416,-220,l),
(1371,-273,o),
(1309,-302,o),
(1255,-302,cs),
(1187,-302,o),
(1156,-257,o),
(1156,-98,cs),
(1156,1486,l),
(921,1484,l),
(890,1454,l),
(820,1491,o),
(763,1509,o),
(668,1509,cs),
(255,1509,o),
(40,1177,o),
(40,696,cs),
(40,181,o),
(253,-23,o),
(558,-23,cs),
(701,-23,o),
(769,21,o),
(818,58,c),
(818,8,l),
(818,-258,o),
(1025,-485,o),
(1268,-485,cs)
);
},
{
closed = 1;
nodes = (
(497,20,o),
(403,283,o),
(403,748,cs),
(403,1307,o),
(505,1453,o),
(664,1453,cs),
(739,1453,o),
(788,1418,o),
(814,1369,c),
(814,235,l),
(788,142,o),
(736,20,o),
(623,20,cs)
);
}
);
width = 1288;
},
{
anchors = (
{
name = bottom;
pos = (841,0);
},
{
name = top;
pos = (841,1486);
}
);
background = {
shapes = (
{
ref = "Alpha-latin";
}
);
};
layerId = "2103F1D3-C390-4F79-A87D-298F85EA6916";
shapes = (
{
closed = 1;
nodes = (
(1448,-506,o),
(1472,-498,o),
(1491,-490,c),
(1491,-349,l),
(1473,-363,o),
(1415,-385,o),
(1337,-385,cs),
(1237,-385,o),
(1204,-299,o),
(1204,-136,cs),
(1204,1486,l),
(1090,1486,l),
(1066,1441,l),
(985,1485,o),
(882,1507,o),
(743,1507,cs),
(366,1507,o),
(37,1228,o),
(37,724,cs),
(37,191,o),
(362,-23,o),
(686,-23,cs),
(796,-23,o),
(966,31,o),
(1043,132,c),
(1043,-67,ls),
(1043,-312,o),
(1203,-506,o),
(1393,-506,cs)
);
},
{
closed = 1;
nodes = (
(412,27,o),
(215,303,o),
(215,726,cs),
(215,1251,o),
(464,1457,o),
(751,1457,cs),
(852,1457,o),
(996,1401,o),
(1043,1331,c),
(1041,262,l),
(959,87,o),
(791,27,o),
(686,27,cs)
);
}
);
width = 1356;
},
{
anchors = (
{
name = bottom;
pos = (847,0);
},
{
name = top;
pos = (847,1486);
}
);
background = {
shapes = (
{
pos = (-2,0);
ref = "Alpha-latin";
}
);
};
layerId = "AFA1064D-EFC9-4C9F-B9B0-9118E41D87C4";
shapes = (
{
closed = 1;
nodes = (
(1499,-485,o),
(1546,-477,o),
(1583,-454,c),
(1583,-220,l),
(1533,-273,o),
(1465,-302,o),
(1405,-302,cs),
(1330,-302,o),
(1275,-257,o),
(1275,-98,cs),
(1275,1486,l),
(1036,1484,l),
(1002,1454,l),
(924,1491,o),
(861,1509,o),
(756,1509,cs),
(279,1509,o),
(24,1177,o),
(24,696,cs),
(24,181,o),
(260,-23,o),
(617,-23,cs),
(793,-23,o),
(868,21,o),
(922,58,c),
(922,8,l),
(922,-258,o),
(1151,-485,o),
(1419,-485,cs)
);
},
{
closed = 1;
nodes = (
(546,27,o),
(427,283,o),
(427,748,cs),
(427,1307,o),
(556,1453,o),
(752,1453,cs),
(815,1453,o),
(868,1418,o),
(897,1369,c),
(897,235,l),
(868,142,o),
(790,27,o),
(685,27,cs)
);
}
);
width = 1405;
}
);
metricLeft = O;
unicode = 586;
}
{
color = 4;
glyphname = hturned;
layers = (
{
background = {
shapes = (
{
pos = (-1,0);
ref = u;
}
);
};
layerId = UUID0;
shapes = (
{
closed = 1;
nodes = (
(908,-528,l),
(1204,-494,l),
(1204,-420,l),
(1026,-402,l),
(1026,1110,l),
(976,1136,l),
(966,1136,l),
(713,1110,l),
(713,1033,l),
(864,1001,l),
(864,230,l),
(782,168,o),
(676,98,o),
(567,98,cs),
(369,98,o),
(339,208,o),
(339,442,cs),
(339,1110,l),
(298,1136,l),
(289,1136,l),
(60,1110,l),
(60,1036,l),
(177,998,l),
(177,444,ls),
(177,114,o),
(243,-26,o),
(497,-26,cs),
(647,-26,o),
(796,70,o),
(870,140,c),
(864,-26,l),
(864,-502,l),
(904,-528,l)
);
}
);
width = 1243;
},
{
background = {
shapes = (
{
ref = u;
}
);
};
layerId = "DEBB1CE4-A72D-4960-969E-E04A036D2FA1";
shapes = (
{
closed = 1;
nodes = (
(882,-527,l),
(1285,-480,l),
(1285,-359,l),
(1132,-332,l),
(1132,1112,l),
(1079,1136,l),
(1016,1136,l),
(681,1112,l),
(681,985,l),
(807,956,l),
(807,251,l),
(760,209,o),
(684,166,o),
(602,166,cs),
(496,166,o),
(470,238,o),
(470,416,cs),
(470,1112,l),
(427,1136,l),
(353,1136,l),
(50,1112,l),
(50,980,l),
(142,959,l),
(142,415,ls),
(142,116,o),
(209,-23,o),
(464,-23,cs),
(626,-23,o),
(766,66,o),
(832,126,c),
(817,-52,l),
(818,-485,l),
(877,-527,l)
);
}
);
width = 1298;
},
{
background = {
shapes = (
{
ref = u;
}
);
};
layerId = "0E4B6E2E-ECAB-4D06-9686-B0B40AA31834";
shapes = (
{
closed = 1;
nodes = (
(774,-528,l),
(1040,-494,l),
(1040,-422,l),
(884,-404,l),
(884,1110,l),
(849,1135,l),
(841,1136,l),
(601,1110,l),
(601,1034,l),
(734,1000,l),
(734,239,l),
(691,180,o),
(608,96,o),
(477,96,cs),
(304,96,o),
(288,211,o),
(288,410,cs),
(288,1110,l),
(255,1135,l),
(249,1135,l),
(35,1110,l),
(35,1034,l),
(138,1000,l),
(138,388,ls),
(138,100,o),
(232,-26,o),
(437,-26,cs),
(577,-26,o),
(687,71,o),
(740,146,c),
(736,-25,l),
(736,-502,l),
(771,-528,l)
);
}
);
width = 1042;
},
{
background = {
shapes = (
{
pos = (-1,0);
ref = u;
}
);
};
layerId = "EA2265BD-E890-48C4-9E90-A53076E780C5";
shapes = (
{
closed = 1;
nodes = (
(758,-527,l),
(1114,-480,l),
(1114,-361,l),
(1000,-334,l),
(1000,1112,l),
(957,1136,l),
(944,1136,l),
(606,1112,l),
(606,984,l),
(687,956,l),
(687,252,l),
(652,209,o),
(607,160,o),
(539,160,cs),
(468,160,o),
(420,219,o),
(420,373,cs),
(420,1112,l),
(382,1136,l),
(370,1136,l),
(14,1112,l),
(14,980,l),
(105,957,l),
(105,376,ls),
(105,104,o),
(220,-23,o),
(431,-23,cs),
(572,-23,o),
(655,37,o),
(711,126,c),
(687,-51,l),
(688,-485,l),
(748,-527,l)
);
}
);
width = 1136;
},
{
background = {
shapes = (
{
pos = (1,0);
ref = u;
}
);
};
layerId = "779F1615-9D1A-4778-9767-9A030AA58B6C";
shapes = (
{
closed = 1;
nodes = (
(953,-530,l),
(1257,-496,l),
(1257,-422,l),
(1063,-404,l),
(1063,1110,l),
(1009,1135,l),
(1001,1135,l),
(740,1110,l),
(740,1034,l),
(899,1000,l),
(899,228,l),
(828,168,o),
(702,99,o),
(556,99,cs),
(361,99,o),
(307,198,o),
(307,439,cs),
(307,1110,l),
(269,1133,l),
(260,1134,l),
(11,1110,l),
(11,1034,l),
(144,1000,l),
(144,410,ls),
(144,107,o),
(247,-22,o),
(515,-22,cs),
(676,-22,o),
(827,68,o),
(904,131,c),
(899,-28,l),
(899,-504,l),
(948,-530,l)
);
}
);
width = 1231;
},
{
background = {
shapes = (
{
ref = u;
}
);
};
layerId = "97BB7961-D669-43AB-8BBF-11FFD0C46A4B";
shapes = (
{
closed = 1;
nodes = (
(900,-527,l),
(1300,-480,l),
(1300,-359,l),
(1153,-332,l),
(1153,1106,l),
(1108,1135,l),
(1098,1135,l),
(693,1112,l),
(693,988,l),
(827,956,l),
(827,232,l),
(798,208,o),
(726,161,o),
(631,161,cs),
(502,161,o),
(462,219,o),
(462,395,cs),
(462,1108,l),
(416,1135,l),
(407,1135,l),
(30,1112,l),
(30,988,l),
(124,962,l),
(124,400,ls),
(124,96,o),
(238,-23,o),
(493,-23,cs),
(660,-23,o),
(765,57,o),
(850,132,c),
(835,-52,l),
(836,-485,l),
(895,-527,l)
);
}
);
width = 1318;
},
{
background = {
shapes = (
{
ref = u;
}
);
};
layerId = "C9B9556E-C2FD-4F62-BB40-44923C452C22";
shapes = (
{
closed = 1;
nodes = (
(789,-633,l),
(1008,-601,l),
(1008,-574,l),
(870,-555,l),
(870,998,l),
(856,1010,l),
(819,1010,l),
(598,959,l),
(598,930,l),
(733,896,l),
(733,193,l),
(642,117,o),
(559,68,o),
(426,68,cs),
(292,68,o),
(268,173,o),
(268,332,cs),
(268,998,l),
(252,1010,l),
(215,1010,l),
(5,958,l),
(5,931,l),
(130,896,l),
(130,327,ls),
(130,114,o),
(181,-22,o),
(414,-22,cs),
(570,-22,o),
(674,84,o),
(736,167,c),
(733,0,l),
(733,-620,l),
(747,-633,l)
);
}
);
width = 1009;
},
{
background = {
shapes = (
{
ref = u;
}
);
};
layerId = "184155C8-9F61-4F1C-9784-DDA8EA717636";
shapes = (
{
closed = 1;
nodes = (
(806,-629,l),
(1176,-514,l),
(1176,-475,l),
(1038,-428,l),
(1038,990,l),
(981,1035,l),
(942,1035,l),
(597,921,l),
(597,884,l),
(705,833,l),
(705,193,l),
(670,169,o),
(606,142,o),
(555,142,cs),
(473,142,o),
(440,209,o),
(440,343,cs),
(440,990,l),
(388,1035,l),
(353,1036,l),
(10,921,l),
(10,880,l),
(104,833,l),
(104,343,ls),
(104,64,o),
(196,-34,o),
(391,-34,cs),
(522,-34,o),
(635,62,o),
(710,157,c),
(705,14,l),
(705,-585,l),
(769,-629,l)
);
}
);
width = 1132;
},
{
background = {
shapes = (
{
ref = u;
}
);
};
layerId = "E96AC896-F5DF-475B-BBD9-C7FEC6A86D0E";
shapes = (
{
closed = 1;
nodes = (
(746,-633,l),
(968,-601,l),
(968,-574,l),
(834,-555,l),
(834,999,l),
(821,1010,l),
(784,1010,l),
(571,959,l),
(571,931,l),
(697,895,l),
(697,191,l),
(634,128,o),
(512,66,o),
(425,66,cs),
(301,66,o),
(273,155,o),
(273,293,cs),
(273,999,l),
(258,1011,l),
(219,1011,l),
(10,958,l),
(10,931,l),
(136,896,l),
(136,287,ls),
(136,91,o),
(185,-20,o),
(399,-20,cs),
(538,-20,o),
(643,83,o),
(698,159,c),
(698,0,l),
(697,-620,l),
(714,-633,l)
);
}
);
width = 973;
},
{
background = {
shapes = (
{
pos = (6,0);
ref = u;
}
);
};
layerId = "F2B10EEF-9DDC-48CA-970D-6B8C79870881";
shapes = (
{
closed = 1;
nodes = (
(698,-629,l),
(1051,-514,l),
(1051,-475,l),
(942,-428,l),
(942,992,l),
(893,1034,l),
(853,1034,l),
(536,922,l),
(536,880,l),
(627,833,l),
(627,209,l),
(602,181,o),
(560,156,o),
(497,156,cs),
(441,156,o),
(423,202,o),
(423,336,cs),
(423,992,l),
(374,1034,l),
(334,1034,l),
(8,921,l),
(8,880,l),
(106,833,l),
(105,335,ls),
(105,92,o),
(197,-20,o),
(370,-20,cs),
(503,-20,o),
(583,53,o),
(635,165,c),
(627,-141,l),
(625,-603,l),
(645,-629,l)
);
}
);
width = 1040;
},
{
background = {
shapes = (
{
ref = u;
}
);
};
layerId = "2103F1D3-C390-4F79-A87D-298F85EA6916";
shapes = (
{
closed = 1;
nodes = (
(875,-633,l),
(1073,-601,l),
(1073,-574,l),
(944,-555,l),
(944,998,l),
(928,1010,l),
(891,1010,l),
(656,958,l),
(656,931,l),
(800,896,l),
(800,193,l),
(732,127,o),
(605,66,o),
(491,66,cs),
(382,66,o),
(279,120,o),
(279,292,cs),
(279,998,l),
(264,1010,l),
(225,1010,l),
(10,958,l),
(10,931,l),
(136,896,l),
(136,292,ls),
(136,89,o),
(255,-20,o),
(467,-20,cs),
(611,-20,o),
(741,81,o),
(802,160,c),
(800,0,l),
(800,-620,l),
(811,-633,l)
);
}
);
width = 1087;
},
{
background = {
shapes = (
{
ref = u;
}
);
};
layerId = "AFA1064D-EFC9-4C9F-B9B0-9118E41D87C4";
shapes = (
{
closed = 1;
nodes = (
(828,-629,l),
(1198,-514,l),
(1198,-475,l),
(1077,-429,l),
(1077,990,l),
(1015,1036,l),
(976,1036,l),
(613,921,l),
(613,880,l),
(734,834,l),
(734,192,l),
(679,155,o),
(589,153,o),
(567,153,cs),
(478,153,o),
(447,200,o),
(447,312,cs),
(447,990,l),
(392,1036,l),
(358,1036,l),
(0,921,l),
(0,880,l),
(102,834,l),
(102,328,ls),
(102,97,o),
(200,-21,o),
(392,-21,cs),
(568,-21,o),
(667,79,o),
(750,158,c),
(734,-141,l),
(734,-585,l),
(790,-629,l)
);
}
);
width = 1188;
}
);
metricLeft = u;
metricWidth = u;
unicode = 613;
}
{
color = 4;
glyphname = rfishhook;
layers = (
{
background = {
shapes = (
{
pos = (-38,-513);
ref = f;
}
);
};
layerId = UUID0;
shapes = (
{
closed = 1;
nodes = (
(626,0,ls),
(626,82,ls),
(382,98,ls),
(382,749,ls),
(382,935,o),
(446,995,o),
(584,995,cs),
(678,995,o),
(746,973,o),
(762,958,c),
(764,1121,l),
(737,1131,o),
(712,1140,o),
(652,1140,cs),
(433,1140,o),
(220,944,o),
(220,698,cs),
(220,96,ls),
(60,84,ls),
(60,0,ls)
);
}
);
width = 814;
},
{
background = {
shapes = (
{
pos = (-40,-538);
ref = f;
}
);
};
layerId = "DEBB1CE4-A72D-4960-969E-E04A036D2FA1";
shapes = (
{
closed = 1;
nodes = (
(710,0,ls),
(710,131,ls),
(504,150,ls),
(504,754,ls),
(504,860,o),
(543,896,o),
(648,896,cs),
(721,896,o),
(800,880,o),
(837,849,c),
(837,1119,l),
(821,1125,o),
(781,1139,o),
(703,1139,cs),
(421,1139,o),
(178,928,o),
(178,656,cs),
(178,149,ls),
(50,131,ls),
(50,0,ls)
);
}
);
width = 878;
},
{
background = {
shapes = (
{
pos = (-58,-513);
ref = f;
}
);
};
layerId = "0E4B6E2E-ECAB-4D06-9686-B0B40AA31834";
shapes = (
{
closed = 1;
nodes = (
(534,0,l),
(534,82,l),
(329,98,l),
(329,750,ls),
(329,935,o),
(373,996,o),
(492,996,cs),
(588,996,o),
(663,974,o),
(692,960,c),
(692,1124,l),
(666,1133,o),
(625,1140,o),
(583,1140,cs),
(351,1140,o),
(168,944,o),
(168,698,cs),
(168,96,l),
(35,84,l),
(35,0,l)
);
}
);
width = 742;
},
{
background = {
shapes = (
{
pos = (-72,-538);
ref = f;
}
);
};
layerId = "EA2265BD-E890-48C4-9E90-A53076E780C5";
shapes = (
{
closed = 1;
nodes = (
(607,0,l),
(607,131,l),
(442,150,l),
(442,772,ls),
(442,870,o),
(467,912,o),
(522,912,cs),
(583,912,o),
(657,885,o),
(721,854,c),
(721,1127,l),
(687,1139,o),
(623,1144,o),
(588,1144,cs),
(287,1144,o),
(109,915,o),
(109,565,cs),
(109,149,l),
(14,131,l),
(14,0,l)
);
}
);
width = 741;
},
{
background = {
shapes = (
{
pos = (-93,-513);
ref = f;
}
);
};
layerId = "779F1615-9D1A-4778-9767-9A030AA58B6C";
shapes = (
{
closed = 1;
nodes = (
(577,0,ls),
(577,82,ls),
(333,98,ls),
(333,750,ls),
(333,935,o),
(386,996,o),
(535,996,cs),
(652,996,o),
(739,974,o),
(767,960,cs),
(767,1124,ls),
(743,1132,o),
(698,1140,o),
(644,1140,cs),
(385,1140,o),
(171,944,o),
(171,698,cs),
(171,96,ls),
(11,84,ls),
(11,0,ls)
);
}
);
width = 840;
},
{
background = {
shapes = (
{
pos = (-66,-538);
ref = f;
}
);
};
layerId = "97BB7961-D669-43AB-8BBF-11FFD0C46A4B";
shapes = (
{
closed = 1;
nodes = (
(690,0,ls),
(690,131,ls),
(486,150,ls),
(486,766,ls),
(486,864,o),
(520,906,o),
(605,906,cs),
(687,906,o),
(773,879,o),
(836,848,cs),
(836,1121,ls),
(800,1133,o),
(734,1138,o),
(689,1138,cs),
(361,1138,o),
(152,909,o),
(152,559,cs),
(152,149,ls),
(30,131,ls),
(30,0,ls)
);
}
);
width = 859;
},
{
background = {
shapes = (
{
pos = (-66,-618);
ref = f;
}
);
};
layerId = "C9B9556E-C2FD-4F62-BB40-44923C452C22";
shapes = (
{
closed = 1;
nodes = (
(413,0,ls),
(413,36,ls),
(259,67,ls),
(261,697,ls),
(262,890,o),
(314,933,o),
(463,933,cs),
(548,933,o),
(598,924,o),
(622,912,c),
(622,1024,l),
(607,1030,o),
(581,1040,o),
(540,1040,cs),
(326,1040,o),
(122,857,o),
(121,529,cs),
(120,67,ls),
(5,36,ls),
(5,0,ls)
);
}
);
width = 652;
},
{
background = {
shapes = (
{
pos = (-3,-619);
ref = f;
}
);
};
layerId = "184155C8-9F61-4F1C-9784-DDA8EA717636";
shapes = (
{
closed = 1;
nodes = (
(622,0,l),
(622,38,l),
(477,73,l),
(476,717,ls),
(476,839,o),
(511,878,o),
(584,878,cs),
(645,878,o),
(743,843,o),
(792,811,c),
(791,1026,l),
(774,1036,o),
(731,1043,o),
(667,1043,cs),
(429,1043,o),
(150,752,o),
(150,364,cs),
(150,72,l),
(10,38,l),
(10,0,l)
);
}
);
width = 832;
},
{
background = {
shapes = (
{
pos = (-77,-618);
ref = f;
}
);
};
layerId = "E96AC896-F5DF-475B-BBD9-C7FEC6A86D0E";
shapes = (
{
closed = 1;
nodes = (
(388,0,l),
(388,36,l),
(261,67,l),
(261,731,ls),
(261,869,o),
(289,903,o),
(374,903,cs),
(432,903,o),
(486,896,o),
(527,882,c),
(527,1009,l),
(507,1017,o),
(477,1025,o),
(448,1025,cs),
(294,1025,o),
(113,831,o),
(113,572,cs),
(113,67,l),
(10,36,l),
(10,0,l)
);
}
);
width = 547;
},
{
background = {
shapes = (
{
pos = (-26,-619);
ref = f;
}
);
};
layerId = "F2B10EEF-9DDC-48CA-970D-6B8C79870881";
shapes = (
{
closed = 1;
nodes = (
(590,0,l),
(590,38,l),
(465,73,l),
(465,746,ls),
(465,835,o),
(480,864,o),
(513,865,cs),
(567,867,o),
(644,835,o),
(709,788,c),
(709,1015,l),
(696,1026,o),
(665,1032,o),
(609,1032,cs),
(350,1032,o),
(122,752,o),
(122,364,cs),
(122,72,l),
(8,38,l),
(8,0,l)
);
}
);
width = 729;
},
{
background = {
shapes = (
{
pos = (-72,-618);
ref = f;
}
);
};
layerId = "2103F1D3-C390-4F79-A87D-298F85EA6916";
shapes = (
{
closed = 1;
nodes = (
(418,0,ls),
(418,36,ls),
(270,67,ls),
(270,731,ls),
(270,869,o),
(305,903,o),
(412,903,cs),
(480,903,o),
(539,896,o),
(583,882,cs),
(583,1009,ls),
(559,1017,o),
(524,1025,o),
(495,1025,cs),
(331,1025,o),
(128,831,o),
(128,572,cs),
(128,67,ls),
(10,36,ls),
(10,0,ls)
);
}
);
width = 603;
},
{
background = {
shapes = (
{
pos = (-27,-619);
ref = f;
}
);
};
layerId = "AFA1064D-EFC9-4C9F-B9B0-9118E41D87C4";
shapes = (
{
closed = 1;
nodes = (
(612,0,ls),
(612,38,ls),
(467,73,ls),
(466,746,ls),
(466,839,o),
(489,863,o),
(543,865,cs),
(608,867,o),
(690,834,o),
(757,788,cs),
(757,1015,ls),
(740,1026,o),
(704,1032,o),
(648,1032,cs),
(379,1032,o),
(129,752,o),
(129,364,cs),
(129,72,ls),
(0,38,ls),
(0,0,ls)
);
}
);
width = 792;
}
);
metricLeft = u;
metricRight = r;
unicode = 638;
}
{
color = 3;
glyphname = gravecomb;
layers = (
{
anchors = (
{
name = _top;
pos = (513,1110);
},
{
name = top;
pos = (513,1738);
}
);
layerId = UUID0;
shapes = (
{
closed = 1;
nodes = (
(562,1298,l),
(626,1352,l),
(316,1738,l),
(180,1628,l),
(232,1543,o),
(464,1342,o),
(560,1298,c)
);
}
);
width = 806;
},
{
anchors = (
{
name = _top;
pos = (547,1112);
},
{
name = top;
pos = (547,1797);
}
);
layerId = "DEBB1CE4-A72D-4960-969E-E04A036D2FA1";
shapes = (
{
closed = 1;
nodes = (
(603,1268,l),
(718,1366,l),
(369,1797,l),
(180,1626,l),
(249,1506,o),
(489,1310,o),
(601,1268,c)
);
}
);
width = 898;
},
{
anchors = (
{
name = _top;
pos = (534,1005);
},
{
name = top;
pos = (534,1601);
}
);
layerId = "184155C8-9F61-4F1C-9784-DDA8EA717636";
shapes = (
{
closed = 1;
nodes = (
(594,1120,l),
(633,1153,l),
(355,1601,l),
(154,1429,l),
(259,1298,o),
(446,1169,o),
(592,1120,c)
);
}
);
width = 787;
},
{
anchors = (
{
name = _top;
pos = (521,1112);
},
{
name = top;
pos = (521,1783);
}
);
layerId = "EA2265BD-E890-48C4-9E90-A53076E780C5";
shapes = (
{
closed = 1;
nodes = (
(565,1263,l),
(679,1361,l),
(393,1783,l),
(185,1630,l),
(260,1504,o),
(457,1324,o),
(563,1263,c)
);
}
);
width = 864;
},
{
anchors = (
{
name = _top;
pos = (402,1110);
},
{
name = top;
pos = (402,1738);
}
);
layerId = "0E4B6E2E-ECAB-4D06-9686-B0B40AA31834";
shapes = (
{
closed = 1;
nodes = (
(442,1298,l),
(506,1352,l),
(254,1734,l),
(110,1638,l),
(155,1553,o),
(344,1352,o),
(440,1298,c)
);
}
);
width = 616;
},
{
anchors = (
{
name = _top;
pos = (491,1005);
},
{
name = top;
pos = (491,1601);
}
);
layerId = "F2B10EEF-9DDC-48CA-970D-6B8C79870881";
shapes = (
{
closed = 1;
nodes = (
(561,1120,l),
(600,1153,l),
(352,1601,l),
(141,1449,l),
(240,1318,o),
(421,1178,o),
(559,1120,c)
);
}
);
width = 741;
},
{
anchors = (
{
name = _top;
pos = (394,1005);
},
{
name = top;
pos = (394,1577);
}
);
layerId = "E96AC896-F5DF-475B-BBD9-C7FEC6A86D0E";
shapes = (
{
closed = 1;
nodes = (
(439,1146,l),
(465,1166,l),
(272,1577,l),
(140,1503,l),
(198,1390,o),
(334,1233,o),
(437,1146,c)
);
}
);
width = 605;
},
{
anchors = (
{
name = _top;
pos = (450,1005);
},
{
name = top;
pos = (450,1577);
}
);
layerId = "C9B9556E-C2FD-4F62-BB40-44923C452C22";
shapes = (
{
closed = 1;
nodes = (
(493,1146,l),
(519,1166,l),
(280,1577,l),
(154,1493,l),
(214,1381,o),
(385,1219,o),
(491,1146,c)
);
}
);
width = 673;
},
{
anchors = (
{
name = _top;
pos = (509,1005);
},
{
name = top;
pos = (509,1601);
}
);
layerId = "AFA1064D-EFC9-4C9F-B9B0-9118E41D87C4";
shapes = (
{
closed = 1;
nodes = (
(594,1120,l),
(633,1153,l),
(305,1601,l),
(104,1419,l),
(216,1308,o),
(444,1165,o),
(592,1120,c)
);
}
);
width = 737;
},
{
anchors = (
{
name = _top;
pos = (481,1005);
},
{
name = top;
pos = (481,1577);
}
);
layerId = "2103F1D3-C390-4F79-A87D-298F85EA6916";
shapes = (
{
closed = 1;
nodes = (
(540,1146,l),
(566,1166,l),
(275,1577,l),
(156,1483,l),
(226,1382,o),
(431,1208,o),
(538,1146,c)
);
}
);
width = 722;
},
{
anchors = (
{
name = _top;
pos = (467,1110);
},
{
name = top;
pos = (467,1738);
}
);
layerId = "779F1615-9D1A-4778-9767-9A030AA58B6C";
shapes = (
{
closed = 1;
nodes = (
(532,1298,l),
(596,1352,l),
(237,1738,l),
(110,1618,l),
(168,1535,o),
(431,1335,o),
(530,1298,c)
);
}
);
userData = {
com.schriftgestaltung.Glyphs.lastChange = "2019-04-25 21:50:43 +0000";
};
width = 706;
},
{
anchors = (
{
name = _top;
pos = (561,1112);
},
{
name = top;
pos = (561,1783);
}
);
color = 9;
layerId = "97BB7961-D669-43AB-8BBF-11FFD0C46A4B";
shapes = (
{
closed = 1;
nodes = (
(620,1263,l),
(734,1361,l),
(364,1783,l),
(170,1610,l),
(250,1494,o),
(496,1306,o),
(618,1263,c)
);
}
);
width = 904;
}
);
metricLeft = hyphen;
metricRight = hyphen;
unicode = 768;
userData = {
KernOnSpecialSpacing = {
L = NoKerning;
R = NoKerning;
};
};
}
{
glyphname = brevecomb;
layers = (
{
anchors = (
{
name = _top;
pos = (497,1110);
},
{
name = top;
pos = (497,1463);
}
);
layerId = UUID0;
shapes = (
{
closed = 1;
nodes = (
(697,1299,o),
(814,1426,o),
(814,1585,cs),
(814,1598,o),
(813,1613,o),
(810,1627,cs),
(720,1627,ls),
(720,1620,o),
(720,1609,o),
(718,1596,cs),
(706,1520,o),
(661,1426,o),
(497,1426,cs),
(333,1426,o),
(288,1520,o),
(276,1596,cs),
(274,1609,o),
(274,1620,o),
(274,1627,cs),
(184,1627,ls),
(181,1613,o),
(180,1598,o),
(180,1585,cs),
(180,1426,o),
(297,1299,o),
(497,1299,cs)
);
}
);
width = 994;
},
{
anchors = (
{
name = _top;
pos = (544,1112);
},
{
name = top;
pos = (544,1523);
}
);
layerId = "DEBB1CE4-A72D-4960-969E-E04A036D2FA1";
shapes = (
{
closed = 1;
nodes = (
(760,1292,o),
(907,1414,o),
(907,1587,cs),
(907,1614,o),
(905,1654,o),
(905,1673,cs),
(759,1673,ls),
(760,1661,o),
(758,1647,o),
(756,1632,cs),
(747,1558,o),
(693,1489,o),
(547,1489,cs),
(399,1489,o),
(346,1559,o),
(335,1633,cs),
(333,1647,o),
(333,1661,o),
(333,1673,cs),
(184,1673,ls),
(180,1654,o),
(180,1613,o),
(180,1585,cs),
(180,1414,o),
(322,1292,o),
(547,1292,cs)
);
}
);
width = 1087;
},
{
anchors = (
{
name = _top;
pos = (455,1005);
},
{
name = top;
pos = (455,1541);
}
);
guides = (
{
pos = (712,1356);
}
);
layerId = "184155C8-9F61-4F1C-9784-DDA8EA717636";
shapes = (
{
closed = 1;
nodes = (
(637,1129,o),
(756,1268,o),
(756,1464,cs),
(756,1494,o),
(755,1510,o),
(752,1531,c),
(692,1531,l),
(692,1518,o),
(691,1501,o),
(686,1482,cs),
(661,1386,o),
(570,1339,o),
(455,1339,cs),
(340,1339,o),
(249,1386,o),
(224,1482,cs),
(219,1501,o),
(218,1518,o),
(218,1531,c),
(158,1531,l),
(155,1510,o),
(154,1494,o),
(154,1464,cs),
(154,1268,o),
(273,1129,o),
(455,1129,cs)
);
}
);
width = 910;
},
{
anchors = (
{
name = _top;
pos = (519,1112);
},
{
name = top;
pos = (519,1523);
}
);
layerId = "EA2265BD-E890-48C4-9E90-A53076E780C5";
shapes = (
{
closed = 1;
nodes = (
(717,1292,o),
(853,1422,o),
(853,1601,cs),
(853,1629,o),
(851,1654,o),
(848,1673,c),
(702,1673,l),
(702,1661,o),
(702,1647,o),
(700,1633,cs),
(691,1559,o),
(644,1489,o),
(519,1489,cs),
(394,1489,o),
(347,1559,o),
(338,1633,cs),
(336,1647,o),
(336,1661,o),
(336,1673,c),
(190,1673,l),
(187,1654,o),
(185,1629,o),
(185,1601,cs),
(185,1422,o),
(321,1292,o),
(519,1292,cs)
);
}
);
width = 1038;
},
{
anchors = (
{
name = _top;
pos = (397,1110);
},
{
name = top;
pos = (397,1463);
}
);
layerId = "0E4B6E2E-ECAB-4D06-9686-B0B40AA31834";
shapes = (
{
closed = 1;
nodes = (
(577,1314,o),
(684,1441,o),
(684,1600,cs),
(684,1613,o),
(683,1628,o),
(680,1642,c),
(590,1642,l),
(590,1635,o),
(589,1624,o),
(588,1611,cs),
(581,1535,o),
(541,1441,o),
(397,1441,cs),
(253,1441,o),
(213,1535,o),
(206,1611,cs),
(205,1624,o),
(204,1635,o),
(204,1642,c),
(114,1642,l),
(111,1628,o),
(110,1613,o),
(110,1600,cs),
(110,1441,o),
(217,1314,o),
(397,1314,cs)
);
}
);
width = 794;
},
{
anchors = (
{
name = _top;
pos = (412,1005);
},
{
name = top;
pos = (412,1541);
}
);
layerId = "F2B10EEF-9DDC-48CA-970D-6B8C79870881";
shapes = (
{
closed = 1;
nodes = (
(574,1129,o),
(683,1268,o),
(683,1464,cs),
(683,1494,o),
(682,1510,o),
(679,1531,c),
(619,1531,l),
(619,1518,o),
(618,1501,o),
(614,1482,cs),
(594,1386,o),
(517,1339,o),
(412,1339,cs),
(307,1339,o),
(230,1386,o),
(210,1482,cs),
(206,1501,o),
(205,1518,o),
(205,1531,c),
(145,1531,l),
(142,1510,o),
(141,1494,o),
(141,1464,cs),
(141,1268,o),
(250,1129,o),
(412,1129,cs)
);
}
);
width = 824;
},
{
anchors = (
{
name = _top;
pos = (363,1005);
},
{
name = top;
pos = (364,1292);
}
);
layerId = "E96AC896-F5DF-475B-BBD9-C7FEC6A86D0E";
shapes = (
{
closed = 1;
nodes = (
(465,1158,o),
(586,1240,o),
(586,1386,cs),
(586,1406,o),
(585,1420,o),
(582,1441,c),
(544,1441,l),
(544,1426,o),
(543,1412,o),
(540,1400,cs),
(520,1331,o),
(462,1290,o),
(363,1290,cs),
(264,1290,o),
(206,1331,o),
(186,1400,cs),
(183,1412,o),
(182,1426,o),
(182,1441,c),
(144,1441,l),
(141,1420,o),
(140,1406,o),
(140,1386,cs),
(140,1240,o),
(261,1158,o),
(363,1158,cs)
);
}
);
width = 726;
},
{
anchors = (
{
name = _top;
pos = (397,1005);
},
{
name = top;
pos = (398,1292);
}
);
layerId = "C9B9556E-C2FD-4F62-BB40-44923C452C22";
shapes = (
{
closed = 1;
nodes = (
(519,1158,o),
(640,1240,o),
(640,1386,cs),
(640,1406,o),
(639,1420,o),
(636,1441,c),
(598,1441,l),
(598,1426,o),
(597,1412,o),
(594,1400,cs),
(574,1331,o),
(516,1290,o),
(397,1290,cs),
(278,1290,o),
(220,1331,o),
(200,1400,cs),
(197,1412,o),
(196,1426,o),
(196,1441,c),
(158,1441,l),
(155,1420,o),
(154,1406,o),
(154,1386,cs),
(154,1240,o),
(275,1158,o),
(397,1158,cs)
);
}
);
width = 794;
},
{
anchors = (
{
name = _top;
pos = (415,1005);
},
{
name = top;
pos = (415,1541);
}
);
layerId = "AFA1064D-EFC9-4C9F-B9B0-9118E41D87C4";
shapes = (
{
closed = 1;
nodes = (
(597,1129,o),
(726,1271,o),
(726,1467,cs),
(726,1497,o),
(725,1513,o),
(722,1534,c),
(662,1534,l),
(662,1521,o),
(661,1504,o),
(656,1485,cs),
(631,1389,o),
(530,1339,o),
(415,1339,cs),
(300,1339,o),
(199,1389,o),
(174,1485,cs),
(169,1504,o),
(168,1521,o),
(168,1534,c),
(108,1534,l),
(105,1513,o),
(104,1497,o),
(104,1467,cs),
(104,1271,o),
(233,1129,o),
(415,1129,cs)
);
}
);
width = 830;
},
{
anchors = (
{
name = _top;
pos = (409,1005);
},
{
name = top;
pos = (410,1292);
}
);
layerId = "2103F1D3-C390-4F79-A87D-298F85EA6916";
shapes = (
{
closed = 1;
nodes = (
(541,1158,o),
(662,1240,o),
(662,1386,cs),
(662,1406,o),
(661,1420,o),
(658,1441,c),
(620,1441,l),
(620,1426,o),
(619,1412,o),
(616,1400,cs),
(596,1331,o),
(538,1290,o),
(409,1290,cs),
(280,1290,o),
(222,1331,o),
(202,1400,cs),
(199,1412,o),
(198,1426,o),
(198,1441,c),
(160,1441,l),
(157,1420,o),
(156,1406,o),
(156,1386,cs),
(156,1240,o),
(277,1158,o),
(409,1158,cs)
);
}
);
width = 818;
},
{
anchors = (
{
name = _top;
pos = (447,1110);
},
{
name = top;
pos = (447,1463);
}
);
layerId = "779F1615-9D1A-4778-9767-9A030AA58B6C";
shapes = (
{
closed = 1;
nodes = (
(657,1314,o),
(784,1441,o),
(784,1600,cs),
(784,1613,o),
(783,1628,o),
(780,1642,c),
(690,1642,l),
(690,1635,o),
(690,1624,o),
(688,1611,cs),
(676,1535,o),
(621,1441,o),
(447,1441,cs),
(273,1441,o),
(218,1535,o),
(206,1611,cs),
(204,1624,o),
(204,1635,o),
(204,1642,c),
(114,1642,l),
(111,1628,o),
(110,1613,o),
(110,1600,cs),
(110,1441,o),
(237,1314,o),
(447,1314,cs)
);
}
);
userData = {
com.schriftgestaltung.Glyphs.lastChange = "2019-04-25 21:50:43 +0000";
};
width = 894;
},
{
anchors = (
{
name = _top;
pos = (554,1112);
},
{
name = top;
pos = (555,1523);
}
);
color = 9;
layerId = "97BB7961-D669-43AB-8BBF-11FFD0C46A4B";
shapes = (
{
closed = 1;
nodes = (
(782,1293,o),
(938,1423,o),
(938,1602,cs),
(938,1630,o),
(936,1655,o),
(933,1674,c),
(787,1674,l),
(787,1662,o),
(787,1648,o),
(785,1634,cs),
(774,1560,o),
(709,1490,o),
(554,1490,cs),
(399,1490,o),
(334,1560,o),
(323,1634,cs),
(321,1648,o),
(321,1662,o),
(321,1674,c),
(175,1674,l),
(172,1655,o),
(170,1630,o),
(170,1602,cs),
(170,1423,o),
(326,1293,o),
(554,1293,cs)
);
}
);
width = 1108;
}
);
metricLeft = hyphen;
metricRight = hyphen;
unicode = 774;
userData = {
KernOnSpecialSpacing = {
L = NoKerning;
R = NoKerning;
};
};
}
{
glyphname = hookabovecomb;
layers = (
{
anchors = (
{
name = _top;
pos = (190,1110);
},
{
name = top;
pos = (190,1774);
}
);
layerId = UUID0;
shapes = (
{
closed = 1;
nodes = (
(223,1265,ls),
(206,1318,o),
(216,1357,o),
(247,1385,cs),
(302,1434,o),
(386,1463,o),
(386,1585,cs),
(386,1710,o),
(286,1787,o),
(145,1787,cs),
(90,1787,o),
(33,1771,o),
(-6,1753,cs),
(-6,1632,ls),
(18,1645,o),
(63,1655,o),
(98,1655,cs),
(186,1655,o),
(225,1614,o),
(225,1563,cs),
(225,1477,o),
(94,1448,o),
(94,1357,cs),
(94,1318,o),
(106,1293,o),
(119,1265,cs)
);
}
);
width = 420;
},
{
anchors = (
{
name = _top;
pos = (256,1112);
},
{
name = top;
pos = (256,1803);
}
);
layerId = "DEBB1CE4-A72D-4960-969E-E04A036D2FA1";
shapes = (
{
closed = 1;
nodes = (
(341,1234,l),
(324,1295,o),
(341,1349,o),
(376,1375,cs),
(431,1419,o),
(502,1479,o),
(502,1581,cs),
(502,1698,o),
(378,1782,o),
(193,1782,cs),
(125,1782,o),
(56,1763,o),
(10,1742,c),
(17,1580,l),
(41,1599,o),
(100,1614,o),
(139,1614,cs),
(227,1614,o),
(254,1577,o),
(254,1526,c),
(254,1443,o),
(143,1426,o),
(143,1328,c),
(143,1286,o),
(155,1263,o),
(172,1234,c)
);
}
);
width = 512;
},
{
anchors = (
{
name = _top;
pos = (222,1005);
},
{
name = top;
pos = (222,1688);
}
);
layerId = "184155C8-9F61-4F1C-9784-DDA8EA717636";
shapes = (
{
closed = 1;
nodes = (
(230,1110,l),
(213,1191,o),
(229,1216,o),
(280,1252,cs),
(367,1313,o),
(433,1362,o),
(433,1456,cs),
(433,1574,o),
(295,1658,o),
(144,1658,cs),
(91,1658,o),
(45,1649,o),
(10,1634,c),
(10,1458,l),
(31,1469,o),
(63,1474,o),
(87,1474,cs),
(174,1474,o),
(215,1451,o),
(215,1392,cs),
(215,1315,o),
(135,1285,o),
(135,1213,cs),
(135,1169,o),
(153,1141,o),
(176,1110,c)
);
}
);
width = 443;
},
{
anchors = (
{
name = _top;
pos = (226,1112);
},
{
name = top;
pos = (226,1802);
}
);
layerId = "EA2265BD-E890-48C4-9E90-A53076E780C5";
shapes = (
{
closed = 1;
nodes = (
(301,1244,l),
(284,1305,o),
(293,1341,o),
(341,1381,cs),
(395,1426,o),
(442,1471,o),
(442,1560,cs),
(442,1690,o),
(318,1783,o),
(163,1783,cs),
(105,1783,o),
(56,1774,o),
(10,1754,c),
(10,1588,l),
(34,1602,o),
(65,1609,o),
(100,1609,cs),
(161,1609,o),
(204,1579,o),
(204,1530,cs),
(204,1445,o),
(113,1424,o),
(113,1336,cs),
(113,1294,o),
(125,1273,o),
(142,1244,c)
);
}
);
width = 452;
},
{
anchors = (
{
name = _top;
pos = (180,1110);
},
{
name = top;
pos = (180,1784);
}
);
layerId = "0E4B6E2E-ECAB-4D06-9686-B0B40AA31834";
shapes = (
{
closed = 1;
nodes = (
(214,1265,l),
(193,1323,o),
(195,1363,o),
(239,1399,cs),
(289,1440,o),
(350,1484,o),
(350,1591,cs),
(350,1719,o),
(248,1797,o),
(134,1797,cs),
(78,1797,o),
(45,1787,o),
(10,1769,c),
(10,1645,l),
(34,1657,o),
(58,1663,o),
(90,1663,cs),
(146,1663,o),
(191,1621,o),
(191,1569,cs),
(191,1481,o),
(82,1451,o),
(82,1359,cs),
(82,1319,o),
(94,1293,o),
(108,1265,c)
);
}
);
width = 360;
},
{
anchors = (
{
name = _top;
pos = (203,1005);
},
{
name = top;
pos = (203,1688);
}
);
layerId = "F2B10EEF-9DDC-48CA-970D-6B8C79870881";
shapes = (
{
closed = 1;
nodes = (
(216,1110,l),
(199,1191,o),
(206,1214,o),
(256,1252,cs),
(339,1315,o),
(395,1362,o),
(395,1456,cs),
(395,1574,o),
(281,1658,o),
(142,1658,cs),
(93,1658,o),
(45,1649,o),
(10,1634,c),
(10,1458,l),
(31,1469,o),
(60,1474,o),
(87,1474,cs),
(130,1474,o),
(187,1451,o),
(187,1392,cs),
(187,1315,o),
(121,1285,o),
(121,1213,cs),
(121,1169,o),
(139,1141,o),
(162,1110,c)
);
}
);
width = 405;
},
{
anchors = (
{
name = _top;
pos = (142,1005);
},
{
name = top;
pos = (142,1613);
}
);
layerId = "E96AC896-F5DF-475B-BBD9-C7FEC6A86D0E";
shapes = (
{
closed = 1;
nodes = (
(149,1127,l),
(133,1188,o),
(144,1226,o),
(174,1256,cs),
(242,1323,o),
(273,1361,o),
(273,1428,cs),
(273,1507,o),
(195,1575,o),
(107,1575,cs),
(73,1575,o),
(36,1569,o),
(10,1558,c),
(10,1453,l),
(29,1459,o),
(53,1462,o),
(76,1462,cs),
(136,1462,o),
(159,1426,o),
(159,1393,cs),
(159,1334,o),
(86,1296,o),
(86,1214,cs),
(86,1188,o),
(96,1157,o),
(111,1127,c)
);
}
);
width = 283;
},
{
anchors = (
{
name = _top;
pos = (157,1005);
},
{
name = top;
pos = (157,1613);
}
);
layerId = "C9B9556E-C2FD-4F62-BB40-44923C452C22";
shapes = (
{
closed = 1;
nodes = (
(159,1087,l),
(143,1148,o),
(151,1183,o),
(191,1216,cs),
(257,1270,o),
(303,1321,o),
(303,1388,cs),
(303,1467,o),
(230,1535,o),
(113,1535,cs),
(70,1535,o),
(45,1530,o),
(10,1518,c),
(10,1413,l),
(31,1419,o),
(58,1422,o),
(86,1422,cs),
(158,1422,o),
(183,1386,o),
(183,1353,cs),
(183,1294,o),
(96,1256,o),
(96,1174,cs),
(96,1148,o),
(106,1117,o),
(121,1087,c)
);
}
);
width = 313;
},
{
anchors = (
{
name = _top;
pos = (237,1005);
},
{
name = top;
pos = (237,1688);
}
);
layerId = "AFA1064D-EFC9-4C9F-B9B0-9118E41D87C4";
shapes = (
{
closed = 1;
nodes = (
(244,1140,l),
(227,1221,o),
(248,1247,o),
(301,1282,cs),
(394,1343,o),
(463,1392,o),
(463,1486,cs),
(463,1604,o),
(313,1688,o),
(162,1688,cs),
(99,1688,o),
(48,1679,o),
(10,1664,c),
(10,1488,l),
(31,1499,o),
(71,1504,o),
(105,1504,cs),
(167,1504,o),
(245,1481,o),
(245,1422,cs),
(245,1345,o),
(149,1315,o),
(149,1243,cs),
(149,1199,o),
(167,1171,o),
(190,1140,c)
);
}
);
width = 473;
},
{
anchors = (
{
name = _top;
pos = (172,1005);
},
{
name = top;
pos = (172,1613);
}
);
layerId = "2103F1D3-C390-4F79-A87D-298F85EA6916";
shapes = (
{
closed = 1;
nodes = (
(173,1165,l),
(157,1226,o),
(163,1264,o),
(205,1294,cs),
(280,1348,o),
(333,1393,o),
(333,1466,cs),
(333,1545,o),
(244,1613,o),
(127,1613,cs),
(84,1613,o),
(47,1608,o),
(10,1596,c),
(10,1490,l),
(34,1497,o),
(72,1500,o),
(100,1500,cs),
(178,1500,o),
(213,1464,o),
(213,1431,cs),
(213,1372,o),
(110,1334,o),
(110,1252,cs),
(110,1226,o),
(120,1195,o),
(135,1165,c)
);
}
);
width = 343;
},
{
anchors = (
{
name = _top;
pos = (230,1110);
},
{
name = top;
pos = (230,1784);
}
);
layerId = "779F1615-9D1A-4778-9767-9A030AA58B6C";
shapes = (
{
closed = 1;
nodes = (
(264,1265,l),
(246,1319,o),
(259,1365,o),
(300,1392,cs),
(355,1428,o),
(450,1467,o),
(450,1591,cs),
(450,1719,o),
(338,1797,o),
(184,1797,cs),
(116,1797,o),
(58,1785,o),
(10,1763,c),
(10,1639,l),
(40,1652,o),
(90,1663,o),
(136,1663,cs),
(236,1663,o),
(286,1621,o),
(286,1569,cs),
(286,1481,o),
(132,1451,o),
(132,1359,cs),
(132,1319,o),
(144,1293,o),
(158,1265,c)
);
}
);
userData = {
com.schriftgestaltung.Glyphs.lastChange = "2019-04-25 21:50:43 +0000";
};
width = 460;
},
{
anchors = (
{
name = _top;
pos = (276,1112);
},
{
name = top;
pos = (276,1802);
}
);
color = 9;
layerId = "97BB7961-D669-43AB-8BBF-11FFD0C46A4B";
shapes = (
{
closed = 1;
nodes = (
(351,1234,l),
(334,1295,o),
(344,1326,o),
(396,1362,cs),
(466,1411,o),
(542,1461,o),
(542,1550,cs),
(542,1680,o),
(408,1773,o),
(213,1773,cs),
(135,1773,o),
(56,1758,o),
(10,1738,c),
(10,1572,l),
(41,1588,o),
(90,1599,o),
(142,1599,cs),
(233,1599,o),
(294,1569,o),
(294,1520,cs),
(294,1435,o),
(163,1414,o),
(163,1326,cs),
(163,1284,o),
(175,1263,o),
(192,1234,c)
);
}
);
width = 552;
}
);
unicode = 777;
}
{
glyphname = verticallineabovecomb;
layers = (
{
anchors = (
{
name = _top;
pos = (90,1110);
},
{
name = top;
pos = (90,1735);
}
);
layerId = UUID0;
shapes = (
{
closed = 1;
nodes = (
(10,1735,l),
(42,1293,l),
(136,1293,l),
(170,1735,l)
);
}
);
width = 180;
},
{
anchors = (
{
name = _top;
pos = (124,1112);
},
{
name = top;
pos = (124,1717);
}
);
layerId = "DEBB1CE4-A72D-4960-969E-E04A036D2FA1";
shapes = (
{
closed = 1;
nodes = (
(21,1717,l),
(53,1245,l),
(195,1245,l),
(227,1717,l)
);
}
);
width = 248;
},
{
anchors = (
{
name = _top;
pos = (90,1110);
},
{
name = top;
pos = (90,1735);
}
);
layerId = "0E4B6E2E-ECAB-4D06-9686-B0B40AA31834";
shapes = (
{
closed = 1;
nodes = (
(18,1735,l),
(47,1293,l),
(131,1293,l),
(162,1735,l)
);
}
);
width = 180;
},
{
anchors = (
{
name = _top;
pos = (124,1112);
},
{
name = top;
pos = (124,1717);
}
);
layerId = "EA2265BD-E890-48C4-9E90-A53076E780C5";
shapes = (
{
closed = 1;
nodes = (
(31,1717,l),
(60,1245,l),
(188,1245,l),
(217,1717,l)
);
}
);
width = 248;
},
{
anchors = (
{
name = _top;
pos = (90,1110);
},
{
name = top;
pos = (90,1735);
}
);
layerId = "779F1615-9D1A-4778-9767-9A030AA58B6C";
shapes = (
{
closed = 1;
nodes = (
(10,1735,l),
(42,1293,l),
(136,1293,l),
(170,1735,l)
);
}
);
width = 180;
},
{
anchors = (
{
name = _top;
pos = (124,1112);
},
{
name = top;
pos = (124,1717);
}
);
layerId = "97BB7961-D669-43AB-8BBF-11FFD0C46A4B";
shapes = (
{
closed = 1;
nodes = (
(21,1717,l),
(53,1245,l),
(195,1245,l),
(227,1717,l)
);
}
);
width = 248;
},
{
anchors = (
{
name = _top;
pos = (94,1005);
},
{
name = top;
pos = (94,1553);
}
);
layerId = "C9B9556E-C2FD-4F62-BB40-44923C452C22";
shapes = (
{
closed = 1;
nodes = (
(26,1553,l),
(73,1143,l),
(115,1143,l),
(162,1553,l)
);
}
);
width = 188;
},
{
anchors = (
{
name = _top;
pos = (114,1005);
},
{
name = top;
pos = (114,1586);
}
);
layerId = "184155C8-9F61-4F1C-9784-DDA8EA717636";
shapes = (
{
closed = 1;
nodes = (
(20,1586,l),
(89,1125,l),
(139,1125,l),
(208,1586,l)
);
}
);
width = 228;
},
{
anchors = (
{
name = _top;
pos = (94,1005);
},
{
name = top;
pos = (94,1553);
}
);
layerId = "E96AC896-F5DF-475B-BBD9-C7FEC6A86D0E";
shapes = (
{
closed = 1;
nodes = (
(26,1553,l),
(73,1143,l),
(115,1143,l),
(162,1553,l)
);
}
);
width = 188;
},
{
anchors = (
{
name = _top;
pos = (114,1005);
},
{
name = top;
pos = (114,1586);
}
);
layerId = "F2B10EEF-9DDC-48CA-970D-6B8C79870881";
shapes = (
{
closed = 1;
nodes = (
(20,1586,l),
(89,1125,l),
(139,1125,l),
(208,1586,l)
);
}
);
width = 228;
},
{
anchors = (
{
name = _top;
pos = (94,1005);
},
{
name = top;
pos = (94,1553);
}
);
layerId = "2103F1D3-C390-4F79-A87D-298F85EA6916";
shapes = (
{
closed = 1;
nodes = (
(26,1553,l),
(73,1143,l),
(115,1143,l),
(162,1553,l)
);
}
);
width = 188;
},
{
anchors = (
{
name = _top;
pos = (114,1005);
},
{
name = top;
pos = (114,1586);
}
);
layerId = "AFA1064D-EFC9-4C9F-B9B0-9118E41D87C4";
shapes = (
{
closed = 1;
nodes = (
(20,1586,l),
(89,1125,l),
(139,1125,l),
(208,1586,l)
);
}
);
width = 228;
}
);
metricRight = "=|";
unicode = 781;
}
{
glyphname = dotbelowcomb;
layers = (
{
anchors = (
{
name = _bottom;
pos = (129,0);
},
{
name = bottom;
pos = (129,-424);
}
);
layerId = UUID0;
shapes = (
{
closed = 1;
nodes = (
(114,-394,ls),
(199,-394,o),
(239,-328,o),
(239,-263,cs),
(239,-198,o),
(201,-148,o),
(128,-148,cs),
(126,-148,ls),
(41,-148,o),
(1,-214,o),
(1,-279,cs),
(1,-344,o),
(39,-394,o),
(112,-394,cs)
);
}
);
width = 258;
},
{
anchors = (
{
name = _bottom;
pos = (202,0);
},
{
name = bottom;
pos = (202,-486);
}
);
layerId = "DEBB1CE4-A72D-4960-969E-E04A036D2FA1";
shapes = (
{
closed = 1;
nodes = (
(194,-466,ls),
(329,-466,o),
(394,-380,o),
(394,-275,cs),
(394,-192,o),
(334,-113,o),
(212,-113,cs),
(210,-113,ls),
(75,-113,o),
(10,-199,o),
(10,-304,cs),
(10,-387,o),
(70,-466,o),
(192,-466,cs)
);
}
);
width = 404;
},
{
anchors = (
{
name = _bottom;
pos = (192,0);
},
{
name = bottom;
pos = (192,-475);
}
);
layerId = "184155C8-9F61-4F1C-9784-DDA8EA717636";
shapes = (
{
closed = 1;
nodes = (
(179,-445,ls),
(302,-445,o),
(374,-360,o),
(374,-257,cs),
(374,-170,o),
(315,-99,o),
(207,-99,cs),
(205,-99,ls),
(82,-99,o),
(10,-183,o),
(10,-287,cs),
(10,-374,o),
(69,-445,o),
(177,-445,cs)
);
}
);
width = 384;
},
{
anchors = (
{
name = _bottom;
pos = (202,0);
},
{
name = bottom;
pos = (202,-486);
}
);
layerId = "EA2265BD-E890-48C4-9E90-A53076E780C5";
shapes = (
{
closed = 1;
nodes = (
(194,-466,ls),
(329,-466,o),
(394,-380,o),
(394,-275,cs),
(394,-192,o),
(334,-113,o),
(212,-113,cs),
(210,-113,ls),
(75,-113,o),
(10,-199,o),
(10,-304,cs),
(10,-387,o),
(70,-466,o),
(192,-466,cs)
);
}
);
width = 404;
},
{
anchors = (
{
name = _bottom;
pos = (129,0);
},
{
name = bottom;
pos = (129,-424);
}
);
layerId = "0E4B6E2E-ECAB-4D06-9686-B0B40AA31834";
shapes = (
{
closed = 1;
nodes = (
(123,-394,ls),
(208,-394,o),
(248,-328,o),
(248,-263,cs),
(248,-198,o),
(210,-148,o),
(137,-148,cs),
(135,-148,ls),
(50,-148,o),
(10,-214,o),
(10,-279,cs),
(10,-344,o),
(48,-394,o),
(121,-394,cs)
);
}
);
width = 258;
},
{
anchors = (
{
name = _bottom;
pos = (187,0);
},
{
name = bottom;
pos = (187,-475);
}
);
layerId = "F2B10EEF-9DDC-48CA-970D-6B8C79870881";
shapes = (
{
closed = 1;
nodes = (
(174,-445,ls),
(292,-445,o),
(364,-360,o),
(364,-257,cs),
(364,-170,o),
(305,-99,o),
(202,-99,cs),
(200,-99,ls),
(82,-99,o),
(10,-183,o),
(10,-287,cs),
(10,-374,o),
(69,-445,o),
(172,-445,cs)
);
}
);
width = 374;
},
{
anchors = (
{
name = _bottom;
pos = (113,0);
},
{
name = bottom;
pos = (113,-402);
}
);
layerId = "E96AC896-F5DF-475B-BBD9-C7FEC6A86D0E";
shapes = (
{
closed = 1;
nodes = (
(108,-352,ls),
(159,-352,o),
(216,-304,o),
(216,-227,cs),
(216,-149,o),
(169,-118,o),
(120,-118,cs),
(118,-118,ls),
(67,-118,o),
(10,-166,o),
(10,-243,cs),
(10,-321,o),
(57,-352,o),
(106,-352,cs)
);
}
);
width = 226;
},
{
anchors = (
{
name = _bottom;
pos = (113,0);
},
{
name = bottom;
pos = (113,-402);
}
);
layerId = "C9B9556E-C2FD-4F62-BB40-44923C452C22";
shapes = (
{
closed = 1;
nodes = (
(108,-352,ls),
(159,-352,o),
(216,-304,o),
(216,-227,cs),
(216,-149,o),
(169,-118,o),
(120,-118,cs),
(118,-118,ls),
(67,-118,o),
(10,-166,o),
(10,-243,cs),
(10,-321,o),
(57,-352,o),
(106,-352,cs)
);
}
);
width = 226;
},
{
anchors = (
{
name = _bottom;
pos = (200,0);
},
{
name = bottom;
pos = (200,-475);
}
);
layerId = "AFA1064D-EFC9-4C9F-B9B0-9118E41D87C4";
shapes = (
{
closed = 1;
nodes = (
(187,-445,ls),
(318,-445,o),
(390,-360,o),
(390,-257,cs),
(390,-170,o),
(331,-99,o),
(215,-99,cs),
(213,-99,ls),
(82,-99,o),
(10,-183,o),
(10,-287,cs),
(10,-374,o),
(69,-445,o),
(185,-445,cs)
);
}
);
width = 400;
},
{
anchors = (
{
name = _bottom;
pos = (113,0);
},
{
name = bottom;
pos = (113,-402);
}
);
layerId = "2103F1D3-C390-4F79-A87D-298F85EA6916";
shapes = (
{
closed = 1;
nodes = (
(108,-352,ls),
(159,-352,o),
(216,-304,o),
(216,-227,cs),
(216,-149,o),
(169,-118,o),
(120,-118,cs),
(118,-118,ls),
(67,-118,o),
(10,-166,o),
(10,-243,cs),
(10,-321,o),
(57,-352,o),
(106,-352,cs)
);
}
);
width = 226;
},
{
anchors = (
{
name = _bottom;
pos = (129,0);
},
{
name = bottom;
pos = (129,-424);
}
);
layerId = "779F1615-9D1A-4778-9767-9A030AA58B6C";
shapes = (
{
closed = 1;
nodes = (
(123,-394,ls),
(208,-394,o),
(248,-328,o),
(248,-263,cs),
(248,-198,o),
(210,-148,o),
(137,-148,cs),
(135,-148,ls),
(50,-148,o),
(10,-214,o),
(10,-279,cs),
(10,-344,o),
(48,-394,o),
(121,-394,cs)
);
}
);
userData = {
com.schriftgestaltung.Glyphs.lastChange = "2019-04-25 21:50:43 +0000";
};
width = 258;
},
{
anchors = (
{
name = _bottom;
pos = (202,0);
},
{
name = bottom;
pos = (202,-486);
}
);
color = 9;
layerId = "97BB7961-D669-43AB-8BBF-11FFD0C46A4B";
shapes = (
{
closed = 1;
nodes = (
(194,-466,ls),
(329,-466,o),
(394,-380,o),
(394,-275,cs),
(394,-192,o),
(334,-113,o),
(212,-113,cs),
(210,-113,ls),
(75,-113,o),
(10,-199,o),
(10,-304,cs),
(10,-387,o),
(70,-466,o),
(192,-466,cs)
);
}
);
width = 404;
}
);
unicode = 803;
}
{
glyphname = commaaccentcomb;
layers = (
{
anchors = (
{
name = _bottom;
pos = (119,0);
},
{
name = bottom;
pos = (119,-556);
}
);
layerId = UUID0;
shapes = (
{
closed = 1;
nodes = (
(228,-184,o),
(180,-128,o),
(106,-128,cs),
(102,-128,ls),
(74,-128,o),
(10,-142,o),
(10,-216,cs),
(10,-258,o),
(28,-276,o),
(48,-290,cs),
(68,-304,o),
(90,-322,o),
(90,-362,cs),
(90,-404,o),
(62,-466,o),
(22,-486,c),
(22,-498,l),
(76,-536,l),
(78,-536,l),
(100,-528,o),
(228,-430,o),
(228,-288,cs)
);
}
);
width = 238;
},
{
anchors = (
{
name = _bottom;
pos = (168,0);
},
{
name = bottom;
pos = (159,-546);
}
);
layerId = "DEBB1CE4-A72D-4960-969E-E04A036D2FA1";
shapes = (
{
closed = 1;
nodes = (
(331,-163,o),
(261,-107,o),
(161,-107,cs),
(154,-107,ls),
(107,-107,o),
(8,-137,o),
(8,-221,cs),
(8,-271,o),
(34,-295,o),
(56,-310,cs),
(75,-323,o),
(97,-339,o),
(97,-381,cs),
(97,-410,o),
(60,-474,o),
(27,-487,c),
(31,-502,l),
(122,-545,l),
(126,-545,l),
(206,-502,o),
(328,-388,o),
(330,-258,cs)
);
}
);
width = 318;
},
{
anchors = (
{
name = _bottom;
pos = (163,0);
},
{
name = bottom;
pos = (163,-546);
}
);
layerId = "184155C8-9F61-4F1C-9784-DDA8EA717636";
shapes = (
{
closed = 1;
nodes = (
(316,-155,o),
(244,-86,o),
(157,-86,cs),
(150,-86,ls),
(89,-86,o),
(10,-131,o),
(10,-214,cs),
(10,-254,o),
(33,-285,o),
(70,-309,cs),
(117,-339,o),
(127,-355,o),
(127,-396,cs),
(127,-430,o),
(108,-472,o),
(70,-507,c),
(70,-515,l),
(112,-539,l),
(114,-539,l),
(189,-494,o),
(316,-384,o),
(316,-252,cs)
);
}
);
width = 326;
},
{
anchors = (
{
name = _bottom;
pos = (159,0);
},
{
name = bottom;
pos = (159,-604);
}
);
layerId = "EA2265BD-E890-48C4-9E90-A53076E780C5";
shapes = (
{
closed = 1;
nodes = (
(321,-163,o),
(252,-107,o),
(161,-107,cs),
(153,-107,ls),
(107,-107,o),
(14,-132,o),
(14,-216,cs),
(14,-266,o),
(34,-295,o),
(57,-310,cs),
(75,-323,o),
(97,-339,o),
(97,-381,cs),
(97,-410,o),
(60,-474,o),
(28,-487,c),
(32,-502,l),
(122,-545,l),
(125,-545,l),
(204,-502,o),
(318,-388,o),
(320,-258,cs)
);
}
);
width = 334;
},
{
anchors = (
{
name = _bottom;
pos = (119,0);
},
{
name = bottom;
pos = (119,-556);
}
);
layerId = "0E4B6E2E-ECAB-4D06-9686-B0B40AA31834";
shapes = (
{
closed = 1;
nodes = (
(228,-184,o),
(180,-128,o),
(106,-128,cs),
(102,-128,ls),
(74,-128,o),
(10,-142,o),
(10,-216,cs),
(10,-258,o),
(28,-276,o),
(48,-290,cs),
(68,-304,o),
(90,-322,o),
(90,-362,cs),
(90,-404,o),
(62,-466,o),
(22,-486,c),
(22,-498,l),
(76,-536,l),
(78,-536,l),
(100,-528,o),
(228,-430,o),
(228,-288,cs)
);
}
);
width = 238;
},
{
anchors = (
{
name = _bottom;
pos = (163,0);
},
{
name = bottom;
pos = (163,-546);
}
);
layerId = "F2B10EEF-9DDC-48CA-970D-6B8C79870881";
shapes = (
{
closed = 1;
nodes = (
(302,-155,o),
(244,-86,o),
(157,-86,cs),
(150,-86,ls),
(89,-86,o),
(22,-131,o),
(22,-214,cs),
(22,-254,o),
(37,-287,o),
(76,-309,cs),
(120,-334,o),
(127,-355,o),
(127,-396,cs),
(127,-430,o),
(108,-472,o),
(70,-507,c),
(70,-515,l),
(111,-539,l),
(113,-539,l),
(188,-494,o),
(302,-384,o),
(302,-252,cs)
);
}
);
width = 306;
},
{
anchors = (
{
name = _bottom;
pos = (106,0);
},
{
name = bottom;
pos = (106,-479);
}
);
layerId = "E96AC896-F5DF-475B-BBD9-C7FEC6A86D0E";
shapes = (
{
closed = 1;
nodes = (
(199,-146,o),
(163,-93,o),
(104,-93,cs),
(98,-93,ls),
(44,-93,o),
(15,-134,o),
(15,-175,cs),
(15,-209,o),
(29,-228,o),
(50,-245,cs),
(88,-275,o),
(91,-306,o),
(91,-329,cs),
(91,-352,o),
(79,-401,o),
(48,-447,c),
(48,-451,l),
(72,-466,l),
(74,-466,l),
(134,-417,o),
(199,-289,o),
(199,-209,cs)
);
}
);
width = 212;
},
{
anchors = (
{
name = _bottom;
pos = (106,0);
},
{
name = bottom;
pos = (106,-479);
}
);
layerId = "C9B9556E-C2FD-4F62-BB40-44923C452C22";
shapes = (
{
closed = 1;
nodes = (
(202,-170,o),
(163,-117,o),
(104,-117,cs),
(98,-117,ls),
(44,-117,o),
(10,-158,o),
(10,-199,cs),
(10,-233,o),
(29,-252,o),
(50,-269,cs),
(88,-299,o),
(91,-330,o),
(91,-353,cs),
(91,-376,o),
(79,-425,o),
(48,-471,c),
(48,-475,l),
(72,-490,l),
(74,-490,l),
(134,-441,o),
(202,-313,o),
(202,-233,cs)
);
}
);
width = 212;
},
{
anchors = (
{
name = _bottom;
pos = (173,0);
},
{
name = bottom;
pos = (173,-543);
}
);
layerId = "AFA1064D-EFC9-4C9F-B9B0-9118E41D87C4";
shapes = (
{
closed = 1;
nodes = (
(337,-155,o),
(275,-86,o),
(168,-86,cs),
(161,-86,ls),
(80,-86,o),
(11,-131,o),
(11,-218,cs),
(11,-258,o),
(31,-293,o),
(76,-316,cs),
(123,-340,o),
(135,-355,o),
(135,-396,cs),
(135,-430,o),
(106,-476,o),
(68,-511,c),
(68,-519,l),
(111,-543,l),
(113,-543,l),
(188,-501,o),
(337,-388,o),
(337,-256,cs)
);
}
);
width = 346;
},
{
anchors = (
{
name = _bottom;
pos = (106,0);
},
{
name = bottom;
pos = (106,-479);
}
);
layerId = "2103F1D3-C390-4F79-A87D-298F85EA6916";
shapes = (
{
closed = 1;
nodes = (
(202,-146,o),
(163,-93,o),
(104,-93,cs),
(98,-93,ls),
(44,-93,o),
(10,-134,o),
(10,-175,cs),
(10,-209,o),
(29,-228,o),
(50,-245,cs),
(88,-275,o),
(91,-306,o),
(91,-329,cs),
(91,-352,o),
(79,-401,o),
(48,-447,c),
(48,-451,l),
(72,-466,l),
(74,-466,l),
(134,-417,o),
(202,-289,o),
(202,-209,cs)
);
}
);
width = 212;
},
{
anchors = (
{
name = _bottom;
pos = (119,0);
},
{
name = bottom;
pos = (119,-556);
}
);
layerId = "779F1615-9D1A-4778-9767-9A030AA58B6C";
shapes = (
{
closed = 1;
nodes = (
(230,-184,o),
(182,-128,o),
(108,-128,cs),
(104,-128,ls),
(76,-128,o),
(10,-142,o),
(10,-216,cs),
(10,-258,o),
(28,-276,o),
(48,-290,cs),
(68,-304,o),
(90,-322,o),
(90,-362,cs),
(90,-404,o),
(62,-466,o),
(22,-486,c),
(22,-498,l),
(76,-536,l),
(78,-536,l),
(100,-528,o),
(230,-430,o),
(230,-288,cs)
);
}
);
userData = {
com.schriftgestaltung.Glyphs.lastChange = "2019-04-25 21:50:43 +0000";
};
width = 238;
},
{
anchors = (
{
name = _bottom;
pos = (159,0);
},
{
name = bottom;
pos = (159,-546);
}
);
color = 9;
layerId = "97BB7961-D669-43AB-8BBF-11FFD0C46A4B";
shapes = (
{
closed = 1;
nodes = (
(325,-163,o),
(255,-107,o),
(157,-107,cs),
(144,-107,ls),
(98,-107,o),
(-1,-137,o),
(-1,-221,cs),
(-1,-271,o),
(25,-295,o),
(47,-310,cs),
(66,-323,o),
(88,-339,o),
(88,-381,cs),
(88,-410,o),
(50,-474,o),
(18,-487,c),
(23,-502,l),
(118,-545,l),
(121,-545,l),
(201,-502,o),
(322,-388,o),
(324,-258,cs)
);
}
);
width = 334;
}
);
unicode = 806;
userData = {
KernOnSpecialSpacing = {
L = NoKerning;
R = NoKerning;
};
};
}
{
color = 8;
glyphname = breveinverteddoublecomb;
layers = (
{
background = {
shapes = (
{
closed = 1;
nodes = (
(838,1929,o),
(461,1966,o),
(105,1966,cs),
(-165,1966,o),
(-534,1909,o),
(-604,1638,c),
(-524,1638,l),
(-454,1776,o),
(-149,1839,o),
(105,1839,cs),
(462,1839,o),
(758,1815,o),
(908,1678,c),
(988,1678,l)
);
}
);
};
layerId = UUID0;
shapes = (
{
closed = 1;
nodes = (
(-371,1297,l),
(-321,1494,o),
(-159,1578,o),
(-1,1578,cs),
(153,1578,o),
(320,1495,o),
(370,1297,c),
(454,1297,l),
(414,1568,o),
(199,1701,o),
(-1,1701,cs),
(-208,1701,o),
(-415,1568,o),
(-455,1297,c)
);
}
);
width = 0;
},
{
background = {
shapes = (
{
closed = 1;
nodes = (
(1368,1581,o),
(1061,1684,o),
(724,1684,cs),
(384,1684,o),
(89,1581,o),
(39,1310,c),
(173,1310,l),
(213,1468,o),
(470,1506,o),
(724,1506,cs),
(982,1506,o),
(1224,1457,o),
(1274,1310,c),
(1408,1310,l)
);
}
);
};
layerId = "DEBB1CE4-A72D-4960-969E-E04A036D2FA1";
shapes = (
{
closed = 1;
nodes = (
(-411,1297,l),
(-381,1444,o),
(-239,1503,o),
(-1,1503,cs),
(233,1503,o),
(380,1445,o),
(410,1297,c),
(524,1297,l),
(504,1548,o),
(269,1709,o),
(-1,1709,cs),
(-268,1709,o),
(-505,1548,o),
(-525,1297,c)
);
}
);
width = 0;
},
{
layerId = "0E4B6E2E-ECAB-4D06-9686-B0B40AA31834";
shapes = (
{
closed = 1;
nodes = (
(-351,1297,l),
(-301,1494,o),
(-139,1578,o),
(-1,1578,cs),
(133,1578,o),
(300,1495,o),
(350,1297,c),
(434,1297,l),
(394,1568,o),
(179,1701,o),
(-1,1701,cs),
(-188,1701,o),
(-395,1568,o),
(-435,1297,c)
);
}
);
width = 0;
},
{
background = {
shapes = (
{
closed = 1;
nodes = (
(-351,1310,l),
(-301,1457,o),
(-149,1516,o),
(-1,1516,cs),
(143,1516,o),
(300,1458,o),
(350,1310,c),
(464,1310,l),
(424,1561,o),
(209,1722,o),
(-1,1722,cs),
(-208,1722,o),
(-425,1561,o),
(-465,1310,c)
);
}
);
};
layerId = "EA2265BD-E890-48C4-9E90-A53076E780C5";
shapes = (
{
closed = 1;
nodes = (
(-391,1297,l),
(-361,1444,o),
(-219,1503,o),
(-1,1503,cs),
(213,1503,o),
(360,1445,o),
(390,1297,c),
(504,1297,l),
(484,1548,o),
(249,1709,o),
(-1,1709,cs),
(-248,1709,o),
(-485,1548,o),
(-505,1297,c)
);
}
);
width = 0;
},
{
layerId = "779F1615-9D1A-4778-9767-9A030AA58B6C";
shapes = (
{
closed = 1;
nodes = (
(-381,1297,l),
(-331,1494,o),
(-169,1578,o),
(-1,1578,cs),
(163,1578,o),
(330,1495,o),
(380,1297,c),
(464,1297,l),
(424,1568,o),
(209,1701,o),
(-1,1701,cs),
(-218,1701,o),
(-425,1568,o),
(-465,1297,c)
);
}
);
width = 0;
},
{
layerId = "97BB7961-D669-43AB-8BBF-11FFD0C46A4B";
shapes = (
{
closed = 1;
nodes = (
(-401,1297,l),
(-351,1444,o),
(-199,1503,o),
(-1,1503,cs),
(193,1503,o),
(350,1445,o),
(400,1297,c),
(514,1297,l),
(474,1548,o),
(259,1709,o),
(-1,1709,cs),
(-258,1709,o),
(-475,1548,o),
(-515,1297,c)
);
}
);
width = 0;
},
{
background = {
shapes = (
{
closed = 1;
nodes = (
(486,1979,o),
(197,2046,o),
(0,2046,cs),
(-202,2046,o),
(-486,1979,o),
(-620,1718,c),
(-565,1718,l),
(-446,1875,o),
(-239,1919,o),
(0,1919,cs),
(234,1919,o),
(446,1875,o),
(565,1718,c),
(620,1718,l)
);
}
);
};
layerId = "C9B9556E-C2FD-4F62-BB40-44923C452C22";
shapes = (
{
closed = 1;
nodes = (
(-421,1157,l),
(-371,1354,o),
(-149,1438,o),
(-1,1438,cs),
(144,1438,o),
(371,1355,o),
(421,1157,c),
(455,1157,l),
(415,1428,o),
(190,1561,o),
(-1,1561,cs),
(-198,1561,o),
(-415,1428,o),
(-455,1157,c)
);
}
);
width = 0;
},
{
layerId = "184155C8-9F61-4F1C-9784-DDA8EA717636";
shapes = (
{
closed = 1;
nodes = (
(-470,1153,l),
(-420,1350,o),
(-181,1434,o),
(-4,1434,cs),
(170,1434,o),
(420,1351,o),
(470,1153,c),
(504,1153,l),
(464,1484,o),
(216,1627,o),
(-4,1627,cs),
(-230,1627,o),
(-464,1484,o),
(-504,1153,c)
);
}
);
width = 0;
},
{
layerId = "E96AC896-F5DF-475B-BBD9-C7FEC6A86D0E";
shapes = (
{
closed = 1;
nodes = (
(-391,1157,l),
(-341,1354,o),
(-139,1438,o),
(-1,1438,cs),
(134,1438,o),
(341,1355,o),
(391,1157,c),
(425,1157,l),
(385,1428,o),
(180,1561,o),
(-1,1561,cs),
(-188,1561,o),
(-385,1428,o),
(-425,1157,c)
);
}
);
width = 0;
},
{
layerId = "F2B10EEF-9DDC-48CA-970D-6B8C79870881";
shapes = (
{
closed = 1;
nodes = (
(-460,1153,l),
(-410,1350,o),
(-181,1434,o),
(-4,1434,cs),
(170,1434,o),
(410,1351,o),
(460,1153,c),
(494,1153,l),
(454,1484,o),
(216,1627,o),
(-4,1627,cs),
(-230,1627,o),
(-454,1484,o),
(-494,1153,c)
);
}
);
width = 0;
},
{
layerId = "2103F1D3-C390-4F79-A87D-298F85EA6916";
shapes = (
{
closed = 1;
nodes = (
(-431,1157,l),
(-381,1354,o),
(-159,1438,o),
(-1,1438,cs),
(154,1438,o),
(381,1355,o),
(431,1157,c),
(465,1157,l),
(425,1428,o),
(200,1561,o),
(-1,1561,cs),
(-208,1561,o),
(-425,1428,o),
(-465,1157,c)
);
}
);
width = 0;
},
{
layerId = "AFA1064D-EFC9-4C9F-B9B0-9118E41D87C4";
shapes = (
{
closed = 1;
nodes = (
(-493,1153,l),
(-443,1350,o),
(-197,1434,o),
(-4,1434,cs),
(190,1434,o),
(447,1351,o),
(497,1153,c),
(531,1153,l),
(491,1484,o),
(236,1627,o),
(-4,1627,cs),
(-246,1627,o),
(-487,1484,o),
(-527,1153,c)
);
}
);
width = 0;
}
);
unicode = 865;
}
{
glyphname = "Ka-cy";
layers = (
{
anchors = (
{
name = bottomright;
pos = (1365,0);
},
{
name = center;
pos = (353,1100);
},
{
name = top;
pos = (740,1516);
}
);
layerId = UUID0;
shapes = (
{
closed = 1;
nodes = (
(599,0,l),
(599,85,l),
(425,107,l),
(425,704,l),
(578,704,ls),
(648,704,o),
(742,571,o),
(836,421,cs),
(958,225,o),
(1084,0,o),
(1162,0,c),
(1359,0,l),
(1359,87,l),
(1274,108,ls),
(1196,127,o),
(1046,411,o),
(899,607,cs),
(836,690,o),
(781,754,o),
(726,779,c),
(1178,1375,l),
(1333,1399,l),
(1333,1486,l),
(869,1486,l),
(869,1399,l),
(1035,1375,l),
(615,793,l),
(425,793,l),
(425,1377,l),
(599,1399,l),
(599,1486,l),
(96,1486,l),
(96,1399,l),
(262,1377,l),
(262,107,l),
(96,89,l),
(96,0,l)
);
}
);
width = 1385;
},
{
anchors = (
{
name = bottomright;
pos = (1497,0);
},
{
name = center;
pos = (393,1100);
},
{
name = top;
pos = (817,1506);
}
);
layerId = "DEBB1CE4-A72D-4960-969E-E04A036D2FA1";
shapes = (
{
closed = 1;
nodes = (
(747,0,l),
(747,131,l),
(567,155,l),
(567,697,l),
(638,697,ls),
(730,697,o),
(805,565,o),
(868,415,cs),
(949,222,o),
(1029,0,o),
(1119,0,c),
(1472,0,l),
(1472,133,l),
(1397,156,ls),
(1335,175,o),
(1269,348,o),
(1166,525,cs),
(1096,648,o),
(1005,773,o),
(892,808,c),
(1267,1317,l),
(1437,1346,l),
(1437,1486,l),
(889,1486,l),
(889,1346,l),
(1030,1319,l),
(704,820,l),
(567,820,l),
(567,1317,l),
(715,1346,l),
(715,1486,l),
(79,1486,l),
(79,1346,l),
(227,1317,l),
(227,155,l),
(79,133,l),
(79,0,l)
);
}
);
width = 1511;
},
{
anchors = (
{
name = bottomright;
pos = (1480,0);
},
{
name = center;
pos = (353,1120);
},
{
name = top;
pos = (758,1486);
}
);
layerId = "184155C8-9F61-4F1C-9784-DDA8EA717636";
shapes = (
{
closed = 1;
nodes = (
(694,0,l),
(694,38,l),
(539,72,l),
(539,744,l),
(608,744,ls),
(667,744,o),
(724,590,o),
(793,422,cs),
(876,221,o),
(955,0,o),
(1053,0,cs),
(1462,0,l),
(1462,38,l),
(1397,61,ls),
(1332,84,o),
(1215,351,o),
(1124,553,cs),
(1027,769,o),
(973,807,o),
(796,810,c),
(1231,1412,l),
(1393,1450,l),
(1393,1486,l),
(928,1486,l),
(928,1450,l),
(1114,1412,l),
(717,810,l),
(539,810,l),
(539,1412,l),
(693,1450,l),
(693,1486,l),
(23,1486,l),
(23,1450,l),
(156,1412,l),
(156,72,l),
(22,38,l),
(22,0,l)
);
}
);
width = 1462;
},
{
anchors = (
{
name = bottomright;
pos = (1383,0);
},
{
name = center;
pos = (343,1100);
},
{
name = top;
pos = (701,1506);
}
);
layerId = "EA2265BD-E890-48C4-9E90-A53076E780C5";
shapes = (
{
closed = 1;
nodes = (
(677,0,l),
(677,131,l),
(500,155,l),
(500,697,l),
(543,697,ls),
(629,697,o),
(701,569,o),
(758,426,cs),
(836,231,o),
(890,0,o),
(982,0,cs),
(1306,0,l),
(1306,133,l),
(1255,156,ls),
(1182,189,o),
(1099,504,o),
(965,672,cs),
(891,765,o),
(823,797,o),
(779,809,c),
(1127,1317,l),
(1272,1346,l),
(1272,1486,l),
(774,1486,l),
(774,1346,l),
(889,1319,l),
(593,820,l),
(500,820,l),
(500,1317,l),
(623,1346,l),
(623,1486,l),
(48,1486,l),
(48,1346,l),
(172,1317,l),
(172,155,l),
(48,133,l),
(48,0,l)
);
}
);
width = 1351;
},
{
anchors = (
{
name = bottomright;
pos = (1154,0);
},
{
name = center;
pos = (273,1100);
},
{
name = top;
pos = (602,1516);
}
);
layerId = "0E4B6E2E-ECAB-4D06-9686-B0B40AA31834";
shapes = (
{
closed = 1;
nodes = (
(512,0,l),
(512,85,l),
(357,107,l),
(357,704,l),
(437,704,ls),
(503,704,o),
(581,574,o),
(665,426,cs),
(775,229,o),
(886,0,o),
(957,0,c),
(1137,0,l),
(1137,87,l),
(1085,105,ls),
(1022,130,o),
(901,369,o),
(777,568,cs),
(711,674,o),
(633,759,o),
(586,784,c),
(987,1377,l),
(1113,1399,l),
(1113,1486,l),
(694,1486,l),
(694,1399,l),
(849,1377,l),
(477,793,l),
(357,793,l),
(357,1377,l),
(508,1399,l),
(508,1486,l),
(58,1486,l),
(58,1399,l),
(198,1377,l),
(198,107,l),
(58,89,l),
(58,0,l)
);
}
);
width = 1157;
},
{
anchors = (
{
name = bottomright;
pos = (1356,0);
},
{
name = center;
pos = (323,1120);
},
{
name = top;
pos = (734,1486);
}
);
color = 5;
layerId = "F2B10EEF-9DDC-48CA-970D-6B8C79870881";
shapes = (
{
closed = 1;
nodes = (
(624,0,l),
(624,38,l),
(502,72,l),
(502,744,l),
(556,744,ls),
(622,744,o),
(670,593,o),
(727,428,cs),
(798,225,o),
(851,0,o),
(938,0,cs),
(1332,0,l),
(1332,38,l),
(1268,60,ls),
(1205,82,o),
(1134,336,o),
(1038,555,cs),
(947,764,o),
(870,811,o),
(737,811,c),
(1083,1412,l),
(1233,1450,l),
(1233,1486,l),
(816,1486,l),
(816,1450,l),
(970,1412,l),
(682,811,l),
(502,810,l),
(502,1412,l),
(623,1450,l),
(623,1486,l),
(41,1486,l),
(41,1450,l),
(152,1412,l),
(152,72,l),
(40,38,l),
(40,0,l)
);
}
);
width = 1342;
},
{
anchors = (
{
name = bottomright;
pos = (1172,0);
},
{
name = center;
pos = (263,1120);
},
{
name = top;
pos = (590,1516);
}
);
layerId = "E96AC896-F5DF-475B-BBD9-C7FEC6A86D0E";
shapes = (
{
closed = 1;
nodes = (
(469,0,l),
(469,36,l),
(322,66,l),
(322,719,l),
(418,719,ls),
(480,719,o),
(556,579,o),
(636,430,cs),
(748,222,o),
(841,0,o),
(931,0,cs),
(1111,0,l),
(1111,36,l),
(1052,67,ls),
(988,101,o),
(881,304,o),
(757,511,cs),
(688,627,o),
(631,749,o),
(557,768,c),
(965,1420,l),
(1093,1450,l),
(1093,1486,l),
(698,1486,l),
(698,1450,l),
(852,1420,l),
(486,781,l),
(322,781,l),
(322,1420,l),
(465,1450,l),
(465,1486,l),
(38,1486,l),
(38,1450,l),
(170,1420,l),
(170,66,l),
(38,36,l),
(38,0,l)
);
}
);
width = 1172;
},
{
anchors = (
{
name = bottomright;
pos = (1239,0);
},
{
name = center;
pos = (253,1120);
},
{
name = top;
pos = (637,1516);
}
);
layerId = "C9B9556E-C2FD-4F62-BB40-44923C452C22";
shapes = (
{
closed = 1;
nodes = (
(476,0,l),
(476,36,l),
(332,66,l),
(332,719,l),
(470,719,ls),
(547,719,o),
(653,524,o),
(740,370,cs),
(854,168,o),
(936,0,o),
(991,0,cs),
(1214,0,l),
(1214,36,l),
(1141,54,ls),
(1090,67,o),
(1010,212,o),
(898,402,cs),
(779,604,o),
(680,773,o),
(586,773,c),
(1062,1420,l),
(1190,1450,l),
(1190,1486,l),
(785,1486,l),
(785,1450,l),
(939,1420,l),
(509,781,l),
(332,781,l),
(332,1420,l),
(492,1450,l),
(492,1486,l),
(38,1486,l),
(38,1450,l),
(176,1420,l),
(176,66,l),
(38,36,l),
(38,0,l)
);
}
);
width = 1224;
},
{
anchors = (
{
name = bottomright;
pos = (1558,0);
},
{
name = center;
pos = (363,1120);
},
{
name = top;
pos = (834,1486);
}
);
layerId = "AFA1064D-EFC9-4C9F-B9B0-9118E41D87C4";
shapes = (
{
closed = 1;
nodes = (
(710,0,l),
(710,38,l),
(556,72,l),
(556,744,l),
(669,744,ls),
(738,744,o),
(792,579,o),
(859,411,cs),
(940,210,o),
(996,0,o),
(1106,0,cs),
(1538,0,l),
(1538,38,l),
(1466,60,ls),
(1398,79,o),
(1295,346,o),
(1186,556,cs),
(1101,730,o),
(1025,804,o),
(903,810,c),
(1289,1412,l),
(1464,1450,l),
(1464,1486,l),
(999,1486,l),
(999,1450,l),
(1180,1412,l),
(832,810,l),
(556,810,l),
(556,1412,l),
(709,1450,l),
(709,1486,l),
(19,1486,l),
(19,1450,l),
(152,1412,l),
(152,72,l),
(18,38,l),
(18,0,l)
);
}
);
width = 1538;
},
{
anchors = (
{
name = bottomright;
pos = (1311,0);
},
{
name = center;
pos = (262,1120);
},
{
name = top;
pos = (673,1516);
}
);
layerId = "2103F1D3-C390-4F79-A87D-298F85EA6916";
shapes = (
{
closed = 1;
nodes = (
(492,0,l),
(492,36,l),
(341,66,l),
(341,719,l),
(409,719,ls),
(484,719,o),
(582,583,o),
(681,434,cs),
(815,232,o),
(922,0,o),
(1019,0,cs),
(1223,0,l),
(1223,36,l),
(1159,55,ls),
(1081,78,o),
(935,340,o),
(789,541,cs),
(715,643,o),
(652,731,o),
(580,765,c),
(1069,1420,l),
(1207,1450,l),
(1207,1486,l),
(802,1486,l),
(802,1450,l),
(946,1420,l),
(510,781,l),
(341,781,l),
(341,1420,l),
(501,1450,l),
(501,1486,l),
(34,1486,l),
(34,1450,l),
(181,1420,l),
(181,66,l),
(34,36,l),
(34,0,l)
);
}
);
width = 1240;
},
{
anchors = (
{
name = bottomright;
pos = (1415,0);
},
{
name = center;
pos = (333,1100);
},
{
name = top;
pos = (753,1516);
}
);
layerId = "779F1615-9D1A-4778-9767-9A030AA58B6C";
shapes = (
{
closed = 1;
nodes = (
(576,0,l),
(576,85,l),
(398,107,l),
(398,704,l),
(568,704,ls),
(652,704,o),
(777,534,o),
(873,384,cs),
(997,191,o),
(1121,0,o),
(1201,0,c),
(1393,0,l),
(1393,87,l),
(1316,108,ls),
(1235,130,o),
(1081,366,o),
(939,566,cs),
(867,668,o),
(795,754,o),
(719,783,c),
(1226,1377,l),
(1379,1399,l),
(1379,1486,l),
(911,1486,l),
(911,1399,l),
(1088,1377,l),
(607,793,l),
(398,793,l),
(398,1377,l),
(574,1399,l),
(574,1486,l),
(69,1486,l),
(69,1399,l),
(235,1377,l),
(235,107,l),
(69,89,l),
(69,0,l)
);
}
);
userData = {
com.schriftgestaltung.Glyphs.lastChange = "2019-04-25 21:50:43 +0000";
};
width = 1464;
},
{
anchors = (
{
name = bottomright;
pos = (1632,0);
},
{
name = center;
pos = (392,1100);
},
{
name = top;
pos = (840,1506);
}
);
layerId = "97BB7961-D669-43AB-8BBF-11FFD0C46A4B";
shapes = (
{
closed = 1;
nodes = (
(744,0,l),
(744,131,l),
(570,155,l),
(570,697,l),
(679,697,ls),
(779,697,o),
(851,566,o),
(916,418,cs),
(1001,224,o),
(1087,0,o),
(1203,0,c),
(1603,0,l),
(1603,133,l),
(1534,147,ls),
(1450,164,o),
(1361,413,o),
(1246,601,cs),
(1178,712,o),
(1125,799,o),
(973,814,c),
(1404,1317,l),
(1571,1346,l),
(1571,1486,l),
(1030,1486,l),
(1030,1346,l),
(1164,1319,l),
(775,820,l),
(570,820,l),
(570,1317,l),
(712,1346,l),
(712,1486,l),
(73,1486,l),
(73,1346,l),
(218,1317,l),
(218,155,l),
(73,133,l),
(73,0,l)
);
}
);
width = 1598;
}
);
metricLeft = "Pe-cy";
unicode = 1050;
}
{
glyphname = "Ereversed-cy";
layers = (
{
anchors = (
{
name = top;
pos = (583,1486);
}
);
layerId = UUID0;
shapes = (
{
closed = 1;
nodes = (
(937,-22,o),
(1207,298,o),
(1207,744,cs),
(1207,1208,o),
(961,1502,o),
(525,1502,cs),
(285,1502,o),
(211,1430,o),
(107,1426,c),
(96,1111,l),
(195,1111,l),
(255,1332,l),
(307,1374,o),
(375,1406,o),
(521,1406,cs),
(834,1406,o),
(993,1141,o),
(1021,816,c),
(321,825,l),
(321,693,l),
(1025,716,l),
(1025,328,o),
(829,76,o),
(535,76,cs),
(380,76,o),
(271,106,o),
(235,138,c),
(181,328,l),
(82,328,l),
(76,42,l),
(181,42,o),
(320,-22,o),
(495,-22,cs)
);
}
);
width = 1277;
},
{
anchors = (
{
name = top;
pos = (658,1486);
}
);
layerId = "DEBB1CE4-A72D-4960-969E-E04A036D2FA1";
shapes = (
{
closed = 1;
nodes = (
(984,-22,o),
(1300,270,o),
(1300,754,cs),
(1300,1208,o),
(1066,1502,o),
(591,1502,cs),
(340,1502,o),
(259,1437,o),
(124,1426,c),
(114,1006,l),
(305,1006,l),
(369,1297,l),
(403,1330,o),
(452,1359,o),
(570,1359,cs),
(785,1359,o),
(899,1143,o),
(919,827,c),
(355,841,l),
(355,660,l),
(921,675,l),
(911,301,o),
(777,116,o),
(578,116,cs),
(477,116,o),
(386,147,o),
(363,170,c),
(309,404,l),
(124,414,l),
(99,18,l),
(241,14,o),
(359,-22,o),
(556,-22,cs)
);
}
);
width = 1358;
},
{
anchors = (
{
name = top;
pos = (582,1483);
}
);
layerId = "184155C8-9F61-4F1C-9784-DDA8EA717636";
shapes = (
{
closed = 1;
nodes = (
(1005,-22,o),
(1215,289,o),
(1215,734,cs),
(1215,1213,o),
(944,1507,o),
(514,1507,cs),
(278,1507,o),
(175,1429,o),
(47,1429,c),
(42,1006,l),
(232,1006,l),
(317,1396,l),
(349,1421,o),
(391,1447,o),
(490,1447,cs),
(690,1447,o),
(781,1252,o),
(785,783,c),
(280,814,l),
(280,693,l),
(785,723,l),
(780,364,o),
(709,36,o),
(468,36,cs),
(389,36,o),
(323,65,o),
(306,84,c),
(236,403,l),
(47,413,l),
(25,19,l),
(144,19,o),
(204,-22,o),
(507,-22,cs)
);
}
);
width = 1259;
},
{
anchors = (
{
name = top;
pos = (483,1483);
}
);
layerId = "EA2265BD-E890-48C4-9E90-A53076E780C5";
shapes = (
{
closed = 1;
nodes = (
(863,-22,o),
(1127,270,o),
(1127,754,cs),
(1127,1208,o),
(938,1502,o),
(484,1502,cs),
(279,1502,o),
(193,1437,o),
(83,1426,c),
(73,1006,l),
(258,1006,l),
(322,1297,l),
(342,1330,o),
(392,1359,o),
(463,1359,cs),
(665,1359,o),
(736,1143,o),
(752,827,c),
(290,841,l),
(290,660,l),
(754,675,l),
(746,301,o),
(660,116,o),
(471,116,cs),
(408,116,o),
(330,147,o),
(316,170,c),
(262,404,l),
(83,414,l),
(58,18,l),
(173,14,o),
(289,-22,o),
(449,-22,cs)
);
}
);
width = 1167;
},
{
anchors = (
{
name = top;
pos = (543,1483);
}
);
layerId = "0E4B6E2E-ECAB-4D06-9686-B0B40AA31834";
shapes = (
{
closed = 1;
nodes = (
(910,-22,o),
(1144,286,o),
(1144,746,cs),
(1144,1276,o),
(887,1502,o),
(541,1502,cs),
(355,1502,o),
(183,1450,o),
(105,1436,c),
(117,1110,l),
(221,1110,l),
(269,1342,l),
(315,1374,o),
(401,1402,o),
(567,1402,cs),
(792,1402,o),
(950,1276,o),
(965,816,c),
(343,834,l),
(343,688,l),
(965,706,l),
(950,370,o),
(802,78,o),
(557,78,cs),
(399,78,o),
(325,106,o),
(271,148,c),
(187,346,l),
(87,336,l),
(139,54,l),
(243,48,o),
(329,-22,o),
(561,-22,cs)
);
}
);
width = 1190;
},
{
anchors = (
{
name = top;
pos = (533,1483);
}
);
layerId = "F2B10EEF-9DDC-48CA-970D-6B8C79870881";
shapes = (
{
closed = 1;
nodes = (
(920,-22,o),
(1093,289,o),
(1093,734,cs),
(1093,1213,o),
(865,1507,o),
(471,1507,cs),
(256,1507,o),
(162,1429,o),
(46,1429,c),
(41,1006,l),
(231,1006,l),
(316,1396,l),
(340,1421,o),
(372,1447,o),
(447,1447,cs),
(647,1447,o),
(719,1252,o),
(723,783,c),
(279,814,l),
(279,693,l),
(723,723,l),
(718,364,o),
(666,36,o),
(425,36,cs),
(366,36,o),
(318,65,o),
(305,84,c),
(235,403,l),
(46,413,l),
(24,19,l),
(133,19,o),
(187,-22,o),
(464,-22,cs)
);
}
);
width = 1133;
},
{
anchors = (
{
name = top;
pos = (497,1486);
}
);
layerId = "E96AC896-F5DF-475B-BBD9-C7FEC6A86D0E";
shapes = (
{
closed = 1;
nodes = (
(769,-22,o),
(1033,298,o),
(1033,744,cs),
(1033,1208,o),
(829,1502,o),
(434,1502,cs),
(231,1502,o),
(169,1430,o),
(81,1426,c),
(70,1111,l),
(169,1111,l),
(229,1372,l),
(268,1416,o),
(320,1449,o),
(430,1449,cs),
(715,1449,o),
(840,1151,o),
(865,791,c),
(295,815,l),
(295,703,l),
(864,731,l),
(864,302,o),
(703,28,o),
(424,28,cs),
(313,28,o),
(235,62,o),
(209,98,c),
(155,328,l),
(56,328,l),
(50,42,l),
(109,26,o),
(256,-22,o),
(404,-22,cs)
);
}
);
width = 1073;
},
{
anchors = (
{
name = top;
pos = (623,1486);
}
);
layerId = "C9B9556E-C2FD-4F62-BB40-44923C452C22";
shapes = (
{
closed = 1;
nodes = (
(914,-22,o),
(1206,298,o),
(1206,744,cs),
(1206,1208,o),
(978,1502,o),
(542,1502,cs),
(302,1502,o),
(228,1430,o),
(124,1426,c),
(113,1111,l),
(212,1111,l),
(272,1372,l),
(324,1416,o),
(392,1449,o),
(538,1449,cs),
(864,1449,o),
(1009,1151,o),
(1038,791,c),
(338,815,l),
(338,703,l),
(1037,731,l),
(1037,302,o),
(850,28,o),
(532,28,cs),
(387,28,o),
(286,62,o),
(252,98,c),
(198,328,l),
(99,328,l),
(93,42,l),
(163,26,o),
(337,-22,o),
(512,-22,cs)
);
}
);
width = 1251;
},
{
anchors = (
{
name = top;
pos = (604,1483);
}
);
layerId = "AFA1064D-EFC9-4C9F-B9B0-9118E41D87C4";
shapes = (
{
closed = 1;
nodes = (
(1074,-22,o),
(1291,289,o),
(1291,734,cs),
(1291,1213,o),
(1008,1507,o),
(544,1507,cs),
(303,1507,o),
(178,1429,o),
(47,1429,c),
(42,1006,l),
(232,1006,l),
(317,1396,l),
(351,1421,o),
(415,1447,o),
(520,1447,cs),
(746,1447,o),
(840,1252,o),
(845,783,c),
(310,814,l),
(310,693,l),
(845,723,l),
(839,364,o),
(768,36,o),
(498,36,cs),
(414,36,o),
(324,65,o),
(306,84,c),
(236,403,l),
(47,413,l),
(25,19,l),
(146,19,o),
(228,-22,o),
(537,-22,cs)
);
}
);
width = 1315;
},
{
anchors = (
{
name = top;
pos = (621,1486);
}
);
layerId = "2103F1D3-C390-4F79-A87D-298F85EA6916";
shapes = (
{
closed = 1;
nodes = (
(987,-22,o),
(1293,298,o),
(1293,744,cs),
(1293,1208,o),
(1053,1502,o),
(595,1502,cs),
(335,1502,o),
(234,1430,o),
(121,1426,c),
(110,1111,l),
(209,1111,l),
(269,1372,l),
(328,1416,o),
(426,1449,o),
(591,1449,cs),
(939,1449,o),
(1094,1151,o),
(1125,791,c),
(335,815,l),
(335,703,l),
(1124,731,l),
(1124,302,o),
(924,28,o),
(585,28,cs),
(422,28,o),
(287,62,o),
(249,98,c),
(195,328,l),
(96,328,l),
(90,42,l),
(166,26,o),
(375,-22,o),
(565,-22,cs)
);
}
);
width = 1330;
},
{
anchors = (
{
name = top;
pos = (522,1483);
}
);
layerId = "779F1615-9D1A-4778-9767-9A030AA58B6C";
shapes = (
{
closed = 1;
nodes = (
(1049,-22,o),
(1308,286,o),
(1308,746,cs),
(1308,1186,o),
(998,1502,o),
(570,1502,cs),
(358,1502,o),
(173,1450,o),
(84,1436,c),
(96,1110,l),
(200,1110,l),
(248,1342,l),
(304,1374,o),
(395,1402,o),
(596,1402,cs),
(891,1402,o),
(1092,1186,o),
(1112,816,c),
(322,834,l),
(322,688,l),
(1112,706,l),
(1092,370,o),
(932,78,o),
(586,78,cs),
(394,78,o),
(316,106,o),
(250,148,c),
(166,346,l),
(66,336,l),
(118,54,l),
(237,48,o),
(324,-22,o),
(590,-22,cs)
);
}
);
userData = {
com.schriftgestaltung.Glyphs.lastChange = "2019-04-25 21:50:43 +0000";
};
width = 1350;
},
{
anchors = (
{
name = top;
pos = (671,1486);
}
);
layerId = "97BB7961-D669-43AB-8BBF-11FFD0C46A4B";
shapes = (
{
closed = 1;
nodes = (
(1054,-22,o),
(1392,270,o),
(1392,754,cs),
(1392,1208,o),
(1145,1502,o),
(604,1502,cs),
(345,1502,o),
(261,1437,o),
(122,1426,c),
(112,1006,l),
(347,1006,l),
(411,1297,l),
(445,1330,o),
(482,1359,o),
(583,1359,cs),
(832,1359,o),
(944,1143,o),
(967,827,c),
(383,841,l),
(383,660,l),
(969,675,l),
(957,301,o),
(822,116,o),
(591,116,cs),
(504,116,o),
(425,147,o),
(405,170,c),
(351,404,l),
(122,414,l),
(97,18,l),
(244,14,o),
(366,-22,o),
(569,-22,cs)
);
}
);
width = 1432;
}
);
metricLeft = "=|C";
metricRight = O;
unicode = 1069;
}
{
glyphname = "Ya-cy";
layers = (
{
anchors = (
{
name = top;
pos = (714,1486);
}
);
layerId = UUID0;
shapes = (
{
closed = 1;
nodes = (
(258,0,ls),
(351,0,o),
(535,564,o),
(690,660,c),
(786,656,o),
(882,658,o),
(976,658,c),
(976,104,l),
(778,84,l),
(778,0,l),
(1332,0,l),
(1332,84,l),
(1138,104,l),
(1138,1378,l),
(1314,1400,l),
(1314,1486,l),
(1036,1486,ls),
(938,1486,o),
(856,1489,o),
(760,1489,cs),
(487,1489,o),
(214,1387,o),
(214,1049,cs),
(214,855,o),
(338,699,o),
(564,668,c),
(404,565,o),
(225,123,o),
(129,106,c),
(47,84,l),
(44,0,l)
);
},
{
closed = 1;
nodes = (
(500,756,o),
(378,863,o),
(378,1057,cs),
(378,1287,o),
(519,1391,o),
(734,1391,cs),
(815,1390,o),
(895,1389,o),
(976,1388,c),
(976,762,l),
(936,758,o),
(858,756,o),
(734,756,cs)
);
}
);
width = 1428;
},
{
anchors = (
{
name = top;
pos = (742,1486);
}
);
layerId = "DEBB1CE4-A72D-4960-969E-E04A036D2FA1";
shapes = (
{
closed = 1;
nodes = (
(382,0,ls),
(466,0,o),
(590,547,o),
(721,632,c),
(765,631,o),
(821,631,o),
(899,631,c),
(899,153,l),
(723,131,l),
(723,0,l),
(1404,0,l),
(1404,131,l),
(1240,153,l),
(1240,1319,l),
(1393,1347,l),
(1393,1486,l),
(1070,1486,ls),
(945,1486,o),
(872,1489,o),
(721,1489,cs),
(322,1489,o),
(153,1307,o),
(153,1016,cs),
(153,848,o),
(267,696,o),
(488,670,c),
(261,581,o),
(175,182,o),
(75,153,cs),
(0,131,l),
(0,0,l)
);
},
{
closed = 1;
nodes = (
(608,757,o),
(511,829,o),
(511,1019,cs),
(511,1209,o),
(576,1356,o),
(759,1356,cs),
(806,1356,o),
(852,1356,o),
(899,1356,c),
(899,769,l),
(875,762,o),
(812,757,o),
(762,757,cs)
);
}
);
width = 1483;
},
{
anchors = (
{
name = top;
pos = (713,1486);
}
);
layerId = "184155C8-9F61-4F1C-9784-DDA8EA717636";
shapes = (
{
closed = 1;
nodes = (
(432,0,ls),
(513,0,o),
(594,505,o),
(729,636,c),
(785,636,o),
(841,636,o),
(897,636,c),
(897,72,l),
(753,37,l),
(753,0,l),
(1403,0,l),
(1403,37,l),
(1269,72,l),
(1269,1414,l),
(1402,1449,l),
(1402,1486,l),
(1070,1486,ls),
(945,1486,o),
(872,1489,o),
(721,1489,cs),
(336,1489,o),
(173,1347,o),
(173,1077,cs),
(173,872,o),
(285,713,o),
(512,659,c),
(171,567,o),
(160,90,o),
(65,60,cs),
(0,38,l),
(0,0,l)
);
},
{
closed = 1;
nodes = (
(669,697,o),
(571,805,o),
(571,1090,cs),
(571,1283,o),
(628,1433,o),
(789,1433,cs),
(826,1433,o),
(861,1431,o),
(897,1423,c),
(897,701,l),
(882,698,o),
(849,697,o),
(822,697,cs)
);
}
);
width = 1425;
},
{
anchors = (
{
name = top;
pos = (669,1486);
}
);
layerId = "EA2265BD-E890-48C4-9E90-A53076E780C5";
shapes = (
{
closed = 1;
nodes = (
(359,0,ls),
(438,0,o),
(555,547,o),
(678,632,c),
(719,631,o),
(749,631,o),
(822,631,c),
(822,153,l),
(669,131,l),
(669,0,l),
(1289,0,l),
(1289,131,l),
(1148,153,l),
(1148,1319,l),
(1278,1347,l),
(1278,1486,l),
(1006,1486,ls),
(888,1486,o),
(820,1489,o),
(678,1489,cs),
(303,1489,o),
(142,1307,o),
(142,1016,cs),
(142,848,o),
(251,696,o),
(459,670,c),
(245,581,o),
(165,182,o),
(71,153,cs),
(0,131,l),
(0,0,l)
);
},
{
closed = 1;
nodes = (
(572,757,o),
(490,829,o),
(490,1019,cs),
(490,1209,o),
(541,1356,o),
(713,1356,cs),
(758,1356,o),
(778,1356,o),
(822,1356,c),
(822,769,l),
(800,762,o),
(763,757,o),
(716,757,cs)
);
}
);
width = 1337;
},
{
anchors = (
{
name = top;
pos = (624,1486);
}
);
layerId = "0E4B6E2E-ECAB-4D06-9686-B0B40AA31834";
shapes = (
{
closed = 1;
nodes = (
(229,0,ls),
(324,0,o),
(512,564,o),
(671,660,c),
(736,656,o),
(801,658,o),
(864,658,c),
(864,104,l),
(689,84,l),
(689,0,l),
(1190,0,l),
(1190,84,l),
(1022,104,l),
(1022,1378,l),
(1172,1400,l),
(1172,1486,l),
(924,1486,ls),
(841,1486,o),
(771,1489,o),
(690,1489,cs),
(440,1489,o),
(190,1387,o),
(190,1049,cs),
(190,855,o),
(316,699,o),
(545,668,c),
(383,565,o),
(202,123,o),
(105,106,c),
(23,84,l),
(20,0,l)
);
},
{
closed = 1;
nodes = (
(471,756,o),
(349,863,o),
(349,1057,cs),
(349,1287,o),
(474,1391,o),
(664,1391,cs),
(731,1391,o),
(797,1389,o),
(864,1388,c),
(864,762,l),
(838,758,o),
(786,756,o),
(705,756,cs)
);
}
);
width = 1248;
},
{
anchors = (
{
name = top;
pos = (661,1486);
}
);
color = 5;
layerId = "F2B10EEF-9DDC-48CA-970D-6B8C79870881";
shapes = (
{
closed = 1;
nodes = (
(402,0,ls),
(483,0,o),
(564,505,o),
(699,636,c),
(741,636,o),
(782,636,o),
(824,636,c),
(824,72,l),
(695,37,l),
(695,0,l),
(1281,0,l),
(1281,37,l),
(1172,72,l),
(1172,1414,l),
(1280,1449,l),
(1280,1486,l),
(997,1486,ls),
(887,1486,o),
(823,1489,o),
(691,1489,cs),
(327,1489,o),
(173,1344,o),
(173,1067,cs),
(173,867,o),
(277,712,o),
(489,659,c),
(166,567,o),
(155,92,o),
(65,60,cs),
(0,38,l),
(0,0,l)
);
},
{
closed = 1;
nodes = (
(623,697,o),
(541,805,o),
(541,1090,cs),
(541,1283,o),
(598,1433,o),
(759,1433,cs),
(781,1433,o),
(802,1431,o),
(824,1423,c),
(824,701,l),
(810,698,o),
(778,697,o),
(752,697,cs)
);
}
);
width = 1321;
},
{
anchors = (
{
name = top;
pos = (599,1486);
}
);
layerId = "E96AC896-F5DF-475B-BBD9-C7FEC6A86D0E";
shapes = (
{
closed = 1;
nodes = (
(220,0,ls),
(323,0,o),
(466,666,o),
(652,680,c),
(715,676,o),
(777,678,o),
(838,678,c),
(838,66,l),
(654,36,l),
(654,0,l),
(1159,0,l),
(1159,36,l),
(992,66,l),
(992,1420,l),
(1141,1450,l),
(1141,1486,l),
(892,1486,ls),
(808,1486,o),
(744,1502,o),
(662,1502,cs),
(419,1502,o),
(176,1395,o),
(176,1049,cs),
(176,872,o),
(292,728,o),
(501,691,c),
(306,603,o),
(165,79,o),
(91,57,cs),
(20,36,l),
(20,0,l)
);
},
{
closed = 1;
nodes = (
(445,725,o),
(346,843,o),
(346,1057,cs),
(346,1328,o),
(461,1454,o),
(636,1454,cs),
(704,1454,o),
(770,1444,o),
(838,1429,c),
(838,742,l),
(805,733,o),
(740,725,o),
(636,725,cs)
);
}
);
width = 1197;
},
{
anchors = (
{
name = top;
pos = (640,1486);
}
);
layerId = "C9B9556E-C2FD-4F62-BB40-44923C452C22";
shapes = (
{
closed = 1;
nodes = (
(210,0,ls),
(307,0,o),
(438,581,o),
(662,680,c),
(745,676,o),
(827,678,o),
(908,678,c),
(908,66,l),
(724,36,l),
(724,0,l),
(1244,0,l),
(1244,36,l),
(1064,66,l),
(1064,1420,l),
(1226,1450,l),
(1226,1486,l),
(962,1486,ls),
(878,1486,o),
(814,1502,o),
(732,1502,cs),
(456,1502,o),
(180,1395,o),
(180,1049,cs),
(180,862,o),
(310,713,o),
(545,687,c),
(303,621,o),
(183,87,o),
(81,57,cs),
(10,36,l),
(10,0,l)
);
},
{
closed = 1;
nodes = (
(472,725,o),
(350,843,o),
(350,1057,cs),
(350,1328,o),
(491,1454,o),
(706,1454,cs),
(774,1454,o),
(840,1444,o),
(908,1429,c),
(908,742,l),
(875,733,o),
(810,725,o),
(706,725,cs)
);
}
);
width = 1282;
},
{
anchors = (
{
name = top;
pos = (743,1486);
}
);
layerId = "AFA1064D-EFC9-4C9F-B9B0-9118E41D87C4";
shapes = (
{
closed = 1;
nodes = (
(432,0,ls),
(521,0,o),
(610,505,o),
(759,636,c),
(819,636,o),
(879,636,o),
(939,636,c),
(939,72,l),
(795,37,l),
(795,0,l),
(1467,0,l),
(1467,37,l),
(1333,72,l),
(1333,1414,l),
(1466,1449,l),
(1466,1486,l),
(1080,1486,ls),
(966,1486,o),
(899,1489,o),
(761,1489,cs),
(348,1489,o),
(173,1347,o),
(173,1077,cs),
(173,872,o),
(292,713,o),
(534,659,c),
(175,567,o),
(164,92,o),
(65,60,cs),
(0,38,l),
(0,0,l)
);
},
{
closed = 1;
nodes = (
(681,697,o),
(571,805,o),
(571,1090,cs),
(571,1283,o),
(638,1433,o),
(829,1433,cs),
(867,1433,o),
(902,1431,o),
(939,1423,c),
(939,701,l),
(922,698,o),
(883,697,o),
(852,697,cs)
);
}
);
width = 1485;
},
{
anchors = (
{
name = top;
pos = (661,1486);
}
);
layerId = "2103F1D3-C390-4F79-A87D-298F85EA6916";
shapes = (
{
closed = 1;
nodes = (
(215,0,ls),
(348,0,o),
(433,581,o),
(647,680,c),
(750,676,o),
(852,678,o),
(953,678,c),
(953,66,l),
(769,36,l),
(769,0,l),
(1292,0,l),
(1292,36,l),
(1112,66,l),
(1112,1420,l),
(1274,1450,l),
(1274,1486,l),
(1036,1486,ls),
(952,1486,o),
(859,1502,o),
(777,1502,cs),
(481,1502,o),
(185,1395,o),
(185,1049,cs),
(185,840,o),
(310,718,o),
(535,692,c),
(301,625,o),
(183,102,o),
(86,64,cs),
(15,36,l),
(15,0,l)
);
},
{
closed = 1;
nodes = (
(491,725,o),
(355,833,o),
(355,1057,cs),
(355,1328,o),
(512,1454,o),
(751,1454,cs),
(819,1454,o),
(885,1444,o),
(953,1429,c),
(953,742,l),
(920,733,o),
(855,725,o),
(751,725,cs)
);
}
);
width = 1326;
},
{
anchors = (
{
name = top;
pos = (741,1486);
}
);
layerId = "779F1615-9D1A-4778-9767-9A030AA58B6C";
shapes = (
{
closed = 1;
nodes = (
(268,0,ls),
(378,0,o),
(551,550,o),
(706,656,c),
(822,656,o),
(940,658,o),
(1056,658,c),
(1056,104,l),
(849,84,l),
(849,0,l),
(1413,0,l),
(1413,84,l),
(1222,104,l),
(1222,1378,l),
(1395,1400,l),
(1395,1486,l),
(1116,1486,ls),
(996,1486,o),
(897,1502,o),
(780,1502,cs),
(492,1502,o),
(234,1410,o),
(234,1044,cs),
(234,834,o),
(358,722,o),
(554,672,c),
(404,580,o),
(225,124,o),
(120,106,c),
(40,84,l),
(40,0,l)
);
},
{
closed = 1;
nodes = (
(543,756,o),
(404,846,o),
(404,1064,cs),
(404,1312,o),
(548,1404,o),
(754,1404,cs),
(916,1404,o),
(971,1390,o),
(1056,1388,c),
(1056,762,l),
(1011,758,o),
(923,756,o),
(784,756,cs)
);
}
);
userData = {
com.schriftgestaltung.Glyphs.lastChange = "2019-04-25 21:50:43 +0000";
};
width = 1482;
},
{
anchors = (
{
name = top;
pos = (778,1486);
}
);
layerId = "97BB7961-D669-43AB-8BBF-11FFD0C46A4B";
shapes = (
{
closed = 1;
nodes = (
(411,0,ls),
(495,0,o),
(623,547,o),
(736,632,c),
(791,631,o),
(867,631,o),
(964,631,c),
(964,153,l),
(782,131,l),
(782,0,l),
(1483,0,l),
(1483,131,l),
(1316,153,l),
(1316,1319,l),
(1472,1347,l),
(1472,1486,l),
(1135,1486,ls),
(1010,1486,o),
(937,1489,o),
(738,1489,cs),
(323,1489,o),
(151,1307,o),
(151,1046,cs),
(151,849,o),
(267,696,o),
(492,670,c),
(254,581,o),
(175,182,o),
(70,153,cs),
(-5,131,l),
(-5,0,l)
);
},
{
closed = 1;
nodes = (
(640,757,o),
(546,829,o),
(546,1019,cs),
(546,1209,o),
(619,1356,o),
(824,1356,cs),
(871,1356,o),
(917,1356,o),
(964,1356,c),
(964,769,l),
(931,762,o),
(850,757,o),
(782,757,cs)
);
}
);
width = 1556;
}
);
metricRight = "Pe-cy";
unicode = 1071;
}
{
color = 5;
glyphname = "ertick-cy";
layers = (
{
background = {
shapes = (
{
closed = 1;
nodes = (
(868,171,l),
(698,353,l),
(626,287,l),
(800,105,l)
);
},
{
closed = 1;
nodes = (
(1060,-31,l),
(897,142,l),
(829,76,l),
(988,-97,l)
);
}
);
};
layerId = UUID0;
shapes = (
{
ref = p;
},
{
pos = (-47,-40);
ref = ertick_part.;
}
);
width = 1192;
},
{
background = {
shapes = (
{
closed = 1;
nodes = (
(898,170,l),
(745,352,l),
(639,261,l),
(795,78,l)
);
},
{
closed = 1;
nodes = (
(1072,-33,l),
(926,140,l),
(823,48,l),
(966,-124,l)
);
}
);
};
layerId = "DEBB1CE4-A72D-4960-969E-E04A036D2FA1";
shapes = (
{
ref = p;
},
{
pos = (3,-20);
ref = ertick_part.;
}
);
width = 1301;
},
{
background = {
shapes = (
{
closed = 1;
nodes = (
(775,141,l),
(584,313,l),
(530,255,l),
(724,82,l)
);
},
{
closed = 1;
nodes = (
(1001,-57,l),
(809,115,l),
(757,57,l),
(947,-115,l)
);
}
);
};
layerId = "184155C8-9F61-4F1C-9784-DDA8EA717636";
shapes = (
{
ref = p;
},
{
pos = (-107,-59);
ref = ertick_part.;
}
);
width = 1155;
},
{
background = {
shapes = (
{
closed = 1;
nodes = (
(734,171,l),
(573,350,l),
(470,255,l),
(634,76,l)
);
},
{
closed = 1;
nodes = (
(917,-27,l),
(763,142,l),
(663,47,l),
(814,-122,l)
);
}
);
};
layerId = "EA2265BD-E890-48C4-9E90-A53076E780C5";
shapes = (
{
ref = p;
},
{
pos = (-157,-20);
ref = ertick_part.;
}
);
width = 1093;
},
{
background = {
shapes = (
{
closed = 1;
nodes = (
(744,141,l),
(583,320,l),
(510,255,l),
(674,76,l)
);
},
{
closed = 1;
nodes = (
(927,-57,l),
(773,112,l),
(703,47,l),
(854,-122,l)
);
}
);
};
layerId = "0E4B6E2E-ECAB-4D06-9686-B0B40AA31834";
shapes = (
{
ref = p;
},
{
pos = (-127,-40);
ref = ertick_part.;
}
);
width = 1066;
},
{
background = {
shapes = (
{
closed = 1;
nodes = (
(678,140,l),
(530,328,l),
(471,280,l),
(622,95,l)
);
},
{
closed = 1;
nodes = (
(860,-77,l),
(710,108,l),
(654,63,l),
(801,-125,l)
);
}
);
};
layerId = "F2B10EEF-9DDC-48CA-970D-6B8C79870881";
shapes = (
{
ref = p;
},
{
pos = (-201,-55);
ref = ertick_part.;
}
);
width = 1027;
},
{
background = {
shapes = (
{
closed = 1;
nodes = (
(617,93,l),
(478,284,l),
(424,248,l),
(566,56,l)
);
},
{
closed = 1;
nodes = (
(777,-121,l),
(643,61,l),
(592,24,l),
(723,-157,l)
);
}
);
};
layerId = "E96AC896-F5DF-475B-BBD9-C7FEC6A86D0E";
shapes = (
{
ref = p;
},
{
pos = (-216,-41);
ref = ertick_part.;
}
);
width = 912;
},
{
background = {
shapes = (
{
closed = 1;
nodes = (
(724,121,l),
(563,300,l),
(510,255,l),
(674,76,l)
);
},
{
closed = 1;
nodes = (
(907,-77,l),
(753,92,l),
(703,47,l),
(854,-122,l)
);
}
);
};
layerId = "C9B9556E-C2FD-4F62-BB40-44923C452C22";
shapes = (
{
ref = p;
},
{
pos = (-168,-47);
ref = ertick_part.;
}
);
width = 1013;
},
{
background = {
shapes = (
{
closed = 1;
nodes = (
(825,141,l),
(634,313,l),
(580,255,l),
(774,82,l)
);
},
{
closed = 1;
nodes = (
(1051,-57,l),
(859,115,l),
(807,57,l),
(997,-115,l)
);
}
);
};
layerId = "AFA1064D-EFC9-4C9F-B9B0-9118E41D87C4";
shapes = (
{
ref = p;
},
{
pos = (-89,-70);
ref = ertick_part.;
}
);
width = 1214;
},
{
background = {
shapes = (
{
closed = 1;
nodes = (
(759,121,l),
(598,300,l),
(545,255,l),
(709,76,l)
);
},
{
closed = 1;
nodes = (
(942,-77,l),
(788,92,l),
(738,47,l),
(889,-122,l)
);
}
);
};
layerId = "2103F1D3-C390-4F79-A87D-298F85EA6916";
shapes = (
{
ref = p;
},
{
pos = (-128,-47);
ref = ertick_part.;
}
);
width = 1056;
},
{
background = {
shapes = (
{
closed = 1;
nodes = (
(874,141,l),
(713,320,l),
(640,255,l),
(804,76,l)
);
},
{
closed = 1;
nodes = (
(1057,-57,l),
(903,112,l),
(833,47,l),
(984,-122,l)
);
}
);
};
layerId = "779F1615-9D1A-4778-9767-9A030AA58B6C";
shapes = (
{
ref = p;
},
{
pos = (-10,-32);
ref = ertick_part.;
}
);
userData = {
com.schriftgestaltung.Glyphs.lastChange = "2019-04-25 21:50:43 +0000";
};
width = 1258;
},
{
background = {
shapes = (
{
closed = 1;
nodes = (
(900,171,l),
(739,350,l),
(636,255,l),
(800,76,l)
);
},
{
closed = 1;
nodes = (
(1083,-27,l),
(929,142,l),
(829,47,l),
(980,-122,l)
);
}
);
};
layerId = "97BB7961-D669-43AB-8BBF-11FFD0C46A4B";
shapes = (
{
ref = p;
},
{
pos = (37,-28);
ref = ertick_part.;
}
);
width = 1354;
}
);
unicode = 1167;
}
{
glyphname = "ustraightstroke-cy";
layers = (
{
layerId = UUID0;
shapes = (
{
closed = 1;
nodes = (
(1045,0,l),
(1045,94,l),
(200,94,l),
(200,0,l)
);
},
{
ref = "ustraight-cy";
}
);
width = 1197;
},
{
layerId = "DEBB1CE4-A72D-4960-969E-E04A036D2FA1";
shapes = (
{
closed = 1;
nodes = (
(1169,0,l),
(1169,130,l),
(181,130,l),
(181,0,l)
);
},
{
ref = "ustraight-cy";
}
);
width = 1295;
},
{
layerId = "184155C8-9F61-4F1C-9784-DDA8EA717636";
shapes = (
{
closed = 1;
nodes = (
(921,0,l),
(921,66,l),
(133,66,l),
(133,0,l)
);
},
{
ref = "ustraight-cy";
}
);
width = 989;
},
{
layerId = "EA2265BD-E890-48C4-9E90-A53076E780C5";
shapes = (
{
closed = 1;
nodes = (
(932,0,l),
(932,128,l),
(136,128,l),
(136,0,l)
);
},
{
ref = "ustraight-cy";
}
);
width = 1073;
},
{
layerId = "0E4B6E2E-ECAB-4D06-9686-B0B40AA31834";
shapes = (
{
closed = 1;
nodes = (
(916,0,l),
(916,92,l),
(174,92,l),
(174,0,l)
);
},
{
ref = "ustraight-cy";
}
);
width = 1048;
},
{
layerId = "F2B10EEF-9DDC-48CA-970D-6B8C79870881";
shapes = (
{
closed = 1;
nodes = (
(780,0,l),
(780,64,l),
(86,64,l),
(86,0,l)
);
},
{
ref = "ustraight-cy";
}
);
width = 817;
},
{
layerId = "E96AC896-F5DF-475B-BBD9-C7FEC6A86D0E";
shapes = (
{
closed = 1;
nodes = (
(712,0,l),
(712,48,l),
(132,48,l),
(132,0,l)
);
},
{
ref = "ustraight-cy";
}
);
width = 839;
},
{
layerId = "C9B9556E-C2FD-4F62-BB40-44923C452C22";
shapes = (
{
closed = 1;
nodes = (
(797,0,l),
(797,50,l),
(127,50,l),
(127,0,l)
);
},
{
ref = "ustraight-cy";
}
);
width = 895;
},
{
layerId = "AFA1064D-EFC9-4C9F-B9B0-9118E41D87C4";
shapes = (
{
closed = 1;
nodes = (
(972,0,l),
(972,70,l),
(114,70,l),
(114,0,l)
);
},
{
ref = "ustraight-cy";
}
);
width = 1099;
},
{
layerId = "2103F1D3-C390-4F79-A87D-298F85EA6916";
shapes = (
{
closed = 1;
nodes = (
(803,0,l),
(803,50,l),
(158,50,l),
(158,0,l)
);
},
{
ref = "ustraight-cy";
}
);
width = 962;
},
{
layerId = "779F1615-9D1A-4778-9767-9A030AA58B6C";
shapes = (
{
closed = 1;
nodes = (
(1069,0,l),
(1069,96,l),
(174,96,l),
(174,0,l)
);
},
{
ref = "ustraight-cy";
}
);
userData = {
com.schriftgestaltung.Glyphs.lastChange = "2019-04-25 21:50:43 +0000";
};
width = 1197;
},
{
layerId = "97BB7961-D669-43AB-8BBF-11FFD0C46A4B";
shapes = (
{
closed = 1;
nodes = (
(1130,0,l),
(1130,132,l),
(104,132,l),
(104,0,l)
);
},
{
ref = "ustraight-cy";
}
);
width = 1279;
}
);
metricLeft = v;
metricRight = v;
unicode = 1201;
}
{
glyphname = "Cheverticalstroke-cy";
layers = (
{
layerId = UUID0;
shapes = (
{
closed = 1;
nodes = (
(692,342,l),
(692,1062,l),
(590,1062,l),
(590,342,l)
);
},
{
ref = "Che-cy";
}
);
width = 1402;
},
{
layerId = "DEBB1CE4-A72D-4960-969E-E04A036D2FA1";
shapes = (
{
closed = 1;
nodes = (
(767,342,l),
(767,1062,l),
(643,1062,l),
(643,342,l)
);
},
{
ref = "Che-cy";
}
);
width = 1501;
},
{
layerId = "184155C8-9F61-4F1C-9784-DDA8EA717636";
shapes = (
{
closed = 1;
nodes = (
(712,342,l),
(712,1062,l),
(640,1062,l),
(640,342,l)
);
},
{
ref = "Che-cy";
}
);
width = 1386;
},
{
layerId = "EA2265BD-E890-48C4-9E90-A53076E780C5";
shapes = (
{
closed = 1;
nodes = (
(715,341,l),
(715,1062,l),
(591,1062,l),
(591,341,l)
);
},
{
ref = "Che-cy";
}
);
width = 1354;
},
{
layerId = "0E4B6E2E-ECAB-4D06-9686-B0B40AA31834";
shapes = (
{
closed = 1;
nodes = (
(640,342,l),
(640,1062,l),
(538,1062,l),
(538,342,l)
);
},
{
ref = "Che-cy";
}
);
width = 1230;
},
{
layerId = "F2B10EEF-9DDC-48CA-970D-6B8C79870881";
shapes = (
{
closed = 1;
nodes = (
(608,342,l),
(608,1062,l),
(536,1062,l),
(536,342,l)
);
},
{
ref = "Che-cy";
}
);
width = 1224;
},
{
layerId = "E96AC896-F5DF-475B-BBD9-C7FEC6A86D0E";
shapes = (
{
closed = 1;
nodes = (
(589,342,l),
(589,1062,l),
(521,1062,l),
(521,342,l)
);
},
{
ref = "Che-cy";
}
);
width = 1151;
},
{
layerId = "C9B9556E-C2FD-4F62-BB40-44923C452C22";
shapes = (
{
closed = 1;
nodes = (
(664,342,l),
(664,1062,l),
(596,1062,l),
(596,342,l)
);
},
{
ref = "Che-cy";
}
);
width = 1303;
},
{
layerId = "AFA1064D-EFC9-4C9F-B9B0-9118E41D87C4";
shapes = (
{
closed = 1;
nodes = (
(735,342,l),
(735,1062,l),
(663,1062,l),
(663,342,l)
);
},
{
ref = "Che-cy";
}
);
width = 1456;
},
{
layerId = "2103F1D3-C390-4F79-A87D-298F85EA6916";
shapes = (
{
closed = 1;
nodes = (
(724,342,l),
(724,1062,l),
(656,1062,l),
(656,342,l)
);
},
{
ref = "Che-cy";
}
);
width = 1402;
},
{
layerId = "779F1615-9D1A-4778-9767-9A030AA58B6C";
shapes = (
{
closed = 1;
nodes = (
(804,342,l),
(804,1062,l),
(700,1062,l),
(700,342,l)
);
},
{
ref = "Che-cy";
}
);
userData = {
com.schriftgestaltung.Glyphs.lastChange = "2019-04-25 21:50:43 +0000";
};
width = 1534;
},
{
layerId = "97BB7961-D669-43AB-8BBF-11FFD0C46A4B";
shapes = (
{
closed = 1;
nodes = (
(880,341,l),
(880,1062,l),
(756,1062,l),
(756,341,l)
);
},
{
ref = "Che-cy";
}
);
width = 1684;
}
);
metricLeft = "Che-cy";
metricRight = "Pe-cy";
unicode = 1208;
}
{
glyphname = "Hastroke-cy";
layers = (
{
layerId = UUID0;
shapes = (
{
closed = 1;
nodes = (
(710,716,l),
(765,716,l),
(1242,716,l),
(1242,816,l),
(700,816,l),
(646,816,l),
(185,816,l),
(185,716,l)
);
},
{
ref = "Ha-cy";
}
);
width = 1424;
},
{
layerId = "DEBB1CE4-A72D-4960-969E-E04A036D2FA1";
shapes = (
{
closed = 1;
nodes = (
(655,694,l),
(816,694,l),
(1309,694,l),
(1309,822,l),
(784,822,l),
(594,822,l),
(161,822,l),
(161,694,l)
);
},
{
ref = "Ha-cy";
}
);
width = 1459;
},
{
layerId = "184155C8-9F61-4F1C-9784-DDA8EA717636";
shapes = (
{
closed = 1;
nodes = (
(682,712,l),
(822,726,l),
(1334,726,l),
(1334,804,l),
(808,804,l),
(681,790,l),
(159,790,l),
(159,712,l)
);
},
{
ref = "Ha-cy";
}
);
width = 1479;
},
{
layerId = "EA2265BD-E890-48C4-9E90-A53076E780C5";
shapes = (
{
closed = 1;
nodes = (
(518,694,l),
(663,694,l),
(1129,694,l),
(1128,822,l),
(634,822,l),
(477,822,l),
(138,822,l),
(139,694,l)
);
},
{
ref = "Ha-cy";
}
);
width = 1254;
},
{
layerId = "0E4B6E2E-ECAB-4D06-9686-B0B40AA31834";
shapes = (
{
closed = 1;
nodes = (
(614,716,l),
(675,716,l),
(1108,716,l),
(1108,816,l),
(632,816,l),
(557,816,l),
(171,816,l),
(171,716,l)
);
},
{
ref = "Ha-cy";
}
);
width = 1254;
},
{
layerId = "F2B10EEF-9DDC-48CA-970D-6B8C79870881";
shapes = (
{
closed = 1;
nodes = (
(612,720,l),
(752,734,l),
(1181,734,l),
(1181,804,l),
(738,804,l),
(611,790,l),
(140,790,l),
(140,720,l)
);
},
{
ref = "Ha-cy";
}
);
width = 1304;
},
{
layerId = "E96AC896-F5DF-475B-BBD9-C7FEC6A86D0E";
shapes = (
{
closed = 1;
nodes = (
(562,722,l),
(642,726,l),
(1023,726,l),
(1023,792,l),
(628,792,l),
(561,788,l),
(165,788,l),
(165,722,l)
);
},
{
ref = "Ha-cy";
}
);
width = 1213;
},
{
layerId = "C9B9556E-C2FD-4F62-BB40-44923C452C22";
shapes = (
{
closed = 1;
nodes = (
(592,722,l),
(672,726,l),
(1103,726,l),
(1103,792,l),
(658,792,l),
(591,788,l),
(165,788,l),
(165,722,l)
);
},
{
ref = "Ha-cy";
}
);
width = 1285;
},
{
layerId = "AFA1064D-EFC9-4C9F-B9B0-9118E41D87C4";
shapes = (
{
closed = 1;
nodes = (
(682,720,l),
(822,734,l),
(1341,734,l),
(1341,804,l),
(808,804,l),
(681,790,l),
(185,790,l),
(185,720,l)
);
},
{
ref = "Ha-cy";
}
);
width = 1519;
},
{
layerId = "2103F1D3-C390-4F79-A87D-298F85EA6916";
shapes = (
{
closed = 1;
nodes = (
(662,722,l),
(742,726,l),
(1242,726,l),
(1242,792,l),
(728,792,l),
(661,788,l),
(165,788,l),
(165,722,l)
);
},
{
ref = "Ha-cy";
}
);
width = 1417;
},
{
layerId = "779F1615-9D1A-4778-9767-9A030AA58B6C";
shapes = (
{
closed = 1;
nodes = (
(745,716,l),
(823,716,l),
(1319,716,l),
(1319,816,l),
(736,816,l),
(659,816,l),
(197,816,l),
(197,716,l)
);
},
{
ref = "Ha-cy";
}
);
userData = {
com.schriftgestaltung.Glyphs.lastChange = "2019-04-25 21:50:43 +0000";
};
width = 1489;
},
{
layerId = "97BB7961-D669-43AB-8BBF-11FFD0C46A4B";
shapes = (
{
closed = 1;
nodes = (
(711,689,l),
(907,689,l),
(1431,689,l),
(1431,822,l),
(871,822,l),
(655,822,l),
(188,822,l),
(188,689,l)
);
},
{
ref = "Ha-cy";
}
);
width = 1611;
}
);
metricLeft = X;
metricRight = X;
unicode = 1278;
}
{
color = 10;
glyphname = umod;
layers = (
{
anchors = (
{
name = center;
pos = (482,911);
}
);
layerId = UUID0;
shapes = (
{
closed = 1;
nodes = (
(824,487,o),
(873,500,o),
(910,508,c),
(911,576,l),
(815,576,l),
(815,1276,l),
(778,1294,l),
(776,1294,l),
(538,1276,l),
(538,1210,l),
(655,1188,l),
(655,662,l),
(611,631,o),
(530,587,o),
(435,587,cs),
(341,587,o),
(311,644,o),
(311,793,cs),
(311,1276,l),
(280,1294,l),
(279,1294,l),
(60,1276,l),
(60,1209,l),
(150,1188,l),
(150,785,ls),
(150,572,o),
(224,485,o),
(384,485,cs),
(496,485,o),
(613,548,o),
(673,601,c),
(673,556,ls),
(673,506,o),
(702,487,o),
(760,487,cs)
);
}
);
userData = {
RMXScaler = {
height = 70;
verticalShift = 500;
width = 80;
};
};
width = 971;
},
{
anchors = (
{
name = center;
pos = (541,921);
}
);
layerId = "DEBB1CE4-A72D-4960-969E-E04A036D2FA1";
shapes = (
{
closed = 1;
nodes = (
(901,486,o),
(967,499,o),
(1023,507,c),
(1022,627,l),
(961,627,l),
(961,1275,l),
(921,1297,l),
(915,1297,l),
(545,1279,l),
(545,1163,l),
(637,1145,l),
(637,704,l),
(613,671,o),
(567,662,o),
(532,662,cs),
(479,662,o),
(443,677,o),
(443,762,cs),
(443,1274,l),
(405,1296,l),
(403,1296,l),
(50,1278,l),
(50,1157,l),
(119,1144,l),
(119,773,ls),
(119,561,o),
(204,485,o),
(393,486,cs),
(519,486,o),
(633,541,o),
(675,604,c),
(675,593,ls),
(675,533,o),
(707,486,o),
(799,486,cs)
);
}
);
userData = {
RMXScaler = {
height = 70;
verticalShift = 500;
width = 82;
};
};
width = 1043;
},
{
anchors = (
{
name = center;
pos = (417,911);
}
);
background = {
shapes = (
{
closed = 1;
nodes = (
(38,572,l),
(38,500,l),
(355,500,l),
(355,572,l),
(272,584,l),
(272,1110,l),
(313,1147,o),
(383,1191,o),
(449,1191,cs),
(564,1191,o),
(571,1103,o),
(571,974,cs),
(571,584,l),
(495,572,l),
(495,500,l),
(810,500,l),
(810,573,l),
(726,584,l),
(726,994,ls),
(726,1173,o),
(696,1295,o),
(515,1295,cs),
(417,1295,o),
(313,1232,o),
(258,1176,c),
(260,1212,l),
(260,1270,l),
(231,1295,l),
(227,1295,l),
(29,1269,l),
(29,1189,l),
(117,1164,l),
(117,584,l)
);
}
);
};
layerId = "0E4B6E2E-ECAB-4D06-9686-B0B40AA31834";
shapes = (
{
closed = 1;
nodes = (
(716,487,o),
(748,500,o),
(781,508,c),
(782,576,l),
(716,576,l),
(716,1276,l),
(682,1294,l),
(679,1294,l),
(459,1276,l),
(459,1210,l),
(561,1188,l),
(561,666,l),
(529,629,o),
(474,585,o),
(405,585,cs),
(301,585,o),
(271,641,o),
(271,776,cs),
(271,1276,l),
(243,1294,l),
(242,1294,l),
(35,1276,l),
(35,1209,l),
(116,1188,l),
(116,767,ls),
(116,570,o),
(196,485,o),
(362,485,cs),
(447,485,o),
(531,544,o),
(576,600,c),
(576,556,ls),
(576,506,o),
(606,487,o),
(666,487,cs)
);
}
);
userData = {
RMXScaler = {
height = 70;
verticalShift = 500;
width = 80;
};
};
width = 822;
},
{
anchors = (
{
name = center;
pos = (471,921);
}
);
background = {
shapes = (
{
closed = 1;
nodes = (
(822,485,o),
(912,500,o),
(957,506,c),
(956,626,l),
(870,626,l),
(870,1274,l),
(828,1296,l),
(822,1296,l),
(526,1278,l),
(526,1162,l),
(557,1144,l),
(557,703,l),
(539,653,o),
(517,649,o),
(497,649,cs),
(448,649,o),
(400,668,o),
(400,738,cs),
(400,1274,l),
(360,1296,l),
(358,1296,l),
(14,1278,l),
(14,1157,l),
(87,1144,l),
(87,756,ls),
(87,563,o),
(191,485,o),
(396,485,cs),
(496,485,o),
(562,530,o),
(597,605,c),
(597,592,ls),
(597,532,o),
(629,485,o),
(721,485,cs)
);
}
);
};
layerId = "EA2265BD-E890-48C4-9E90-A53076E780C5";
shapes = (
{
closed = 1;
nodes = (
(790,486,o),
(876,499,o),
(932,507,c),
(931,627,l),
(855,627,l),
(855,1275,l),
(815,1297,l),
(809,1297,l),
(464,1279,l),
(464,1163,l),
(556,1145,l),
(556,671,l),
(532,658,o),
(506,649,o),
(459,649,cs),
(411,649,o),
(382,664,o),
(382,749,cs),
(382,1274,l),
(344,1296,l),
(342,1296,l),
(14,1278,l),
(14,1157,l),
(83,1144,l),
(83,773,ls),
(83,561,o),
(168,485,o),
(357,486,cs),
(453,486,o),
(552,541,o),
(594,604,c),
(594,593,ls),
(594,533,o),
(626,486,o),
(698,486,cs)
);
}
);
userData = {
RMXScaler = {
height = 70;
verticalShift = 500;
width = 82;
};
};
width = 962;
},
{
anchors = (
{
name = center;
pos = (407,851);
}
);
layerId = "C9B9556E-C2FD-4F62-BB40-44923C452C22";
shapes = (
{
closed = 1;
nodes = (
(728,488,o),
(773,500,o),
(808,509,c),
(808,534,l),
(728,539,l),
(728,1197,l),
(707,1214,l),
(677,1214,l),
(482,1160,l),
(482,1137,l),
(578,1110,l),
(578,639,l),
(531,605,o),
(451,571,o),
(363,571,cs),
(270,571,o),
(249,630,o),
(249,734,cs),
(249,1197,l),
(229,1214,l),
(198,1214,l),
(5,1160,l),
(5,1137,l),
(99,1110,l),
(99,733,ls),
(99,571,o),
(153,486,o),
(318,486,cs),
(428,486,o),
(532,551,o),
(581,616,c),
(581,548,ls),
(581,500,o),
(615,488,o),
(670,488,cs)
);
}
);
userData = {
RMXScaler = {
height = 70;
verticalShift = 500;
width = 80;
};
};
width = 838;
},
{
anchors = (
{
name = center;
pos = (487,861);
}
);
layerId = "184155C8-9F61-4F1C-9784-DDA8EA717636";
shapes = (
{
closed = 1;
nodes = (
(807,485,o),
(914,500,o),
(958,505,c),
(958,537,l),
(909,560,l),
(909,1191,l),
(846,1225,l),
(814,1225,l),
(487,1123,l),
(487,1086,l),
(567,1047,l),
(567,693,l),
(553,672,o),
(521,661,o),
(491,661,cs),
(447,661,o),
(421,678,o),
(421,738,cs),
(421,1191,l),
(363,1225,l),
(336,1225,l),
(10,1123,l),
(10,1086,l),
(76,1047,l),
(76,751,ls),
(76,547,o),
(164,486,o),
(318,486,cs),
(416,486,o),
(521,537,o),
(582,647,c),
(582,553,ls),
(582,501,o),
(610,485,o),
(699,485,cs)
);
}
);
userData = {
RMXScaler = {
height = 70;
verticalShift = 500;
width = 82;
};
};
width = 978;
},
{
anchors = (
{
name = center;
pos = (389,851);
}
);
layerId = "E96AC896-F5DF-475B-BBD9-C7FEC6A86D0E";
shapes = (
{
closed = 1;
nodes = (
(694,488,o),
(734,500,o),
(767,509,c),
(767,534,l),
(690,539,l),
(690,1197,l),
(670,1214,l),
(641,1214,l),
(453,1160,l),
(453,1137,l),
(547,1110,l),
(547,639,l),
(506,607,o),
(425,571,o),
(354,571,cs),
(269,571,o),
(249,622,o),
(249,717,cs),
(249,1197,l),
(229,1214,l),
(198,1214,l),
(10,1160,l),
(10,1137,l),
(105,1110,l),
(105,713,ls),
(105,565,o),
(152,486,o),
(317,486,cs),
(424,486,o),
(505,548,o),
(549,612,c),
(549,554,ls),
(549,506,o),
(580,488,o),
(627,488,cs)
);
}
);
userData = {
RMXScaler = {
height = 70;
verticalShift = 500;
width = 80;
};
};
width = 797;
},
{
anchors = (
{
name = center;
pos = (433,861);
}
);
layerId = "F2B10EEF-9DDC-48CA-970D-6B8C79870881";
shapes = (
{
closed = 1;
nodes = (
(717,485,o),
(813,500,o),
(852,505,c),
(852,537,l),
(808,560,l),
(808,1191,l),
(752,1225,l),
(724,1225,l),
(433,1123,l),
(433,1086,l),
(504,1047,l),
(504,693,l),
(491,672,o),
(463,661,o),
(436,661,cs),
(397,661,o),
(374,678,o),
(374,738,cs),
(374,1191,l),
(322,1225,l),
(298,1225,l),
(8,1123,l),
(8,1086,l),
(67,1047,l),
(67,751,ls),
(67,547,o),
(145,486,o),
(282,486,cs),
(369,486,o),
(463,537,o),
(517,647,c),
(517,553,ls),
(517,501,o),
(542,485,o),
(621,485,cs)
);
}
);
userData = {
RMXScaler = {
height = 70;
verticalShift = 500;
width = 82;
};
};
width = 902;
},
{
anchors = (
{
name = center;
pos = (447,911);
}
);
layerId = "779F1615-9D1A-4778-9767-9A030AA58B6C";
shapes = (
{
closed = 1;
nodes = (
(795,487,o),
(824,500,o),
(861,508,c),
(862,576,l),
(786,576,l),
(786,1276,l),
(749,1294,l),
(747,1294,l),
(509,1276,l),
(509,1210,l),
(626,1188,l),
(626,662,l),
(582,631,o),
(501,587,o),
(386,587,cs),
(292,587,o),
(262,644,o),
(262,793,cs),
(262,1276,l),
(231,1294,l),
(230,1294,l),
(11,1276,l),
(11,1209,l),
(101,1188,l),
(101,785,ls),
(101,572,o),
(175,485,o),
(335,485,cs),
(467,485,o),
(584,548,o),
(644,601,c),
(644,556,ls),
(644,506,o),
(673,487,o),
(731,487,cs)
);
}
);
width = 882;
},
{
anchors = (
{
name = center;
pos = (536,921);
}
);
layerId = "97BB7961-D669-43AB-8BBF-11FFD0C46A4B";
shapes = (
{
closed = 1;
nodes = (
(901,486,o),
(987,499,o),
(1043,507,c),
(1042,627,l),
(961,627,l),
(961,1275,l),
(921,1297,l),
(915,1297,l),
(535,1279,l),
(535,1163,l),
(627,1145,l),
(627,704,l),
(603,671,o),
(557,662,o),
(522,662,cs),
(469,662,o),
(433,677,o),
(433,762,cs),
(433,1274,l),
(395,1296,l),
(393,1296,l),
(30,1278,l),
(30,1157,l),
(99,1144,l),
(99,773,ls),
(99,561,o),
(184,485,o),
(383,486,cs),
(509,486,o),
(623,541,o),
(665,604,c),
(665,593,ls),
(665,533,o),
(697,486,o),
(789,486,cs)
);
}
);
width = 1063;
},
{
anchors = (
{
name = center;
pos = (409,851);
}
);
layerId = "2103F1D3-C390-4F79-A87D-298F85EA6916";
shapes = (
{
closed = 1;
nodes = (
(733,488,o),
(778,500,o),
(813,509,c),
(813,534,l),
(733,539,l),
(733,1197,l),
(712,1214,l),
(682,1214,l),
(487,1160,l),
(487,1137,l),
(583,1110,l),
(583,639,l),
(536,605,o),
(456,571,o),
(368,571,cs),
(275,571,o),
(254,630,o),
(254,734,cs),
(254,1197,l),
(234,1214,l),
(203,1214,l),
(10,1160,l),
(10,1137,l),
(104,1110,l),
(104,733,ls),
(104,571,o),
(158,486,o),
(323,486,cs),
(433,486,o),
(537,551,o),
(586,616,c),
(586,548,ls),
(586,500,o),
(620,488,o),
(675,488,cs)
);
}
);
width = 848;
},
{
anchors = (
{
name = center;
pos = (467,861);
}
);
layerId = "AFA1064D-EFC9-4C9F-B9B0-9118E41D87C4";
shapes = (
{
closed = 1;
nodes = (
(805,485,o),
(884,500,o),
(928,505,c),
(928,537,l),
(879,560,l),
(879,1191,l),
(816,1239,l),
(784,1239,l),
(467,1123,l),
(467,1086,l),
(547,1047,l),
(547,693,l),
(533,672,o),
(501,661,o),
(471,661,cs),
(427,661,o),
(401,678,o),
(401,738,cs),
(401,1191,l),
(343,1239,l),
(316,1239,l),
(0,1123,l),
(0,1086,l),
(66,1047,l),
(66,751,ls),
(66,547,o),
(154,486,o),
(298,486,cs),
(396,486,o),
(501,537,o),
(562,647,c),
(562,553,ls),
(562,480,o),
(618,485,o),
(707,485,cs)
);
}
);
width = 963;
}
);
metricLeft = u;
unicode = 7512;
userData = {
RMXScaler = {
source = u;
};
};
}
{
glyphname = perthousand;
layers = (
{
layerId = UUID0;
shapes = (
{
closed = 1;
nodes = (
(764,0,l),
(1404,1502,l),
(1274,1502,l),
(632,0,l)
);
},
{
closed = 1;
nodes = (
(656,648,o),
(840,794,o),
(840,1060,cs),
(840,1286,o),
(734,1464,o),
(494,1464,cs),
(294,1464,o),
(114,1314,o),
(114,1048,cs),
(114,832,o),
(248,648,o),
(460,648,cs)
);
},
{
closed = 1;
nodes = (
(340,744,o),
(268,884,o),
(268,1056,cs),
(268,1248,o),
(350,1368,o),
(482,1368,cs),
(618,1368,o),
(688,1238,o),
(688,1052,cs),
(688,862,o),
(604,744,o),
(472,744,cs)
);
},
{
closed = 1;
nodes = (
(1736,48,o),
(1922,194,o),
(1922,460,cs),
(1922,684,o),
(1814,864,o),
(1576,864,cs),
(1376,864,o),
(1196,714,o),
(1196,448,cs),
(1196,232,o),
(1328,48,o),
(1542,48,cs)
);
},
{
closed = 1;
nodes = (
(1422,144,o),
(1348,284,o),
(1348,458,cs),
(1348,648,o),
(1430,768,o),
(1564,768,cs),
(1700,768,o),
(1770,636,o),
(1770,452,cs),
(1770,262,o),
(1684,144,o),
(1552,144,cs)
);
},
{
closed = 1;
nodes = (
(2598,48,o),
(2784,194,o),
(2784,460,cs),
(2784,684,o),
(2676,864,o),
(2436,864,cs),
(2238,864,o),
(2056,714,o),
(2056,448,cs),
(2056,232,o),
(2190,48,o),
(2404,48,cs)
);
},
{
closed = 1;
nodes = (
(2284,144,o),
(2210,284,o),
(2210,458,cs),
(2210,648,o),
(2292,768,o),
(2426,768,cs),
(2562,768,o),
(2630,638,o),
(2630,452,cs),
(2630,260,o),
(2546,144,o),
(2414,144,cs)
);
}
);
width = 2898;
},
{
layerId = "DEBB1CE4-A72D-4960-969E-E04A036D2FA1";
shapes = (
{
closed = 1;
nodes = (
(856,0,l),
(1497,1502,l),
(1292,1502,l),
(651,0,l)
);
},
{
closed = 1;
nodes = (
(705,624,o),
(895,779,o),
(895,1063,cs),
(895,1304,o),
(795,1495,o),
(509,1495,cs),
(273,1495,o),
(89,1335,o),
(89,1051,cs),
(89,819,o),
(220,624,o),
(473,624,cs)
);
},
{
closed = 1;
nodes = (
(384,753,o),
(354,924,o),
(354,1063,cs),
(354,1239,o),
(388,1364,o),
(497,1364,cs),
(605,1364,o),
(632,1210,o),
(632,1055,cs),
(632,878,o),
(601,753,o),
(491,753,cs)
);
},
{
closed = 1;
nodes = (
(1876,20,o),
(2067,176,o),
(2067,460,cs),
(2067,700,o),
(1965,892,o),
(1681,892,cs),
(1444,892,o),
(1260,732,o),
(1260,448,cs),
(1260,217,o),
(1392,20,o),
(1644,20,cs)
);
},
{
closed = 1;
nodes = (
(1555,151,o),
(1524,321,o),
(1524,461,cs),
(1524,636,o),
(1559,761,o),
(1669,761,cs),
(1775,761,o),
(1803,606,o),
(1803,452,cs),
(1804,277,o),
(1771,151,o),
(1661,151,cs)
);
},
{
closed = 1;
nodes = (
(2809,20,o),
(3000,176,o),
(3000,460,cs),
(3000,700,o),
(2898,892,o),
(2613,892,cs),
(2377,892,o),
(2192,732,o),
(2192,448,cs),
(2192,217,o),
(2324,20,o),
(2577,20,cs)
);
},
{
closed = 1;
nodes = (
(2488,150,o),
(2457,321,o),
(2457,461,cs),
(2457,636,o),
(2491,762,o),
(2602,762,cs),
(2708,762,o),
(2735,607,o),
(2735,452,cs),
(2735,275,o),
(2704,150,o),
(2594,150,cs)
);
}
);
width = 3089;
},
{
layerId = "184155C8-9F61-4F1C-9784-DDA8EA717636";
shapes = (
{
closed = 1;
nodes = (
(732,0,l),
(1386,1502,l),
(1300,1502,l),
(646,0,l)
);
},
{
closed = 1;
nodes = (
(724,624,o),
(915,780,o),
(915,1064,cs),
(915,1304,o),
(813,1496,o),
(530,1496,cs),
(293,1496,o),
(109,1336,o),
(109,1052,cs),
(109,811,o),
(241,624,o),
(493,624,cs)
);
},
{
closed = 1;
nodes = (
(414,682,o),
(373,796,o),
(373,1065,cs),
(373,1328,o),
(416,1440,o),
(518,1440,cs),
(612,1440,o),
(652,1325,o),
(652,1056,cs),
(652,794,o),
(610,682,o),
(510,682,cs)
);
},
{
closed = 1;
nodes = (
(1735,20,o),
(1926,176,o),
(1926,460,cs),
(1926,700,o),
(1824,892,o),
(1540,892,cs),
(1303,892,o),
(1119,732,o),
(1119,448,cs),
(1119,217,o),
(1251,20,o),
(1503,20,cs)
);
},
{
closed = 1;
nodes = (
(1424,78,o),
(1383,192,o),
(1383,461,cs),
(1383,724,o),
(1426,836,o),
(1528,836,cs),
(1622,836,o),
(1662,721,o),
(1662,452,cs),
(1662,190,o),
(1620,78,o),
(1520,78,cs)
);
},
{
closed = 1;
nodes = (
(2615,17,o),
(2806,173,o),
(2806,457,cs),
(2806,697,o),
(2704,889,o),
(2420,889,cs),
(2183,889,o),
(1999,729,o),
(1999,445,cs),
(1999,214,o),
(2131,17,o),
(2383,17,cs)
);
},
{
closed = 1;
nodes = (
(2304,75,o),
(2263,189,o),
(2263,458,cs),
(2263,721,o),
(2306,833,o),
(2408,833,cs),
(2502,833,o),
(2542,718,o),
(2542,449,cs),
(2542,187,o),
(2500,75,o),
(2400,75,cs)
);
}
);
width = 2915;
},
{
layerId = "EA2265BD-E890-48C4-9E90-A53076E780C5";
shapes = (
{
closed = 1;
nodes = (
(773,0,l),
(1337,1502,l),
(1140,1502,l),
(576,0,l)
);
},
{
closed = 1;
nodes = (
(629,624,o),
(798,779,o),
(798,1063,cs),
(798,1304,o),
(711,1495,o),
(450,1495,cs),
(233,1495,o),
(69,1335,o),
(69,1051,cs),
(69,819,o),
(185,624,o),
(418,624,cs)
);
},
{
closed = 1;
nodes = (
(347,753,o),
(330,923,o),
(330,1063,cs),
(330,1239,o),
(349,1364,o),
(439,1364,cs),
(528,1364,o),
(542,1209,o),
(542,1055,cs),
(542,880,o),
(527,753,o),
(435,753,cs)
);
},
{
closed = 1;
nodes = (
(1680,21,o),
(1849,176,o),
(1849,460,cs),
(1849,701,o),
(1762,892,o),
(1501,892,cs),
(1284,892,o),
(1120,732,o),
(1120,448,cs),
(1120,216,o),
(1236,21,o),
(1469,21,cs)
);
},
{
closed = 1;
nodes = (
(1398,150,o),
(1381,320,o),
(1381,460,cs),
(1381,636,o),
(1400,761,o),
(1490,761,cs),
(1579,761,o),
(1593,606,o),
(1593,452,cs),
(1593,277,o),
(1578,150,o),
(1486,150,cs)
);
},
{
closed = 1;
nodes = (
(2520,21,o),
(2689,176,o),
(2689,460,cs),
(2689,701,o),
(2602,892,o),
(2341,892,cs),
(2124,892,o),
(1960,732,o),
(1960,448,cs),
(1960,216,o),
(2076,21,o),
(2309,21,cs)
);
},
{
closed = 1;
nodes = (
(2238,150,o),
(2221,320,o),
(2221,460,cs),
(2221,636,o),
(2240,761,o),
(2330,761,cs),
(2419,761,o),
(2433,606,o),
(2433,452,cs),
(2433,277,o),
(2418,150,o),
(2326,150,cs)
);
}
);
width = 2758;
},
{
layerId = "0E4B6E2E-ECAB-4D06-9686-B0B40AA31834";
shapes = (
{
closed = 1;
nodes = (
(714,0,l),
(1293,1502,l),
(1169,1502,l),
(587,0,l)
);
},
{
closed = 1;
nodes = (
(611,648,o),
(780,794,o),
(780,1060,cs),
(780,1285,o),
(683,1464,o),
(462,1464,cs),
(279,1464,o),
(114,1314,o),
(114,1048,cs),
(114,833,o),
(236,648,o),
(432,648,cs)
);
},
{
closed = 1;
nodes = (
(325,744,o),
(263,885,o),
(263,1056,cs),
(263,1247,o),
(334,1368,o),
(451,1368,cs),
(572,1368,o),
(632,1236,o),
(632,1052,cs),
(632,864,o),
(560,744,o),
(443,744,cs)
);
},
{
closed = 1;
nodes = (
(1597,48,o),
(1768,194,o),
(1768,460,cs),
(1768,682,o),
(1671,864,o),
(1450,864,cs),
(1267,864,o),
(1102,714,o),
(1102,448,cs),
(1102,232,o),
(1224,48,o),
(1420,48,cs)
);
},
{
closed = 1;
nodes = (
(1314,144,o),
(1250,285,o),
(1250,458,cs),
(1250,646,o),
(1320,768,o),
(1440,768,cs),
(1561,768,o),
(1621,634,o),
(1621,452,cs),
(1621,263,o),
(1547,144,o),
(1429,144,cs)
);
},
{
closed = 1;
nodes = (
(2377,48,o),
(2548,194,o),
(2548,460,cs),
(2548,682,o),
(2451,864,o),
(2230,864,cs),
(2047,864,o),
(1882,714,o),
(1882,448,cs),
(1882,232,o),
(2004,48,o),
(2200,48,cs)
);
},
{
closed = 1;
nodes = (
(2094,144,o),
(2030,285,o),
(2030,458,cs),
(2030,646,o),
(2100,768,o),
(2220,768,cs),
(2341,768,o),
(2401,634,o),
(2401,452,cs),
(2401,263,o),
(2327,144,o),
(2209,144,cs)
);
}
);
width = 2662;
},
{
layerId = "F2B10EEF-9DDC-48CA-970D-6B8C79870881";
shapes = (
{
closed = 1;
nodes = (
(758,0,l),
(1335,1502,l),
(1249,1502,l),
(673,0,l)
);
},
{
closed = 1;
nodes = (
(691,624,o),
(866,776,o),
(866,1075,cs),
(866,1294,o),
(774,1496,o),
(516,1496,cs),
(286,1496,o),
(119,1336,o),
(119,1056,cs),
(119,821,o),
(236,624,o),
(478,624,cs)
);
},
{
closed = 1;
nodes = (
(399,682,o),
(366,797,o),
(366,1059,cs),
(366,1328,o),
(400,1440,o),
(493,1440,cs),
(587,1440,o),
(619,1325,o),
(619,1060,cs),
(619,795,o),
(587,682,o),
(493,682,cs)
);
},
{
closed = 1;
nodes = (
(1715,20,o),
(1890,172,o),
(1890,471,cs),
(1890,690,o),
(1798,892,o),
(1540,892,cs),
(1310,892,o),
(1143,732,o),
(1143,452,cs),
(1143,217,o),
(1260,20,o),
(1502,20,cs)
);
},
{
closed = 1;
nodes = (
(1423,78,o),
(1390,193,o),
(1390,455,cs),
(1390,724,o),
(1424,836,o),
(1517,836,cs),
(1611,836,o),
(1643,721,o),
(1643,456,cs),
(1643,191,o),
(1611,78,o),
(1517,78,cs)
);
},
{
closed = 1;
nodes = (
(2545,20,o),
(2720,172,o),
(2720,471,cs),
(2720,690,o),
(2628,892,o),
(2370,892,cs),
(2140,892,o),
(1973,732,o),
(1973,452,cs),
(1973,217,o),
(2090,20,o),
(2332,20,cs)
);
},
{
closed = 1;
nodes = (
(2253,78,o),
(2220,193,o),
(2220,455,cs),
(2220,724,o),
(2254,836,o),
(2347,836,cs),
(2441,836,o),
(2473,721,o),
(2473,456,cs),
(2473,191,o),
(2441,78,o),
(2347,78,cs)
);
}
);
width = 2839;
},
{
layerId = "E96AC896-F5DF-475B-BBD9-C7FEC6A86D0E";
shapes = (
{
closed = 1;
nodes = (
(625,0,l),
(1168,1502,l),
(1059,1501,l),
(516,0,l)
);
},
{
closed = 1;
nodes = (
(558,649,o),
(720,795,o),
(720,1060,cs),
(720,1284,o),
(627,1463,o),
(412,1463,cs),
(232,1463,o),
(74,1313,o),
(74,1048,cs),
(74,835,o),
(191,649,o),
(382,649,cs)
);
},
{
closed = 1;
nodes = (
(270,687,o),
(205,857,o),
(205,1056,cs),
(205,1279,o),
(278,1425,o),
(401,1425,cs),
(522,1425,o),
(590,1284,o),
(590,1052,cs),
(590,830,o),
(515,687,o),
(393,687,cs)
);
},
{
closed = 1;
nodes = (
(1456,50,o),
(1618,196,o),
(1618,461,cs),
(1618,686,o),
(1525,864,o),
(1310,864,cs),
(1130,864,o),
(972,714,o),
(972,449,cs),
(972,234,o),
(1090,50,o),
(1281,50,cs)
);
},
{
closed = 1;
nodes = (
(1168,88,o),
(1103,258,o),
(1103,457,cs),
(1103,680,o),
(1176,826,o),
(1299,826,cs),
(1420,826,o),
(1488,686,o),
(1488,453,cs),
(1488,231,o),
(1413,88,o),
(1291,88,cs)
);
},
{
closed = 1;
nodes = (
(2211,50,o),
(2373,196,o),
(2373,461,cs),
(2373,686,o),
(2280,864,o),
(2065,864,cs),
(1885,864,o),
(1727,714,o),
(1727,449,cs),
(1727,234,o),
(1845,50,o),
(2036,50,cs)
);
},
{
closed = 1;
nodes = (
(1923,88,o),
(1858,258,o),
(1858,457,cs),
(1858,680,o),
(1931,826,o),
(2054,826,cs),
(2175,826,o),
(2243,686,o),
(2243,453,cs),
(2243,231,o),
(2168,88,o),
(2046,88,cs)
);
}
);
width = 2447;
},
{
layerId = "C9B9556E-C2FD-4F62-BB40-44923C452C22";
shapes = (
{
closed = 1;
nodes = (
(691,0,l),
(1291,1502,l),
(1180,1501,l),
(581,0,l)
);
},
{
closed = 1;
nodes = (
(632,648,o),
(810,794,o),
(810,1060,cs),
(810,1285,o),
(708,1464,o),
(473,1464,cs),
(278,1464,o),
(104,1314,o),
(104,1048,cs),
(104,833,o),
(233,648,o),
(441,648,cs)
);
},
{
closed = 1;
nodes = (
(311,686,o),
(235,854,o),
(235,1056,cs),
(235,1282,o),
(321,1426,o),
(461,1426,cs),
(600,1426,o),
(680,1287,o),
(680,1052,cs),
(680,828,o),
(592,686,o),
(452,686,cs)
);
},
{
closed = 1;
nodes = (
(1599,49,o),
(1777,195,o),
(1777,461,cs),
(1777,686,o),
(1675,865,o),
(1440,865,cs),
(1245,865,o),
(1071,715,o),
(1071,449,cs),
(1071,234,o),
(1200,49,o),
(1408,49,cs)
);
},
{
closed = 1;
nodes = (
(1278,87,o),
(1202,255,o),
(1202,457,cs),
(1202,683,o),
(1288,827,o),
(1428,827,cs),
(1567,827,o),
(1647,688,o),
(1647,453,cs),
(1647,229,o),
(1559,87,o),
(1419,87,cs)
);
},
{
closed = 1;
nodes = (
(2409,49,o),
(2587,195,o),
(2587,461,cs),
(2587,686,o),
(2485,865,o),
(2250,865,cs),
(2055,865,o),
(1881,715,o),
(1881,449,cs),
(1881,234,o),
(2010,49,o),
(2218,49,cs)
);
},
{
closed = 1;
nodes = (
(2088,87,o),
(2012,255,o),
(2012,457,cs),
(2012,683,o),
(2098,827,o),
(2238,827,cs),
(2377,827,o),
(2457,688,o),
(2457,453,cs),
(2457,229,o),
(2369,87,o),
(2229,87,cs)
);
}
);
width = 2691;
},
{
layerId = "AFA1064D-EFC9-4C9F-B9B0-9118E41D87C4";
shapes = (
{
closed = 1;
nodes = (
(710,0,l),
(1364,1502,l),
(1278,1502,l),
(624,0,l)
);
},
{
closed = 1;
nodes = (
(713,624,o),
(911,780,o),
(911,1064,cs),
(911,1304,o),
(805,1496,o),
(511,1496,cs),
(264,1496,o),
(73,1336,o),
(73,1052,cs),
(73,811,o),
(210,624,o),
(472,624,cs)
);
},
{
closed = 1;
nodes = (
(390,682,o),
(347,796,o),
(347,1065,cs),
(347,1328,o),
(392,1440,o),
(498,1440,cs),
(596,1440,o),
(638,1325,o),
(638,1056,cs),
(638,794,o),
(594,682,o),
(490,682,cs)
);
},
{
closed = 1;
nodes = (
(1724,20,o),
(1922,176,o),
(1922,460,cs),
(1922,700,o),
(1816,892,o),
(1521,892,cs),
(1274,892,o),
(1083,732,o),
(1083,448,cs),
(1083,217,o),
(1220,20,o),
(1482,20,cs)
);
},
{
closed = 1;
nodes = (
(1400,78,o),
(1357,192,o),
(1357,461,cs),
(1357,724,o),
(1402,836,o),
(1508,836,cs),
(1606,836,o),
(1648,721,o),
(1648,452,cs),
(1648,190,o),
(1604,78,o),
(1500,78,cs)
);
},
{
closed = 1;
nodes = (
(2664,20,o),
(2862,176,o),
(2862,460,cs),
(2862,700,o),
(2756,892,o),
(2461,892,cs),
(2214,892,o),
(2023,732,o),
(2023,448,cs),
(2023,217,o),
(2160,20,o),
(2422,20,cs)
);
},
{
closed = 1;
nodes = (
(2340,78,o),
(2297,192,o),
(2297,461,cs),
(2297,724,o),
(2342,836,o),
(2448,836,cs),
(2546,836,o),
(2588,721,o),
(2588,452,cs),
(2588,190,o),
(2544,78,o),
(2440,78,cs)
);
}
);
width = 2935;
},
{
layerId = "2103F1D3-C390-4F79-A87D-298F85EA6916";
shapes = (
{
closed = 1;
nodes = (
(745,0,l),
(1383,1502,l),
(1270,1501,l),
(633,0,l)
);
},
{
closed = 1;
nodes = (
(682,648,o),
(872,794,o),
(872,1060,cs),
(872,1285,o),
(763,1464,o),
(515,1464,cs),
(310,1464,o),
(124,1314,o),
(124,1048,cs),
(124,833,o),
(262,648,o),
(481,648,cs)
);
},
{
closed = 1;
nodes = (
(339,686,o),
(255,854,o),
(255,1056,cs),
(255,1281,o),
(350,1426,o),
(502,1426,cs),
(654,1426,o),
(742,1286,o),
(742,1052,cs),
(742,829,o),
(645,686,o),
(493,686,cs)
);
},
{
closed = 1;
nodes = (
(1713,49,o),
(1903,195,o),
(1903,461,cs),
(1903,686,o),
(1794,865,o),
(1546,865,cs),
(1341,865,o),
(1155,715,o),
(1155,449,cs),
(1155,234,o),
(1293,49,o),
(1512,49,cs)
);
},
{
closed = 1;
nodes = (
(1370,87,o),
(1286,255,o),
(1286,457,cs),
(1286,682,o),
(1381,827,o),
(1533,827,cs),
(1685,827,o),
(1773,687,o),
(1773,453,cs),
(1773,230,o),
(1676,87,o),
(1524,87,cs)
);
},
{
closed = 1;
nodes = (
(2563,49,o),
(2753,195,o),
(2753,461,cs),
(2753,686,o),
(2644,865,o),
(2396,865,cs),
(2191,865,o),
(2005,715,o),
(2005,449,cs),
(2005,234,o),
(2143,49,o),
(2362,49,cs)
);
},
{
closed = 1;
nodes = (
(2220,87,o),
(2136,255,o),
(2136,457,cs),
(2136,682,o),
(2231,827,o),
(2383,827,cs),
(2535,827,o),
(2623,687,o),
(2623,453,cs),
(2623,230,o),
(2526,87,o),
(2374,87,cs)
);
}
);
width = 2877;
},
{
layerId = "779F1615-9D1A-4778-9767-9A030AA58B6C";
shapes = (
{
closed = 1;
nodes = (
(796,0,l),
(1461,1502,l),
(1331,1502,l),
(664,0,l)
);
},
{
closed = 1;
nodes = (
(693,648,o),
(885,794,o),
(885,1060,cs),
(885,1286,o),
(774,1464,o),
(529,1464,cs),
(327,1464,o),
(139,1314,o),
(139,1048,cs),
(139,832,o),
(279,648,o),
(494,648,cs)
);
},
{
closed = 1;
nodes = (
(369,744,o),
(292,885,o),
(292,1056,cs),
(292,1247,o),
(380,1368,o),
(518,1368,cs),
(659,1368,o),
(733,1238,o),
(733,1052,cs),
(733,863,o),
(644,744,o),
(507,744,cs)
);
},
{
closed = 1;
nodes = (
(1794,48,o),
(1987,194,o),
(1987,460,cs),
(1987,683,o),
(1875,864,o),
(1632,864,cs),
(1429,864,o),
(1241,714,o),
(1241,448,cs),
(1241,233,o),
(1378,48,o),
(1597,48,cs)
);
},
{
closed = 1;
nodes = (
(1471,144,o),
(1393,285,o),
(1393,458,cs),
(1393,648,o),
(1480,768,o),
(1618,768,cs),
(1761,768,o),
(1836,636,o),
(1836,452,cs),
(1836,263,o),
(1744,144,o),
(1607,144,cs)
);
},
{
closed = 1;
nodes = (
(2664,48,o),
(2857,194,o),
(2857,460,cs),
(2857,683,o),
(2745,864,o),
(2502,864,cs),
(2299,864,o),
(2111,714,o),
(2111,448,cs),
(2111,233,o),
(2248,48,o),
(2467,48,cs)
);
},
{
closed = 1;
nodes = (
(2341,144,o),
(2263,285,o),
(2263,458,cs),
(2263,648,o),
(2350,768,o),
(2488,768,cs),
(2631,768,o),
(2706,636,o),
(2706,452,cs),
(2706,263,o),
(2614,144,o),
(2477,144,cs)
);
}
);
userData = {
com.schriftgestaltung.Glyphs.lastChange = "2019-04-25 21:50:43 +0000";
};
width = 2996;
},
{
layerId = "97BB7961-D669-43AB-8BBF-11FFD0C46A4B";
shapes = (
{
closed = 1;
nodes = (
(893,0,l),
(1564,1502,l),
(1351,1502,l),
(681,0,l)
);
},
{
closed = 1;
nodes = (
(755,624,o),
(965,779,o),
(965,1063,cs),
(965,1304,o),
(852,1495,o),
(546,1495,cs),
(293,1495,o),
(89,1335,o),
(89,1051,cs),
(89,819,o),
(236,624,o),
(506,624,cs)
);
},
{
closed = 1;
nodes = (
(429,753,o),
(398,926,o),
(398,1063,cs),
(398,1237,o),
(434,1364,o),
(533,1364,cs),
(629,1364,o),
(658,1209,o),
(658,1055,cs),
(658,878,o),
(623,753,o),
(525,753,cs)
);
},
{
closed = 1;
nodes = (
(1955,21,o),
(2165,176,o),
(2165,460,cs),
(2165,701,o),
(2052,892,o),
(1746,892,cs),
(1493,892,o),
(1289,732,o),
(1289,448,cs),
(1289,216,o),
(1436,21,o),
(1706,21,cs)
);
},
{
closed = 1;
nodes = (
(1629,150,o),
(1598,323,o),
(1598,460,cs),
(1598,634,o),
(1634,761,o),
(1733,761,cs),
(1829,761,o),
(1858,605,o),
(1858,452,cs),
(1858,276,o),
(1823,150,o),
(1725,150,cs)
);
},
{
closed = 1;
nodes = (
(2953,21,o),
(3163,176,o),
(3163,460,cs),
(3163,701,o),
(3050,892,o),
(2744,892,cs),
(2491,892,o),
(2287,732,o),
(2287,448,cs),
(2287,216,o),
(2434,21,o),
(2704,21,cs)
);
},
{
closed = 1;
nodes = (
(2627,150,o),
(2596,323,o),
(2596,460,cs),
(2596,634,o),
(2632,761,o),
(2731,761,cs),
(2827,761,o),
(2856,605,o),
(2856,452,cs),
(2856,276,o),
(2821,150,o),
(2723,150,cs)
);
}
);
width = 3252;
}
);
metricLeft = percent;
metricRight = percent;
unicode = 8240;
}
{
glyphname = guilsinglright;
layers = (
{
layerId = UUID0;
shapes = (
{
closed = 1;
nodes = (
(132,1028,l),
(492,600,l),
(132,186,l),
(222,114,l),
(682,532,l),
(682,664,l),
(222,1094,l)
);
}
);
width = 794;
},
{
layerId = "DEBB1CE4-A72D-4960-969E-E04A036D2FA1";
shapes = (
{
closed = 1;
nodes = (
(132,1068,l),
(428,596,l),
(132,137,l),
(259,80,l),
(732,520,l),
(732,673,l),
(259,1122,l)
);
}
);
width = 844;
},
{
layerId = "184155C8-9F61-4F1C-9784-DDA8EA717636";
shapes = (
{
closed = 1;
nodes = (
(108,986,l),
(362,526,l),
(108,79,l),
(155,57,l),
(645,497,l),
(645,556,l),
(155,1005,l)
);
}
);
width = 731;
},
{
layerId = "EA2265BD-E890-48C4-9E90-A53076E780C5";
shapes = (
{
closed = 1;
nodes = (
(132,1068,l),
(428,596,l),
(132,137,l),
(259,80,l),
(732,520,l),
(732,673,l),
(259,1122,l)
);
}
);
width = 844;
},
{
layerId = "0E4B6E2E-ECAB-4D06-9686-B0B40AA31834";
shapes = (
{
closed = 1;
nodes = (
(132,1028,l),
(492,600,l),
(132,186,l),
(222,114,l),
(682,532,l),
(682,664,l),
(222,1094,l)
);
}
);
width = 794;
},
{
layerId = "F2B10EEF-9DDC-48CA-970D-6B8C79870881";
shapes = (
{
closed = 1;
nodes = (
(92,984,l),
(323,526,l),
(92,81,l),
(139,57,l),
(586,494,l),
(586,559,l),
(139,1005,l)
);
}
);
width = 654;
},
{
layerId = "E96AC896-F5DF-475B-BBD9-C7FEC6A86D0E";
shapes = (
{
closed = 1;
nodes = (
(120,889,l),
(380,521,l),
(120,160,l),
(156,129,l),
(510,495,l),
(510,543,l),
(156,919,l)
);
}
);
width = 580;
},
{
layerId = "C9B9556E-C2FD-4F62-BB40-44923C452C22";
shapes = (
{
closed = 1;
nodes = (
(92,893,l),
(376,521,l),
(92,160,l),
(131,129,l),
(529,493,l),
(529,545,l),
(131,919,l)
);
}
);
width = 619;
},
{
layerId = "AFA1064D-EFC9-4C9F-B9B0-9118E41D87C4";
shapes = (
{
closed = 1;
nodes = (
(104,986,l),
(396,526,l),
(104,79,l),
(149,57,l),
(695,495,l),
(695,558,l),
(149,1005,l)
);
}
);
width = 783;
},
{
layerId = "2103F1D3-C390-4F79-A87D-298F85EA6916";
shapes = (
{
closed = 1;
nodes = (
(120,891,l),
(437,521,l),
(120,162,l),
(159,129,l),
(596,495,l),
(596,543,l),
(159,919,l)
);
}
);
width = 700;
},
{
layerId = "779F1615-9D1A-4778-9767-9A030AA58B6C";
shapes = (
{
closed = 1;
nodes = (
(132,1028,l),
(502,600,l),
(132,186,l),
(222,114,l),
(682,532,l),
(682,664,l),
(222,1094,l)
);
}
);
userData = {
com.schriftgestaltung.Glyphs.lastChange = "2019-04-25 21:50:43 +0000";
};
width = 794;
},
{
layerId = "97BB7961-D669-43AB-8BBF-11FFD0C46A4B";
shapes = (
{
closed = 1;
nodes = (
(132,1068,l),
(428,596,l),
(132,137,l),
(259,80,l),
(732,520,l),
(732,673,l),
(259,1122,l)
);
}
);
width = 844;
}
);
unicode = 8250;
userData = {
KernOnSpecialSpacing = {
L = quotes;
R = quotes;
};
};
}
{
glyphname = won;
layers = (
{
layerId = UUID0;
shapes = (
{
closed = 1;
nodes = (
(750,-10,l),
(930,568,l),
(1210,568,l),
(1384,-10,l),
(1548,-10,l),
(1716,568,l),
(2048,568,l),
(2048,664,l),
(1746,664,l),
(1844,1016,l),
(2092,1016,l),
(2092,1110,l),
(1874,1110,l),
(1952,1376,l),
(2082,1400,l),
(2082,1486,l),
(1614,1486,l),
(1614,1400,l),
(1816,1376,l),
(1748,1110,l),
(1198,1110,l),
(1118,1376,l),
(1310,1400,l),
(1310,1486,l),
(812,1486,l),
(812,1400,l),
(962,1376,l),
(1016,1206,l),
(984,1110,l),
(416,1110,l),
(336,1376,l),
(516,1400,l),
(516,1486,l),
(34,1486,l),
(34,1400,l),
(172,1376,l),
(254,1110,l),
(30,1110,l),
(30,1016,l),
(288,1016,l),
(392,664,l),
(72,664,l),
(72,568,l),
(424,568,l),
(604,-10,l)
);
},
{
closed = 1;
nodes = (
(618,452,l),
(582,568,l),
(806,568,l),
(768,452,l),
(692,136,l)
);
},
{
closed = 1;
nodes = (
(1392,452,l),
(1356,568,l),
(1594,568,l),
(1560,452,l),
(1480,108,l)
);
},
{
closed = 1;
nodes = (
(448,1016,l),
(952,1016,l),
(840,664,l),
(550,664,l)
);
},
{
closed = 1;
nodes = (
(1066,1016,l),
(1080,1016,l),
(1180,664,l),
(962,664,l)
);
},
{
closed = 1;
nodes = (
(1232,1016,l),
(1720,1016,l),
(1624,664,l),
(1326,664,l)
);
}
);
width = 2128;
},
{
layerId = "DEBB1CE4-A72D-4960-969E-E04A036D2FA1";
shapes = (
{
closed = 1;
nodes = (
(883,-10,l),
(1032,518,l),
(1240,518,l),
(1397,-10,l),
(1693,-10,l),
(1843,518,l),
(2182,518,l),
(2182,651,l),
(1880,651,l),
(1973,979,l),
(2201,979,l),
(2201,1111,l),
(2011,1111,l),
(2072,1321,l),
(2200,1350,l),
(2200,1486,l),
(1701,1486,l),
(1701,1350,l),
(1875,1321,l),
(1823,1111,l),
(1378,1111,l),
(1320,1320,l),
(1499,1350,l),
(1499,1486,l),
(861,1486,l),
(861,1350,l),
(999,1320,l),
(1049,1151,l),
(1036,1111,l),
(568,1111,l),
(512,1321,l),
(661,1350,l),
(661,1486,l),
(59,1486,l),
(59,1350,l),
(176,1320,l),
(241,1111,l),
(60,1111,l),
(60,979,l),
(284,979,l),
(383,651,l),
(78,651,l),
(78,518,l),
(424,518,l),
(589,-10,l)
);
},
{
closed = 1;
nodes = (
(748,449,l),
(728,518,l),
(862,518,l),
(842,449,l),
(800,245,l)
);
},
{
closed = 1;
nodes = (
(1559,449,l),
(1539,518,l),
(1675,518,l),
(1658,449,l),
(1610,231,l)
);
},
{
closed = 1;
nodes = (
(605,979,l),
(998,979,l),
(901,651,l),
(693,651,l)
);
},
{
closed = 1;
nodes = (
(1132,874,l),
(1141,874,l),
(1201,651,l),
(1068,651,l)
);
},
{
closed = 1;
nodes = (
(1415,979,l),
(1791,979,l),
(1708,651,l),
(1503,651,l)
);
}
);
width = 2264;
},
{
guides = (
{
angle = 254.1299;
pos = (2052,1410);
}
);
layerId = "184155C8-9F61-4F1C-9784-DDA8EA717636";
shapes = (
{
closed = 1;
nodes = (
(839,0,l),
(1007,594,l),
(1189,594,l),
(1361,0,l),
(1651,0,l),
(1819,594,l),
(2182,594,l),
(2182,655,l),
(1837,655,l),
(1941,1015,l),
(2201,1015,l),
(2201,1075,l),
(1957,1075,l),
(2050,1417,l),
(2190,1452,l),
(2190,1486,l),
(1795,1486,l),
(1795,1452,l),
(1960,1417,l),
(1867,1075,l),
(1418,1075,l),
(1323,1417,l),
(1446,1452,l),
(1446,1486,l),
(861,1486,l),
(861,1452,l),
(940,1417,l),
(1030,1117,l),
(1042,1075,l),
(609,1075,l),
(516,1417,l),
(641,1452,l),
(641,1486,l),
(31,1486,l),
(31,1452,l),
(116,1417,l),
(224,1075,l),
(60,1075,l),
(60,1015,l),
(242,1015,l),
(352,655,l),
(78,655,l),
(78,594,l),
(370,594,l),
(546,0,l)
);
},
{
closed = 1;
nodes = (
(776,449,l),
(738,594,l),
(930,594,l),
(886,449,l),
(824,218,l)
);
},
{
closed = 1;
nodes = (
(1587,449,l),
(1549,594,l),
(1739,594,l),
(1703,449,l),
(1635,204,l)
);
},
{
closed = 1;
nodes = (
(625,1015,l),
(1061,1015,l),
(948,655,l),
(722,655,l)
);
},
{
closed = 1;
nodes = (
(1098,898,l),
(1103,898,l),
(1171,655,l),
(1027,655,l)
);
},
{
closed = 1;
nodes = (
(1435,1015,l),
(1851,1015,l),
(1756,655,l),
(1532,655,l)
);
}
);
width = 2244;
},
{
layerId = "EA2265BD-E890-48C4-9E90-A53076E780C5";
shapes = (
{
closed = 1;
nodes = (
(806,-10,l),
(937,518,l),
(1113,518,l),
(1244,-10,l),
(1538,-10,l),
(1670,518,l),
(1971,518,l),
(1971,651,l),
(1705,651,l),
(1785,979,l),
(1982,979,l),
(1982,1111,l),
(1820,1111,l),
(1872,1321,l),
(1984,1350,l),
(1984,1486,l),
(1530,1486,l),
(1530,1350,l),
(1677,1321,l),
(1634,1111,l),
(1260,1111,l),
(1211,1320,l),
(1370,1350,l),
(1370,1486,l),
(770,1486,l),
(770,1350,l),
(895,1320,l),
(938,1151,l),
(927,1111,l),
(527,1111,l),
(480,1321,l),
(610,1350,l),
(610,1486,l),
(49,1486,l),
(49,1350,l),
(152,1320,l),
(208,1111,l),
(50,1111,l),
(50,979,l),
(247,979,l),
(332,651,l),
(60,651,l),
(60,518,l),
(370,518,l),
(516,-10,l)
);
},
{
closed = 1;
nodes = (
(686,449,l),
(671,518,l),
(771,518,l),
(758,449,l),
(728,245,l)
);
},
{
closed = 1;
nodes = (
(1416,449,l),
(1402,518,l),
(1505,518,l),
(1494,449,l),
(1457,231,l)
);
},
{
closed = 1;
nodes = (
(561,979,l),
(890,979,l),
(806,651,l),
(637,651,l)
);
},
{
closed = 1;
nodes = (
(1017,874,l),
(1025,874,l),
(1077,651,l),
(970,651,l)
);
},
{
closed = 1;
nodes = (
(1294,979,l),
(1606,979,l),
(1534,651,l),
(1374,651,l)
);
}
);
width = 2037;
},
{
layerId = "0E4B6E2E-ECAB-4D06-9686-B0B40AA31834";
shapes = (
{
closed = 1;
nodes = (
(663,-10,l),
(818,570,l),
(1050,570,l),
(1201,-10,l),
(1360,-10,l),
(1509,570,l),
(1793,570,l),
(1793,662,l),
(1535,662,l),
(1621,1018,l),
(1828,1018,l),
(1828,1108,l),
(1646,1108,l),
(1712,1376,l),
(1825,1400,l),
(1825,1486,l),
(1408,1486,l),
(1408,1400,l),
(1580,1376,l),
(1523,1108,l),
(1058,1108,l),
(991,1376,l),
(1156,1400,l),
(1156,1486,l),
(709,1486,l),
(709,1400,l),
(839,1376,l),
(883,1214,l),
(856,1108,l),
(373,1108,l),
(307,1376,l),
(460,1400,l),
(460,1486,l),
(30,1486,l),
(30,1400,l),
(147,1376,l),
(216,1108,l),
(25,1108,l),
(25,1018,l),
(245,1018,l),
(337,662,l),
(58,662,l),
(58,570,l),
(365,570,l),
(520,-10,l)
);
},
{
closed = 1;
nodes = (
(547,452,l),
(517,570,l),
(702,570,l),
(672,452,l),
(610,136,l)
);
},
{
closed = 1;
nodes = (
(1225,452,l),
(1194,570,l),
(1391,570,l),
(1364,452,l),
(1298,108,l)
);
},
{
closed = 1;
nodes = (
(400,1018,l),
(829,1018,l),
(731,662,l),
(489,662,l)
);
},
{
closed = 1;
nodes = (
(933,1018,l),
(945,1018,l),
(1026,662,l),
(845,662,l)
);
},
{
closed = 1;
nodes = (
(1085,1018,l),
(1500,1018,l),
(1416,662,l),
(1168,662,l)
);
}
);
width = 1859;
},
{
layerId = "F2B10EEF-9DDC-48CA-970D-6B8C79870881";
shapes = (
{
closed = 1;
nodes = (
(753,0,l),
(892,594,l),
(1056,594,l),
(1195,0,l),
(1483,0,l),
(1623,594,l),
(1943,594,l),
(1943,655,l),
(1641,655,l),
(1728,1015,l),
(1954,1015,l),
(1954,1075,l),
(1745,1075,l),
(1823,1417,l),
(1946,1452,l),
(1946,1486,l),
(1595,1486,l),
(1595,1452,l),
(1733,1417,l),
(1655,1075,l),
(1280,1075,l),
(1201,1417,l),
(1316,1452,l),
(1316,1486,l),
(771,1486,l),
(771,1452,l),
(847,1417,l),
(925,1117,l),
(934,1075,l),
(551,1075,l),
(472,1417,l),
(586,1452,l),
(586,1486,l),
(41,1486,l),
(41,1452,l),
(118,1417,l),
(206,1075,l),
(52,1075,l),
(52,1015,l),
(223,1015,l),
(308,655,l),
(62,655,l),
(62,594,l),
(323,594,l),
(466,0,l)
);
},
{
closed = 1;
nodes = (
(686,449,l),
(656,594,l),
(814,594,l),
(783,448,l),
(731,204,l)
);
},
{
closed = 1;
nodes = (
(1416,449,l),
(1386,594,l),
(1544,594,l),
(1512,446,l),
(1461,204,l)
);
},
{
closed = 1;
nodes = (
(563,1015,l),
(921,1015,l),
(834,655,l),
(640,655,l)
);
},
{
closed = 1;
nodes = (
(979,904,l),
(983,888,l),
(1038,655,l),
(915,655,l)
);
},
{
closed = 1;
nodes = (
(1293,1015,l),
(1639,1015,l),
(1559,655,l),
(1370,655,l)
);
}
);
width = 2007;
},
{
layerId = "E96AC896-F5DF-475B-BBD9-C7FEC6A86D0E";
shapes = (
{
closed = 1;
nodes = (
(643,-16,l),
(797,584,l),
(1011,584,l),
(1153,-16,l),
(1279,-16,l),
(1437,584,l),
(1752,584,l),
(1752,648,l),
(1454,648,l),
(1555,1032,l),
(1787,1032,l),
(1787,1095,l),
(1571,1095,l),
(1656,1417,l),
(1771,1451,l),
(1771,1486,l),
(1385,1486,l),
(1385,1451,l),
(1560,1417,l),
(1482,1095,l),
(1031,1095,l),
(956,1429,l),
(1112,1451,l),
(1112,1486,l),
(660,1486,l),
(660,1451,l),
(807,1429,l),
(872,1183,l),
(850,1095,l),
(378,1095,l),
(299,1418,l),
(454,1452,l),
(454,1486,l),
(25,1487,l),
(25,1453,l),
(151,1418,l),
(233,1095,l),
(10,1095,l),
(10,1032,l),
(249,1032,l),
(346,648,l),
(44,648,l),
(44,584,l),
(363,584,l),
(515,-16,l)
);
},
{
closed = 1;
nodes = (
(588,229,l),
(502,584,l),
(720,584,l),
(631,235,l),
(610,85,l)
);
},
{
closed = 1;
nodes = (
(1226,228,l),
(1146,584,l),
(1358,584,l),
(1273,235,l),
(1248,85,l)
);
},
{
closed = 1;
nodes = (
(393,1032,l),
(834,1032,l),
(736,648,l),
(486,648,l)
);
},
{
closed = 1;
nodes = (
(909,1018,l),
(919,976,l),
(996,648,l),
(814,648,l)
);
},
{
closed = 1;
nodes = (
(1045,1032,l),
(1467,1032,l),
(1373,648,l),
(1132,648,l)
);
}
);
width = 1803;
},
{
layerId = "C9B9556E-C2FD-4F62-BB40-44923C452C22";
shapes = (
{
closed = 1;
nodes = (
(709,-16,l),
(880,584,l),
(1115,584,l),
(1271,-16,l),
(1402,-16,l),
(1574,584,l),
(1913,584,l),
(1913,648,l),
(1592,648,l),
(1702,1032,l),
(1952,1032,l),
(1952,1094,l),
(1720,1094,l),
(1812,1417,l),
(1931,1451,l),
(1931,1486,l),
(1530,1486,l),
(1530,1451,l),
(1712,1417,l),
(1628,1094,l),
(1133,1094,l),
(1053,1429,l),
(1221,1451,l),
(1221,1486,l),
(751,1486,l),
(751,1451,l),
(895,1429,l),
(962,1183,l),
(938,1094,l),
(415,1094,l),
(329,1418,l),
(491,1452,l),
(491,1486,l),
(24,1487,l),
(24,1453,l),
(166,1418,l),
(259,1094,l),
(20,1094,l),
(20,1032,l),
(276,1032,l),
(386,648,l),
(58,648,l),
(58,584,l),
(404,584,l),
(576,-16,l)
);
},
{
closed = 1;
nodes = (
(652,203,l),
(551,584,l),
(799,584,l),
(697,209,l),
(673,53,l)
);
},
{
closed = 1;
nodes = (
(1347,202,l),
(1255,584,l),
(1494,584,l),
(1396,209,l),
(1368,53,l)
);
},
{
closed = 1;
nodes = (
(432,1032,l),
(921,1032,l),
(816,648,l),
(534,648,l)
);
},
{
closed = 1;
nodes = (
(1003,1018,l),
(1013,981,l),
(1099,648,l),
(898,648,l)
);
},
{
closed = 1;
nodes = (
(1148,1032,l),
(1611,1032,l),
(1511,648,l),
(1240,648,l)
);
}
);
width = 1978;
},
{
layerId = "AFA1064D-EFC9-4C9F-B9B0-9118E41D87C4";
shapes = (
{
closed = 1;
nodes = (
(916,0,l),
(1116,594,l),
(1335,594,l),
(1538,0,l),
(1828,0,l),
(2021,594,l),
(2425,594,l),
(2425,655,l),
(2039,655,l),
(2158,1015,l),
(2452,1015,l),
(2452,1075,l),
(2174,1075,l),
(2282,1417,l),
(2437,1452,l),
(2437,1486,l),
(2002,1486,l),
(2002,1452,l),
(2192,1417,l),
(2084,1075,l),
(1577,1075,l),
(1469,1415,l),
(1611,1452,l),
(1611,1486,l),
(962,1486,l),
(962,1452,l),
(1053,1417,l),
(1158,1117,l),
(1172,1075,l),
(666,1075,l),
(558,1417,l),
(696,1452,l),
(696,1486,l),
(41,1486,l),
(41,1452,l),
(141,1417,l),
(264,1075,l),
(72,1075,l),
(72,1015,l),
(282,1015,l),
(406,655,l),
(98,655,l),
(98,594,l),
(423,594,l),
(627,0,l)
);
},
{
closed = 1;
nodes = (
(851,449,l),
(808,594,l),
(1039,594,l),
(987,449,l),
(910,218,l)
);
},
{
closed = 1;
nodes = (
(1761,449,l),
(1721,594,l),
(1941,594,l),
(1897,449,l),
(1821,218,l)
);
},
{
closed = 1;
nodes = (
(682,1015,l),
(1190,1015,l),
(1059,655,l),
(793,655,l)
);
},
{
closed = 1;
nodes = (
(1227,898,l),
(1233,898,l),
(1318,655,l),
(1138,655,l)
);
},
{
closed = 1;
nodes = (
(1593,1015,l),
(2068,1015,l),
(1958,655,l),
(1703,655,l)
);
}
);
width = 2505;
},
{
layerId = "2103F1D3-C390-4F79-A87D-298F85EA6916";
shapes = (
{
closed = 1;
nodes = (
(760,-16,l),
(944,584,l),
(1199,584,l),
(1367,-16,l),
(1503,-16,l),
(1686,584,l),
(2035,584,l),
(2035,648,l),
(1705,648,l),
(1823,1032,l),
(2078,1032,l),
(2078,1094,l),
(1841,1094,l),
(1940,1417,l),
(2063,1451,l),
(2063,1486,l),
(1646,1486,l),
(1646,1451,l),
(1836,1417,l),
(1745,1094,l),
(1216,1094,l),
(1129,1429,l),
(1304,1451,l),
(1304,1486,l),
(815,1486,l),
(815,1451,l),
(964,1429,l),
(1034,1183,l),
(1008,1094,l),
(446,1094,l),
(354,1418,l),
(523,1452,l),
(523,1486,l),
(37,1487,l),
(37,1453,l),
(185,1418,l),
(284,1094,l),
(30,1094,l),
(30,1032,l),
(302,1032,l),
(419,648,l),
(72,648,l),
(72,584,l),
(439,584,l),
(621,-16,l)
);
},
{
closed = 1;
nodes = (
(700,203,l),
(592,584,l),
(857,584,l),
(747,209,l),
(722,53,l)
);
},
{
closed = 1;
nodes = (
(1446,202,l),
(1347,584,l),
(1602,584,l),
(1497,209,l),
(1468,53,l)
);
},
{
closed = 1;
nodes = (
(464,1032,l),
(989,1031,l),
(876,648,l),
(573,648,l)
);
},
{
closed = 1;
nodes = (
(1077,1018,l),
(1091,968,l),
(1181,648,l),
(964,648,l)
);
},
{
closed = 1;
nodes = (
(1232,1032,l),
(1728,1032,l),
(1620,648,l),
(1331,648,l)
);
}
);
width = 2114;
},
{
layerId = "779F1615-9D1A-4778-9767-9A030AA58B6C";
shapes = (
{
closed = 1;
nodes = (
(816,-10,l),
(1013,568,l),
(1326,568,l),
(1516,-10,l),
(1680,-10,l),
(1864,568,l),
(2226,568,l),
(2226,664,l),
(1897,664,l),
(2004,1016,l),
(2281,1016,l),
(2281,1110,l),
(2036,1110,l),
(2122,1376,l),
(2263,1400,l),
(2263,1486,l),
(1766,1486,l),
(1766,1400,l),
(1987,1376,l),
(1913,1110,l),
(1300,1110,l),
(1211,1376,l),
(1422,1400,l),
(1422,1486,l),
(890,1486,l),
(890,1400,l),
(1055,1376,l),
(1114,1206,l),
(1078,1110,l),
(451,1110,l),
(360,1376,l),
(559,1400,l),
(559,1486,l),
(45,1486,l),
(45,1400,l),
(196,1376,l),
(288,1110,l),
(40,1110,l),
(40,1016,l),
(325,1016,l),
(438,664,l),
(88,664,l),
(88,568,l),
(473,568,l),
(670,-10,l)
);
},
{
closed = 1;
nodes = (
(671,452,l),
(631,568,l),
(888,568,l),
(848,452,l),
(758,136,l)
);
},
{
closed = 1;
nodes = (
(1510,452,l),
(1470,568,l),
(1744,568,l),
(1708,452,l),
(1610,108,l)
);
},
{
closed = 1;
nodes = (
(484,1016,l),
(1043,1016,l),
(922,664,l),
(598,664,l)
);
},
{
closed = 1;
nodes = (
(1166,1016,l),
(1183,1016,l),
(1295,664,l),
(1049,664,l)
);
},
{
closed = 1;
nodes = (
(1333,1016,l),
(1882,1016,l),
(1777,664,l),
(1439,664,l)
);
}
);
userData = {
com.schriftgestaltung.Glyphs.lastChange = "2019-04-25 21:50:43 +0000";
};
width = 2327;
},
{
layerId = "97BB7961-D669-43AB-8BBF-11FFD0C46A4B";
shapes = (
{
closed = 1;
nodes = (
(969,-10,l),
(1126,518,l),
(1332,518,l),
(1508,-10,l),
(1834,-10,l),
(1995,518,l),
(2363,518,l),
(2363,651,l),
(2037,651,l),
(2138,979,l),
(2388,979,l),
(2388,1111,l),
(2178,1111,l),
(2238,1321,l),
(2375,1350,l),
(2375,1486,l),
(1883,1486,l),
(1883,1350,l),
(2060,1321,l),
(2000,1111,l),
(1495,1111,l),
(1435,1320,l),
(1610,1350,l),
(1610,1486,l),
(938,1486,l),
(938,1350,l),
(1068,1320,l),
(1127,1151,l),
(1119,1111,l),
(625,1111,l),
(559,1321,l),
(704,1350,l),
(704,1486,l),
(69,1486,l),
(69,1350,l),
(178,1320,l),
(253,1111,l),
(69,1111,l),
(69,979,l),
(298,979,l),
(407,651,l),
(94,651,l),
(94,518,l),
(450,518,l),
(631,-10,l)
);
},
{
closed = 1;
nodes = (
(824,449,l),
(801,518,l),
(957,518,l),
(939,449,l),
(883,245,l)
);
},
{
closed = 1;
nodes = (
(1701,449,l),
(1680,518,l),
(1827,518,l),
(1809,449,l),
(1758,231,l)
);
},
{
closed = 1;
nodes = (
(656,979,l),
(1088,979,l),
(989,651,l),
(757,651,l)
);
},
{
closed = 1;
nodes = (
(1219,864,l),
(1231,864,l),
(1291,651,l),
(1166,651,l)
);
},
{
closed = 1;
nodes = (
(1535,979,l),
(1961,979,l),
(1860,651,l),
(1634,651,l)
);
}
);
width = 2461;
}
);
unicode = 8361;
userData = {
KernOnSpecialSpacing = {
L = symbols;
R = symbols;
};
};
}
{
glyphname = leftRightArrow;
layers = (
{
layerId = UUID0;
shapes = (
{
closed = 1;
nodes = (
(1602,172,l),
(2178,748,l),
(1602,1324,l),
(1514,1232,l),
(1944,804,l),
(1842,814,l),
(396,814,l),
(294,804,l),
(726,1232,l),
(636,1324,l),
(60,748,l),
(636,172,l),
(726,264,l),
(294,694,l),
(396,682,l),
(1842,682,l),
(1946,694,l),
(1514,264,l)
);
}
);
width = 2238;
},
{
layerId = "DEBB1CE4-A72D-4960-969E-E04A036D2FA1";
shapes = (
{
closed = 1;
nodes = (
(1636,176,l),
(2224,764,l),
(1636,1352,l),
(1489,1207,l),
(1839,857,l),
(1685,875,l),
(598,875,l),
(445,857,l),
(794,1207,l),
(648,1352,l),
(60,764,l),
(648,176,l),
(794,322,l),
(445,672,l),
(598,655,l),
(1685,655,l),
(1840,672,l),
(1489,322,l)
);
}
);
width = 2284;
},
{
layerId = "184155C8-9F61-4F1C-9784-DDA8EA717636";
shapes = (
{
closed = 1;
nodes = (
(1636,176,l),
(2224,764,l),
(1636,1352,l),
(1489,1207,l),
(1839,857,l),
(1685,875,l),
(598,875,l),
(445,857,l),
(794,1207,l),
(648,1352,l),
(60,764,l),
(648,176,l),
(794,322,l),
(445,672,l),
(598,655,l),
(1685,655,l),
(1840,672,l),
(1489,322,l)
);
}
);
width = 2284;
},
{
layerId = "EA2265BD-E890-48C4-9E90-A53076E780C5";
shapes = (
{
closed = 1;
nodes = (
(1636,176,l),
(2224,764,l),
(1636,1352,l),
(1489,1207,l),
(1839,857,l),
(1685,875,l),
(598,875,l),
(445,857,l),
(794,1207,l),
(648,1352,l),
(60,764,l),
(648,176,l),
(794,322,l),
(445,672,l),
(598,655,l),
(1685,655,l),
(1840,672,l),
(1489,322,l)
);
}
);
width = 2284;
},
{
layerId = "0E4B6E2E-ECAB-4D06-9686-B0B40AA31834";
shapes = (
{
closed = 1;
nodes = (
(1602,172,l),
(2178,748,l),
(1602,1324,l),
(1514,1232,l),
(1944,804,l),
(1842,814,l),
(396,814,l),
(294,804,l),
(726,1232,l),
(636,1324,l),
(60,748,l),
(636,172,l),
(726,264,l),
(294,694,l),
(396,682,l),
(1842,682,l),
(1946,694,l),
(1514,264,l)
);
}
);
width = 2238;
},
{
layerId = "F2B10EEF-9DDC-48CA-970D-6B8C79870881";
shapes = (
{
closed = 1;
nodes = (
(1636,176,l),
(2224,764,l),
(1636,1352,l),
(1489,1207,l),
(1839,857,l),
(1685,875,l),
(598,875,l),
(445,857,l),
(794,1207,l),
(648,1352,l),
(60,764,l),
(648,176,l),
(794,322,l),
(445,672,l),
(598,655,l),
(1685,655,l),
(1840,672,l),
(1489,322,l)
);
}
);
width = 2284;
},
{
layerId = "E96AC896-F5DF-475B-BBD9-C7FEC6A86D0E";
shapes = (
{
closed = 1;
nodes = (
(1602,172,l),
(2178,748,l),
(1602,1324,l),
(1514,1232,l),
(1944,804,l),
(1842,814,l),
(396,814,l),
(294,804,l),
(726,1232,l),
(636,1324,l),
(60,748,l),
(636,172,l),
(726,264,l),
(294,694,l),
(396,682,l),
(1842,682,l),
(1946,694,l),
(1514,264,l)
);
}
);
width = 2238;
},
{
layerId = "C9B9556E-C2FD-4F62-BB40-44923C452C22";
shapes = (
{
closed = 1;
nodes = (
(1602,172,l),
(2178,748,l),
(1602,1324,l),
(1514,1232,l),
(1944,804,l),
(1842,814,l),
(396,814,l),
(294,804,l),
(726,1232,l),
(636,1324,l),
(60,748,l),
(636,172,l),
(726,264,l),
(294,694,l),
(396,682,l),
(1842,682,l),
(1946,694,l),
(1514,264,l)
);
}
);
width = 2238;
},
{
layerId = "AFA1064D-EFC9-4C9F-B9B0-9118E41D87C4";
shapes = (
{
closed = 1;
nodes = (
(1636,176,l),
(2224,764,l),
(1636,1352,l),
(1489,1207,l),
(1839,857,l),
(1685,875,l),
(598,875,l),
(445,857,l),
(794,1207,l),
(648,1352,l),
(60,764,l),
(648,176,l),
(794,322,l),
(445,672,l),
(598,655,l),
(1685,655,l),
(1840,672,l),
(1489,322,l)
);
}
);
width = 2284;
},
{
layerId = "2103F1D3-C390-4F79-A87D-298F85EA6916";
shapes = (
{
closed = 1;
nodes = (
(1602,172,l),
(2178,748,l),
(1602,1324,l),
(1514,1232,l),
(1944,804,l),
(1842,814,l),
(396,814,l),
(294,804,l),
(726,1232,l),
(636,1324,l),
(60,748,l),
(636,172,l),
(726,264,l),
(294,694,l),
(396,682,l),
(1842,682,l),
(1946,694,l),
(1514,264,l)
);
}
);
width = 2238;
},
{
layerId = "779F1615-9D1A-4778-9767-9A030AA58B6C";
shapes = (
{
closed = 1;
nodes = (
(1602,172,l),
(2178,748,l),
(1602,1324,l),
(1514,1232,l),
(1944,804,l),
(1842,814,l),
(396,814,l),
(294,804,l),
(726,1232,l),
(636,1324,l),
(60,748,l),
(636,172,l),
(726,264,l),
(294,694,l),
(396,682,l),
(1842,682,l),
(1946,694,l),
(1514,264,l)
);
}
);
userData = {
com.schriftgestaltung.Glyphs.lastChange = "2019-04-25 21:50:43 +0000";
};
width = 2238;
},
{
layerId = "97BB7961-D669-43AB-8BBF-11FFD0C46A4B";
shapes = (
{
closed = 1;
nodes = (
(1636,176,l),
(2224,764,l),
(1636,1352,l),
(1489,1207,l),
(1839,857,l),
(1685,875,l),
(598,875,l),
(445,857,l),
(794,1207,l),
(648,1352,l),
(60,764,l),
(648,176,l),
(794,322,l),
(445,672,l),
(598,655,l),
(1685,655,l),
(1840,672,l),
(1489,322,l)
);
}
);
width = 2284;
}
);
metricLeft = "=|rightArrow";
metricRight = "=rightArrow";
unicode = 8596;
}
